<svg width="16" height="12" viewBox="0 0 16 12" fill="none" xmlns="http://www.w3.org/2000/svg">
<path d="M15.6667 0.31897H11.6667C11.623 0.31897 11.5796 0.327053 11.5392 0.342757C11.4987 0.358462 11.462 0.381481 11.431 0.410499C11.4001 0.439517 11.3755 0.473967 11.3588 0.511881C11.342 0.549795 11.3334 0.590432 11.3334 0.63147C11.3334 0.672508 11.342 0.713144 11.3588 0.751058C11.3755 0.788972 11.4001 0.823422 11.431 0.85244C11.462 0.881459 11.4987 0.904477 11.5392 0.920182C11.5796 0.935887 11.623 0.94397 11.6667 0.94397H14.8921L8.89206 6.56897L6.92473 4.72459C6.86108 4.66806 6.77674 4.63656 6.68906 4.63656C6.60139 4.63656 6.51705 4.66806 6.4534 4.72459L0.0973967 10.6821C0.0664485 10.7111 0.0419077 10.7456 0.0251754 10.7836C0.00844312 10.8215 -0.00015294 10.8622 -0.000121987 10.9033C-9.10342e-05 10.9443 0.00856633 10.985 0.0253558 11.0229C0.0421453 11.0608 0.0667381 11.0953 0.09773 11.1243C0.128722 11.1533 0.165506 11.1763 0.205982 11.192C0.246459 11.2077 0.289834 11.2157 0.333632 11.2157C0.377431 11.2157 0.420794 11.2076 0.461246 11.1918C0.501699 11.1761 0.538448 11.153 0.569397 11.124L6.6874 5.38772L8.65473 7.23272C8.71724 7.2913 8.80201 7.32421 8.8904 7.32421C8.97878 7.32421 9.06355 7.2913 9.12606 7.23272L15.3334 1.41397V4.38147C15.3334 4.46435 15.3685 4.54383 15.431 4.60244C15.4935 4.66105 15.5783 4.69397 15.6667 4.69397C15.7551 4.69397 15.8399 4.66105 15.9024 4.60244C15.9649 4.54383 16.0001 4.46435 16.0001 4.38147V0.63147C16.0001 0.54859 15.9649 0.469104 15.9024 0.410499C15.8399 0.351894 15.7551 0.31897 15.6667 0.31897Z" fill="#565656"/>
</svg>
