<svg width="23" height="23" viewBox="0 0 23 23" fill="none" xmlns="http://www.w3.org/2000/svg">
<path d="M18.6875 8.625C19.5405 8.625 20.3743 8.37208 21.0834 7.89821C21.7926 7.42435 22.3454 6.75083 22.6718 5.96282C22.9982 5.17482 23.0836 4.30772 22.9172 3.47117C22.7508 2.63463 22.3401 1.86622 21.7369 1.2631C21.1338 0.65999 20.3654 0.249264 19.5289 0.0828654C18.6923 -0.0835333 17.8252 0.00186855 17.0372 0.328271C16.2492 0.654674 15.5757 1.20742 15.1018 1.9166C14.628 2.62579 14.375 3.45957 14.375 4.3125C14.3791 4.81902 14.4735 5.32075 14.6539 5.79408L7.92451 9.15783C7.41904 8.37638 6.67434 7.77941 5.80162 7.45609C4.92891 7.13278 3.97501 7.10046 3.08242 7.36398C2.18982 7.62749 1.40642 8.1727 0.849235 8.91815C0.292046 9.66361 -0.0090332 10.5693 -0.0090332 11.5C-0.0090332 12.4307 0.292046 13.3364 0.849235 14.0818C1.40642 14.8273 2.18982 15.3725 3.08242 15.636C3.97501 15.8995 4.92891 15.8672 5.80162 15.5439C6.67434 15.2206 7.41904 14.6236 7.92451 13.8422L14.653 17.2069C14.4734 17.6801 14.3793 18.1814 14.375 18.6875C14.3699 19.7299 14.7407 20.7392 15.4194 21.5304C16.0981 22.3215 17.0393 22.8416 18.0703 22.9951C19.1013 23.1486 20.1531 22.9254 21.0329 22.3663C21.9127 21.8072 22.5615 20.9497 22.8603 19.9511C23.1591 18.9524 23.0879 17.8795 22.6599 16.9291C22.2318 15.9786 21.4754 15.2143 20.5295 14.7763C19.5836 14.3383 18.5115 14.2559 17.5098 14.5443C16.5081 14.8327 15.6439 15.4724 15.0756 16.3463L8.34617 12.9816C8.71803 12.0289 8.71803 10.9711 8.34617 10.0184L15.0756 6.65467C15.4655 7.25837 16.0002 7.75491 16.6311 8.09906C17.2619 8.4432 17.9689 8.62401 18.6875 8.625ZM18.6875 0.958335C19.3509 0.958335 19.9994 1.15505 20.551 1.52361C21.1026 1.89217 21.5325 2.41602 21.7864 3.02892C22.0403 3.64181 22.1067 4.31622 21.9773 4.96687C21.8478 5.61751 21.5284 6.21517 21.0593 6.68425C20.5902 7.15334 19.9926 7.4728 19.3419 7.60222C18.6913 7.73164 18.0169 7.66522 17.404 7.41135C16.7911 7.15748 16.2672 6.72757 15.8987 6.17598C15.5301 5.62439 15.3334 4.97589 15.3334 4.3125C15.3334 3.42292 15.6868 2.56978 16.3158 1.94075C16.9448 1.31172 17.798 0.958335 18.6875 0.958335ZM4.31255 14.8542C3.64915 14.8542 3.00066 14.6574 2.44907 14.2889C1.89748 13.9203 1.46757 13.3965 1.2137 12.7836C0.959831 12.1707 0.893408 11.4963 1.02283 10.8456C1.15225 10.195 1.4717 9.59733 1.94079 9.12825C2.40988 8.65916 3.00754 8.3397 3.65818 8.21028C4.30883 8.08086 4.98324 8.14729 5.59613 8.40115C6.20902 8.65502 6.73287 9.08494 7.10143 9.63653C7.47 10.1881 7.66671 10.8366 7.66671 11.5C7.66671 12.3896 7.31333 13.2427 6.6843 13.8718C6.05527 14.5008 5.20213 14.8542 4.31255 14.8542ZM18.6875 15.3333C19.3509 15.3333 19.9994 15.5301 20.551 15.8986C21.1026 16.2672 21.5325 16.791 21.7864 17.4039C22.0403 18.0168 22.1067 18.6912 21.9773 19.3419C21.8478 19.9925 21.5284 20.5902 21.0593 21.0593C20.5902 21.5283 19.9926 21.8478 19.3419 21.9772C18.6913 22.1066 18.0169 22.0402 17.404 21.7863C16.7911 21.5325 16.2672 21.1026 15.8987 20.551C15.5301 19.9994 15.3334 19.3509 15.3334 18.6875C15.3334 17.7979 15.6868 16.9448 16.3158 16.3157C16.9448 15.6867 17.798 15.3333 18.6875 15.3333Z" fill="#F09236"/>
</svg>
