<svg width="23" height="24" viewBox="0 0 23 24" fill="none" xmlns="http://www.w3.org/2000/svg">
<g clip-path="url(#clip0_396_2229)">
<path d="M18.6878 8.89209C19.5407 8.89209 20.3745 8.63917 21.0837 8.1653C21.7929 7.69144 22.3456 7.01792 22.672 6.22991C22.9984 5.44191 23.0838 4.57481 22.9174 3.73826C22.751 2.90172 22.3403 2.13331 21.7372 1.53019C21.1341 0.92708 20.3657 0.516354 19.5291 0.349955C18.6926 0.183557 17.8255 0.268958 17.0375 0.595361C16.2495 0.921764 15.5759 1.47451 15.1021 2.18369C14.6282 2.89288 14.3753 3.72666 14.3753 4.57959C14.3793 5.08611 14.4738 5.58784 14.6542 6.06117L7.92475 9.42492C7.41929 8.64347 6.67458 8.0465 5.80187 7.72318C4.92915 7.39987 3.97526 7.36755 3.08266 7.63107C2.19006 7.89458 1.40667 8.43979 0.849479 9.18524C0.29229 9.9307 -0.00878906 10.8364 -0.00878906 11.7671C-0.00878906 12.6978 0.29229 13.6035 0.849479 14.3489C1.40667 15.0944 2.19006 15.6396 3.08266 15.9031C3.97526 16.1666 4.92915 16.1343 5.80187 15.811C6.67458 15.4877 7.41929 14.8907 7.92475 14.1093L14.6532 17.474C14.4736 17.9471 14.3795 18.4485 14.3753 18.9546C14.3702 19.997 14.741 21.0063 15.4197 21.7975C16.0984 22.5886 17.0395 23.1087 18.0705 23.2622C19.1016 23.4157 20.1534 23.1925 21.0332 22.6334C21.9129 22.0743 22.5617 21.2168 22.8605 20.2181C23.1594 19.2195 23.0882 18.1466 22.6601 17.1962C22.232 16.2457 21.4757 15.4814 20.5298 15.0434C19.5839 14.6054 18.5118 14.523 17.51 14.8114C16.5083 15.0997 15.6441 15.7395 15.0758 16.6134L8.34642 13.2487C8.71827 12.2959 8.71827 11.2382 8.34642 10.2855L15.0758 6.92176C15.4657 7.52545 16.0004 8.022 16.6313 8.36615C17.2622 8.71029 17.9692 8.8911 18.6878 8.89209ZM18.6878 1.22543C19.3512 1.22543 19.9997 1.42214 20.5513 1.7907C21.1029 2.15926 21.5328 2.68311 21.7866 3.29601C22.0405 3.9089 22.1069 4.58331 21.9775 5.23396C21.8481 5.8846 21.5286 6.48226 21.0595 6.95134C20.5905 7.42043 19.9928 7.73989 19.3422 7.86931C18.6915 7.99873 18.0171 7.93231 17.4042 7.67844C16.7913 7.42457 16.2675 6.99466 15.8989 6.44307C15.5303 5.89148 15.3336 5.24298 15.3336 4.57959C15.3336 3.69001 15.687 2.83687 16.316 2.20784C16.9451 1.57881 17.7982 1.22543 18.6878 1.22543ZM4.31279 15.1213C3.6494 15.1213 3.00091 14.9245 2.44932 14.556C1.89773 14.1874 1.46781 13.6636 1.21394 13.0507C0.960075 12.4378 0.893652 11.7634 1.02307 11.1127C1.15249 10.4621 1.47195 9.86442 1.94104 9.39534C2.41013 8.92625 3.00778 8.60679 3.65843 8.47737C4.30907 8.34795 4.98348 8.41438 5.59637 8.66824C6.20927 8.92211 6.73312 9.35203 7.10168 9.90361C7.47024 10.4552 7.66696 11.1037 7.66696 11.7671C7.66696 12.6567 7.31357 13.5098 6.68455 14.1388C6.05552 14.7679 5.20237 15.1213 4.31279 15.1213ZM18.6878 15.6004C19.3512 15.6004 19.9997 15.7971 20.5513 16.1657C21.1029 16.5343 21.5328 17.0581 21.7866 17.671C22.0405 18.2839 22.1069 18.9583 21.9775 19.609C21.8481 20.2596 21.5286 20.8573 21.0595 21.3263C20.5905 21.7954 19.9928 22.1149 19.3422 22.2443C18.6915 22.3737 18.0171 22.3073 17.4042 22.0534C16.7913 21.7996 16.2675 21.3697 15.8989 20.8181C15.5303 20.2665 15.3336 19.618 15.3336 18.9546C15.3336 18.065 15.687 17.2119 16.316 16.5828C16.9451 15.9538 17.7982 15.6004 18.6878 15.6004Z" fill="url(#paint0_linear_396_2229)"/>
</g>
<defs>
<linearGradient id="paint0_linear_396_2229" x1="3.05524" y1="4.12925" x2="18.9187" y2="21.6512" gradientUnits="userSpaceOnUse">
<stop stop-color="#DEC8A7"/>
<stop offset="0.301806" stop-color="#F3963A"/>
<stop offset="0.645833" stop-color="#E37B00"/>
<stop offset="1" stop-color="#B03B31"/>
</linearGradient>
<clipPath id="clip0_396_2229">
<rect width="23" height="23" fill="white" transform="translate(0.000244141 0.26709)"/>
</clipPath>
</defs>
</svg>
