<svg width="23" height="23" viewBox="0 0 23 23" fill="none" xmlns="http://www.w3.org/2000/svg">
<path d="M22.5208 11.0236C22.3938 11.0236 22.2719 11.0741 22.182 11.1639C22.0921 11.2538 22.0417 11.3757 22.0417 11.5028C22.0416 14.0092 21.1484 16.4335 19.5224 18.341C17.8964 20.2484 15.644 21.5141 13.1692 21.9109C10.6944 22.3078 8.1592 21.8099 6.01831 20.5066C3.87742 19.2033 2.27096 17.1798 1.48711 14.7991C0.703262 12.4184 0.79331 9.83629 1.7411 7.51599C2.6889 5.1957 4.43242 3.28902 6.6589 2.13799C8.88539 0.986956 11.4491 0.666893 13.8903 1.23521C16.3314 1.80353 18.4902 3.22304 19.9793 5.23911L10.8119 14.4065L7.42996 11.0236C7.38576 10.9778 7.33289 10.9413 7.27443 10.9162C7.21597 10.8911 7.15309 10.8779 7.08947 10.8773C7.02584 10.8768 6.96275 10.8889 6.90386 10.913C6.84497 10.9371 6.79147 10.9727 6.74648 11.0177C6.70149 11.0626 6.66591 11.1161 6.64182 11.175C6.61772 11.2339 6.6056 11.297 6.60615 11.3606C6.60671 11.4243 6.61993 11.4871 6.64504 11.5456C6.67015 11.6041 6.70665 11.6569 6.75242 11.7011L10.4736 15.4223C10.5635 15.5122 10.6853 15.5626 10.8124 15.5626C10.9395 15.5626 11.0613 15.5122 11.1512 15.4223L20.9434 5.6301C21.0226 5.55118 21.0717 5.44704 21.0822 5.33573C21.0927 5.22443 21.0639 5.11295 21.0009 5.02061C19.4499 2.74634 17.1346 1.10388 14.4755 0.391619C11.8165 -0.320639 8.99011 -0.0554361 6.50997 1.13905C4.02983 2.33353 2.06043 4.37804 0.959585 6.90113C-0.141263 9.42423 -0.300528 12.2585 0.510726 14.8891C1.32198 17.5196 3.04993 19.7719 5.38064 21.2367C7.71135 22.7015 10.4902 23.2817 13.2123 22.8718C15.9344 22.4619 18.4192 21.0892 20.2152 19.003C22.0112 16.9168 22.9993 14.2556 23 11.5028C23 11.3757 22.9495 11.2538 22.8597 11.1639C22.7698 11.0741 22.6479 11.0236 22.5208 11.0236Z" fill="#565656"/>
</svg>
