<svg width="287" height="45" viewBox="0 0 287 45" fill="none" xmlns="http://www.w3.org/2000/svg">
<g clip-path="url(#clip0_378_2586)">
<path d="M173.055 42.5223L173.04 42.5069L161.128 30.7928L161.127 30.7918C160.967 30.6337 160.851 30.4373 160.79 30.2203C160.729 30.003 160.726 29.7741 160.783 29.5557C160.84 29.3375 160.953 29.1389 161.11 28.9778C161.265 28.818 161.459 28.7004 161.671 28.6339C164.693 27.6433 167.304 25.7553 169.125 23.2482L169.131 23.2405L169.131 23.2406C170.476 21.4611 171.369 19.4064 171.74 17.2404C172.11 15.0755 171.949 12.8574 171.269 10.7621C170.26 7.76607 168.278 5.15382 165.607 3.3093C162.936 1.46413 159.717 0.485003 156.42 0.517704L156.416 0.517753L156.313 0.517728C154.771 0.526319 153.219 0.529054 151.668 0.531788C150.974 0.533011 150.279 0.534235 149.586 0.535983L149.585 0.535987L119.536 0.530495C119.536 0.530495 119.535 0.530495 119.535 0.530495C119.319 0.53052 119.106 0.581864 118.916 0.678884C118.727 0.775873 118.568 0.914972 118.451 1.08211C118.335 1.24909 118.264 1.43936 118.244 1.63595C118.223 1.83241 118.254 2.03117 118.333 2.21513C118.333 2.2152 118.333 2.21527 118.333 2.21534L118.333 2.21541L118.334 2.217L118.336 2.2233L118.347 2.24803L118.388 2.3431L118.539 2.69257L119.036 3.84383C119.424 4.74192 119.884 5.80691 120.173 6.47528L173.055 42.5223ZM173.055 42.5223L173.072 42.5363C173.245 42.6786 173.365 42.8654 173.421 43.07C173.476 43.2744 173.465 43.4899 173.389 43.6888C173.313 43.888 173.173 44.0638 172.986 44.19C172.798 44.3163 172.573 44.386 172.339 44.3873H172.339L166.113 44.4243L173.055 42.5223ZM120.738 7.32749L120.737 6.82749L120.737 6.82749C120.612 6.82776 120.492 6.79252 120.392 6.72838C120.291 6.66439 120.216 6.57547 120.173 6.47537L120.738 7.32749ZM120.738 7.32749C120.737 6.82749 120.738 6.82749 120.738 6.82749L120.739 6.82749L120.744 6.82749L120.762 6.82748L120.835 6.82747L121.121 6.8274L122.208 6.82716L126.1 6.82634L138.032 6.82408C146.792 6.82261 155.778 6.8216 156.68 6.82346L156.684 6.82347C157.981 6.83797 159.258 7.1386 160.415 7.70297C161.573 8.26736 162.582 9.0808 163.362 10.0818C164.142 11.0829 164.673 12.2444 164.911 13.4767C165.15 14.7082 165.089 15.9759 164.735 17.181C164.232 18.9486 163.125 20.4982 161.596 21.5827C160.07 22.6659 158.21 23.2234 156.317 23.1689C143.898 23.1773 135.708 23.1778 123.286 23.1554H122.509C122.204 23.1554 121.916 23.2716 121.707 23.4722C121.499 23.6721 121.386 23.9387 121.386 24.212V25.0106C121.41 29.107 121.408 35.1932 121.405 39.0454C121.405 39.0459 121.405 39.0463 121.405 39.0467L121.424 43.2689C121.425 43.5843 121.557 43.8908 121.797 44.1199C122.037 44.3498 122.367 44.4822 122.715 44.4822H126.654C127.004 44.4822 127.334 44.349 127.575 44.1181L127.921 44.4789L127.575 44.1181C127.815 43.8878 127.946 43.5801 127.946 43.2638V30.6033C127.946 30.4441 127.979 30.287 128.042 30.1412C128.105 29.9955 128.196 29.8644 128.31 29.755C128.424 29.6457 128.559 29.56 128.705 29.5019C128.851 29.4438 129.007 29.4141 129.165 29.4142L148.617 29.42C149.478 29.4202 150.308 29.7479 150.924 30.3372L165.381 44.1732C165.584 44.3351 165.843 44.4256 166.113 44.4243L120.738 7.32749Z" stroke="#DEC8A7"/>
<path d="M72.872 0.510223H92.0488C96.701 0.510228 101.159 2.28308 104.442 5.43257C107.725 8.58139 109.565 12.8475 109.565 17.2912V27.7089C109.565 29.9096 109.113 32.0893 108.235 34.1238C107.356 36.1583 106.068 38.0082 104.442 39.5675C102.817 41.1268 100.886 42.3647 98.7589 43.2097C96.6321 44.0546 94.3521 44.4898 92.049 44.4898H72.8722C68.22 44.4898 63.7623 42.7169 60.4788 39.5674C57.196 36.4186 55.3558 32.1525 55.3558 27.7088V17.2911C55.3558 12.8474 57.196 8.58129 60.4788 5.43251C63.7622 2.28304 68.2199 0.510223 72.872 0.510223ZM99.3805 34.77C101.672 32.5718 102.964 29.5859 102.964 26.4678V18.5325C102.964 15.4144 101.672 12.4283 99.3804 10.2301C97.0893 8.0325 93.9862 6.8014 90.7547 6.8014H74.1658C72.5653 6.8014 70.9801 7.10373 69.5005 7.69161C68.0208 8.2795 66.675 9.1417 65.5405 10.2299C64.4059 11.3182 63.5047 12.6113 62.8895 14.036C62.2742 15.4608 61.9573 16.9886 61.9573 18.532V26.4681C61.9573 29.5861 63.2488 32.572 65.5404 34.7701C67.8314 36.9675 70.9343 38.1986 74.1656 38.1986H90.7551C93.9865 38.1986 97.0895 36.9675 99.3805 34.77Z" stroke="#DEC8A7"/>
<path d="M45.0424 6.79687H45.0397H19.3099C16.0786 6.79687 12.9757 8.02793 10.6848 10.2254C8.39311 12.4235 7.10157 15.4094 7.10157 18.5274V26.4633C7.10157 29.5814 8.39311 32.5673 10.6848 34.7655C12.9759 36.963 16.0789 38.1941 19.3103 38.1941H45.0262C45.1491 38.1941 45.2677 38.2291 45.367 38.2924C45.466 38.3557 45.5401 38.4435 45.5832 38.5424L47.4434 42.8123C47.5235 42.9963 47.5547 43.1953 47.5349 43.3921C47.5152 43.589 47.4449 43.7796 47.3287 43.947C47.2123 44.1145 47.0531 44.254 46.8636 44.3513C46.6741 44.4486 46.4611 44.5001 46.2439 44.5L17.2867 44.4906C12.8275 44.4892 8.55545 42.7889 5.40893 39.7699C2.26312 36.7515 0.5 32.6628 0.5 28.4042V17.2859C0.5 12.8426 2.33977 8.57693 5.62192 5.4282C8.90478 2.27879 13.3617 0.505617 18.0134 0.50486L46.2416 0.499992C46.4586 0.499957 46.6713 0.551269 46.8607 0.648285C47.0501 0.745263 47.2093 0.88435 47.3259 1.05145C47.4424 1.21842 47.5131 1.40868 47.5335 1.60529C47.5539 1.80183 47.5236 2.00068 47.4444 2.18474L47.4437 2.18633L47.441 2.19264L47.4303 2.21741L47.3892 2.31264L47.2381 2.66264L46.7404 3.81541C46.3522 4.71444 45.8918 5.78022 45.6029 6.44789C45.5598 6.54735 45.4853 6.6357 45.3855 6.69918C45.2855 6.76278 45.166 6.79754 45.0424 6.79687Z" stroke="#DEC8A7"/>
<path d="M229.805 42.8268L229.805 42.8253L254.631 1.74464C254.632 1.7444 254.632 1.74417 254.632 1.74394C254.856 1.37668 255.178 1.06951 255.567 0.855003C255.957 0.640303 256.401 0.526609 256.853 0.526611H259.284C259.738 0.526612 260.183 0.641032 260.574 0.857029C260.964 1.07297 261.286 1.38216 261.51 1.75157L286.345 42.8377C286.445 43.0032 286.497 43.1892 286.498 43.3774C286.498 43.5657 286.447 43.7518 286.347 43.9175C286.247 44.0833 286.102 44.2236 285.925 44.3222C285.747 44.4208 285.543 44.4734 285.335 44.4734H280.346C280.324 44.4703 280.3 44.4683 280.274 44.4683H280.273L265.419 44.471L265.079 44.4711L265.078 44.4734H253.739C253.528 44.4734 253.322 44.42 253.142 44.32C252.962 44.2201 252.815 44.0779 252.714 43.9097C252.613 43.7416 252.561 43.5528 252.561 43.362C252.562 43.1712 252.615 42.9825 252.716 42.8148L255.138 38.8143C255.249 38.6315 255.409 38.4773 255.605 38.3691C255.801 38.2608 256.025 38.2031 256.254 38.203C256.254 38.203 256.254 38.203 256.254 38.203L273.536 38.2088C273.747 38.2088 273.955 38.1558 274.139 38.0535C274.324 37.9511 274.479 37.8024 274.588 37.6204C274.698 37.4383 274.756 37.23 274.755 37.0166C274.755 36.8033 274.696 36.5952 274.585 36.4136L272.562 33.0794L272.562 33.079L263.208 17.6254L260.569 13.2652L260.569 13.2646L259.124 10.8695C259.014 10.6883 258.859 10.5403 258.675 10.4385C258.491 10.3367 258.284 10.2838 258.074 10.2838C257.864 10.2838 257.657 10.3367 257.473 10.4385C257.289 10.5403 257.133 10.6883 257.024 10.8695L256.482 11.7678C256.48 11.7701 256.478 11.7725 256.476 11.7751C256.466 11.7885 256.453 11.8065 256.439 11.8287L256.438 11.8313L252.734 17.9804L252.733 17.9816L252.723 17.999L252.722 18.0003L237.193 43.7819C237.193 43.7822 237.193 43.7825 237.193 43.7828C237.071 43.9828 236.895 44.1513 236.681 44.2697L236.923 44.7073L236.681 44.2697C236.466 44.3883 236.221 44.4518 235.971 44.4524L230.816 44.4656H230.816C230.607 44.4662 230.403 44.4138 230.225 44.3151C230.046 44.2165 229.901 44.0758 229.801 43.9094C229.701 43.7433 229.65 43.5565 229.65 43.3677C229.651 43.179 229.704 42.9925 229.805 42.8268Z" stroke="#DEC8A7"/>
<path d="M234.414 0.534327L234.414 0.534327L229.293 0.547519C229.293 0.547519 229.293 0.54752 229.293 0.54752C229.043 0.548214 228.798 0.611691 228.583 0.730294C228.369 0.848789 228.193 1.01752 228.071 1.21778C228.071 1.21789 228.071 1.218 228.071 1.21811L212.54 26.8783L212.54 26.8791L212.522 26.9083L208.733 33.1696L208.732 33.1712C208.699 33.224 208.666 33.2643 208.649 33.2843C208.644 33.2912 208.64 33.296 208.637 33.2992L208.105 34.175C207.995 34.3554 207.839 34.5025 207.656 34.6037C207.472 34.7048 207.266 34.7573 207.056 34.7573C206.847 34.7572 206.641 34.7046 206.457 34.6034C206.273 34.5021 206.118 34.3549 206.009 34.1745L206.436 33.915L206.009 34.1744L205.458 33.2672L205.455 33.2635C205.442 33.2485 205.411 33.2107 205.38 33.1603C205.38 33.1598 205.38 33.1592 205.379 33.1587L200.865 25.7035L200.865 25.7026L200.85 25.6788L200.85 25.6779L186.033 1.20652L186.032 1.20496C185.91 1.00193 185.733 0.830745 185.516 0.710696C185.3 0.590591 185.052 0.526602 184.799 0.526577L234.414 0.534327ZM234.414 0.534327C234.623 0.533768 234.827 0.586206 235.006 0.68492C235.184 0.783585 235.33 0.924242 235.43 1.09056L235.858 0.833239L235.43 1.09056C235.529 1.25674 235.581 1.44354 235.58 1.63227C235.579 1.82093 235.527 2.00746 235.426 2.17314L235.425 2.17429M234.414 0.534327L235.425 2.17429M235.425 2.17429L210.551 43.2554C210.327 43.623 210.005 43.9304 209.616 44.145C209.225 44.3597 208.782 44.4734 208.33 44.4734H205.746C205.292 44.4734 204.848 44.359 204.457 44.1429C204.066 43.927 203.744 43.6178 203.52 43.2483L178.685 2.16218C178.685 2.16217 178.685 2.16216 178.685 2.16215C178.585 1.99672 178.533 1.81068 178.533 1.62255C178.532 1.43442 178.584 1.24824 178.683 1.08256C178.783 0.916713 178.928 0.776446 179.106 0.677895C179.284 0.579274 179.487 0.5266 179.695 0.526577C179.695 0.526577 179.695 0.526577 179.695 0.526577M235.425 2.17429L179.695 0.526577M179.695 0.526577H184.799H179.695Z" stroke="#DEC8A7"/>
</g>
<defs>
<clipPath id="clip0_378_2586">
<rect width="287" height="45" fill="white"/>
</clipPath>
</defs>
</svg>
