<svg width="225" height="36" viewBox="0 0 225 36" fill="none" xmlns="http://www.w3.org/2000/svg">
<g clip-path="url(#clip0_396_2203)">
<path d="M135.933 33.0507L126.595 23.9398C126.517 23.8634 126.461 23.7694 126.432 23.6667C126.403 23.564 126.402 23.4559 126.429 23.3527C126.456 23.2494 126.51 23.1545 126.587 23.0767C126.663 22.9989 126.759 22.941 126.865 22.9083C129.312 22.1132 131.428 20.5962 132.907 18.5777C133.999 17.1446 134.724 15.4888 135.026 13.7419C135.327 11.995 135.196 10.2053 134.642 8.5153C133.824 6.10278 132.216 4.00244 130.054 2.52101C127.892 1.03958 125.289 0.254661 122.625 0.280879H122.544C120.794 0.290552 119.03 0.290676 117.27 0.295078L93.7126 0.290808C93.4809 0.290817 93.2528 0.345149 93.0485 0.449004C92.8442 0.552859 92.6699 0.703037 92.5411 0.886244C92.4123 1.06945 92.3329 1.28005 92.31 1.4994C92.2871 1.71875 92.3214 1.94009 92.4097 2.14384C92.4097 2.14384 93.3988 4.41793 93.8527 5.458C93.9185 5.60877 94.0299 5.73756 94.1727 5.82804C94.3156 5.91852 94.4834 5.96662 94.655 5.96625C94.655 5.96625 121.419 5.96022 122.832 5.96311C123.791 5.97374 124.735 6.19435 125.589 6.60785C126.444 7.02135 127.188 7.61662 127.762 8.34756C128.336 9.0785 128.726 9.92547 128.901 10.8228C129.076 11.7202 129.032 12.6438 128.771 13.5221C128.402 14.8102 127.588 15.9425 126.46 16.7365C125.332 17.5304 123.956 17.9398 122.554 17.8984C112.814 17.905 106.394 17.9053 96.6536 17.888H96.0434C95.7059 17.888 95.3824 18.0155 95.1438 18.2426C94.9052 18.4696 94.7711 18.7776 94.7711 19.0986V19.7209C94.7902 22.9058 94.7886 27.6398 94.7862 30.6365L94.801 33.9224C94.8025 34.2759 94.9512 34.6144 95.2144 34.8638C95.4777 35.1132 95.834 35.2533 96.2055 35.2533H99.2936C99.6661 35.2533 100.023 35.1125 100.287 34.8618C100.55 34.6111 100.698 34.2712 100.698 33.9167V24.0696C100.698 23.9992 100.713 23.9295 100.741 23.8645C100.769 23.7994 100.811 23.7404 100.863 23.6906C100.915 23.6408 100.978 23.6013 101.046 23.5744C101.114 23.5475 101.188 23.5336 101.261 23.5337L116.511 23.5382C117.088 23.5384 117.641 23.7561 118.049 24.1436L129.395 34.9159C129.627 35.106 129.924 35.2097 130.23 35.2082L135.111 35.1794C135.37 35.178 135.623 35.1014 135.835 34.9596C136.047 34.8179 136.209 34.6179 136.298 34.3864C136.388 34.1549 136.401 33.9029 136.335 33.6642C136.27 33.4255 136.13 33.2115 135.933 33.0507Z" fill="#DEC8A7"/>
<path d="M72.1636 0.275055H57.1295C53.3836 0.275055 49.791 1.69112 47.1422 4.21173C44.4934 6.73235 43.0054 10.151 43.0054 13.7157V21.8184C43.0054 25.3831 44.4935 28.8018 47.1423 31.3224C49.7911 33.8431 53.3837 35.2591 57.1297 35.2591H72.1638C74.0186 35.2591 75.8552 34.9115 77.5689 34.236C79.2825 33.5606 80.8395 32.5706 82.1511 31.3225C83.4626 30.0744 84.503 28.5927 85.2128 26.962C85.9226 25.3313 86.2879 23.5835 86.2879 21.8185V13.7159C86.2879 10.1511 84.7999 6.73242 82.151 4.21178C79.5022 1.69114 75.9096 0.275058 72.1636 0.275055ZM80.3286 20.8532C80.3286 23.1698 79.3616 25.3916 77.6401 27.0298C75.9187 28.6679 73.5839 29.5882 71.1494 29.5882H58.1437C55.7093 29.5882 53.3745 28.668 51.6531 27.0299C49.9317 25.3918 48.9647 23.17 48.9647 20.8534V14.6809C48.9647 13.5338 49.2021 12.398 49.6634 11.3382C50.1247 10.2784 50.8008 9.3155 51.6532 8.50438C52.5056 7.69326 53.5174 7.04985 54.6311 6.61088C55.7448 6.1719 56.9384 5.94597 58.1438 5.94597H71.1491C73.5837 5.94597 75.9185 6.86629 77.64 8.50448C79.3615 10.1427 80.3286 12.3645 80.3286 14.6813V20.8532Z" fill="#DEC8A7"/>
<path d="M13.5522 35.2598L36.2538 35.2671C36.4858 35.2672 36.7142 35.2127 36.9188 35.1085C37.1233 35.0043 37.2977 34.8537 37.4263 34.6699C37.5549 34.4862 37.6339 34.2751 37.6561 34.0553C37.6783 33.8355 37.6431 33.614 37.5537 33.4103L36.0953 30.0892C36.0297 29.9398 35.9191 29.8121 35.7775 29.7224C35.6358 29.6326 35.4694 29.5847 35.2993 29.5847H15.1387C12.7042 29.5847 10.3694 28.6644 8.64796 27.0263C6.92651 25.3881 5.95942 23.1663 5.95942 20.8496V14.6773C5.95942 12.3607 6.92651 10.1389 8.6479 8.50082C10.3693 6.86273 12.704 5.94244 15.1384 5.94244H35.3099C35.4811 5.94335 35.6487 5.89574 35.7914 5.80568C35.9341 5.71563 36.0454 5.5872 36.1111 5.43675C36.5643 4.39785 37.5552 2.12002 37.5552 2.12002C37.6436 1.91625 37.6778 1.69488 37.6549 1.47553C37.6319 1.25617 37.5525 1.04557 37.4237 0.862373C37.2949 0.67917 37.1205 0.529013 36.9162 0.425184C36.7118 0.321355 36.4837 0.267053 36.2521 0.26709L14.1219 0.270876C10.3763 0.27148 6.78437 1.68782 4.13607 4.20839C1.48776 6.72897 -5.39139e-08 10.1473 0 13.7117V22.3593C-1.85402e-07 25.78 1.42766 29.0606 3.96906 31.4798C6.51046 33.899 9.95751 35.2587 13.5522 35.2598Z" fill="#DEC8A7"/>
<path d="M224.822 33.3842L205.352 1.42824C205.14 1.08138 204.837 0.793443 204.472 0.593287C204.107 0.39313 203.693 0.287781 203.272 0.287781H201.366C200.946 0.287779 200.533 0.392458 200.169 0.5914C199.804 0.790342 199.501 1.07661 199.289 1.4217L179.826 33.3745C179.71 33.5632 179.648 33.7777 179.647 33.9962C179.647 34.2148 179.707 34.4296 179.821 34.619C179.936 34.8084 180.101 34.9656 180.3 35.0747C180.499 35.1839 180.725 35.241 180.954 35.2404L184.996 35.2301C185.257 35.2294 185.514 35.1637 185.741 35.0395C185.967 34.9152 186.156 34.7368 186.288 34.5218L198.464 14.467L198.472 14.4525L201.376 9.66989C201.383 9.65875 201.391 9.65151 201.398 9.64068L201.835 8.92203C201.885 8.84068 201.956 8.77313 202.041 8.72617C202.127 8.67921 202.224 8.65449 202.323 8.65449C202.421 8.65449 202.518 8.67921 202.604 8.72617C202.69 8.77313 202.761 8.84068 202.81 8.92203L203.943 10.7853L206.012 14.1771L213.346 26.1969L214.932 28.7905C214.982 28.872 215.008 28.9645 215.009 29.0588C215.009 29.153 214.983 29.2457 214.933 29.3274C214.884 29.4091 214.813 29.477 214.727 29.5242C214.641 29.5713 214.544 29.5962 214.445 29.5961L200.896 29.5917C200.651 29.5917 200.41 29.6529 200.198 29.7692C199.985 29.8856 199.809 30.0529 199.686 30.2546L197.787 33.366C197.671 33.5563 197.609 33.7723 197.609 33.9923C197.609 34.2123 197.669 34.4285 197.784 34.6192C197.9 34.8098 198.066 34.9682 198.266 35.0783C198.466 35.1884 198.693 35.2464 198.924 35.2464H208.08L208.081 35.2445L219.727 35.2424C219.732 35.2424 219.737 35.2464 219.742 35.2464H223.695C223.924 35.2464 224.149 35.189 224.347 35.08C224.545 34.971 224.71 34.8142 224.824 34.6253C224.938 34.4365 224.998 34.2224 224.998 34.0045C224.998 33.7866 224.937 33.5727 224.822 33.3842Z" fill="#DEC8A7"/>
<path d="M183.773 0.293779L179.758 0.30404C179.497 0.304748 179.24 0.370464 179.013 0.494701C178.787 0.618938 178.598 0.79737 178.466 1.01232L166.276 20.9938L166.276 20.9944L163.305 25.8643C163.286 25.8956 163.262 25.9176 163.242 25.9466L162.813 26.6456C162.764 26.7266 162.693 26.7938 162.607 26.8404C162.522 26.8871 162.425 26.9117 162.326 26.9116C162.228 26.9116 162.131 26.887 162.046 26.8403C161.961 26.7936 161.889 26.7264 161.84 26.6454L161.398 25.9226C161.382 25.8995 161.363 25.8826 161.348 25.858L157.808 20.0572L157.796 20.038L146.18 1.00406C146.048 0.786331 145.858 0.605487 145.63 0.479737C145.401 0.353986 145.142 0.28777 144.878 0.28775H140.876C140.647 0.287768 140.422 0.345186 140.224 0.454218C140.025 0.563251 139.861 0.720046 139.747 0.908832C139.632 1.09762 139.572 1.31173 139.573 1.52961C139.573 1.74748 139.634 1.96143 139.748 2.14992L159.219 34.1059C159.43 34.4527 159.734 34.7407 160.099 34.9408C160.464 35.141 160.878 35.2464 161.299 35.2464H163.325C163.745 35.2464 164.157 35.1417 164.522 34.9428C164.886 34.7438 165.189 34.4576 165.401 34.1125L184.902 2.15961C185.018 1.97093 185.079 1.75645 185.08 1.53792C185.081 1.31938 185.021 1.10454 184.906 0.915154C184.792 0.725765 184.626 0.568562 184.428 0.459444C184.229 0.350326 184.003 0.29317 183.773 0.293779Z" fill="#DEC8A7"/>
</g>
<defs>
<clipPath id="clip0_396_2203">
<rect width="225" height="35" fill="white" transform="translate(0 0.26709)"/>
</clipPath>
</defs>
</svg>
