<svg width="233" height="82" viewBox="0 0 233 82" fill="none" xmlns="http://www.w3.org/2000/svg">
<mask id="path-1-inside-1_378_2592" fill="white">
<path fill-rule="evenodd" clip-rule="evenodd" d="M84.4219 24.2699C79.557 24.2699 76.1308 26.1666 73.938 29.3504L73.8009 26.0989C73.8014 25.9595 73.7728 25.8216 73.7169 25.6936C73.6611 25.5656 73.5792 25.4504 73.4764 25.3551C73.3735 25.2598 73.2519 25.1864 73.1191 25.1396C72.9863 25.0927 72.8452 25.0734 72.7046 25.0828H65.1C64.9628 25.0746 64.8255 25.0953 64.697 25.1434C64.5685 25.1916 64.4519 25.2662 64.3547 25.3622C64.2576 25.4582 64.1821 25.5736 64.1334 25.7006C64.0847 25.8276 64.0638 25.9633 64.0721 26.0989V70.1278C64.0638 70.2634 64.0847 70.3992 64.1334 70.5262C64.1821 70.6532 64.2576 70.7685 64.3547 70.8646C64.4519 70.9606 64.5685 71.0351 64.697 71.0833C64.8255 71.1315 64.9628 71.1521 65.1 71.1439H73.5281C73.6688 71.1533 73.8099 71.134 73.9427 71.0872C74.0754 71.0403 74.197 70.967 74.2999 70.8716C74.4027 70.7763 74.4846 70.6611 74.5405 70.5331C74.5963 70.4052 74.6249 70.2672 74.6245 70.1278V54.8204C76.8173 57.53 80.0379 59.088 84.4231 59.088C93.8089 59.088 100.252 51.5693 100.252 41.681C100.251 31.8568 93.8093 24.2699 84.4219 24.2699ZM82.1605 49.6714C77.5698 49.6714 74.4862 46.4876 74.4862 41.6108C74.4862 36.8691 77.5698 33.6874 82.1605 33.6874C86.6146 33.6874 89.9724 36.8711 89.9724 41.6806C89.9724 46.5554 86.6146 49.6714 82.1605 49.6714ZM105.408 58.2739H113.836C113.977 58.2833 114.118 58.264 114.251 58.2171C114.383 58.1703 114.505 58.0969 114.608 58.0016C114.711 57.9063 114.793 57.791 114.848 57.6631C114.904 57.5351 114.933 57.3971 114.932 57.2578V10.8584C114.933 10.719 114.904 10.5811 114.848 10.4531C114.793 10.3251 114.711 10.2099 114.608 10.1146C114.505 10.0193 114.383 9.94589 114.251 9.89905C114.118 9.8522 113.977 9.8329 113.836 9.84232H105.408C105.271 9.83411 105.133 9.85474 105.005 9.9029C104.876 9.95106 104.76 10.0256 104.663 10.1217C104.565 10.2177 104.49 10.3331 104.441 10.4601C104.393 10.5871 104.372 10.7228 104.38 10.8584V57.2578C104.372 57.3934 104.393 57.5291 104.441 57.6561C104.49 57.7831 104.565 57.8984 104.663 57.9945C104.76 58.0905 104.876 58.1651 105.005 58.2132C105.133 58.2614 105.271 58.2821 105.408 58.2739ZM154.145 25.0828H146.536C146.396 25.0736 146.255 25.0931 146.122 25.14C145.989 25.1869 145.868 25.2602 145.765 25.3555C145.662 25.4508 145.58 25.566 145.524 25.6938C145.468 25.8217 145.44 25.9596 145.44 26.0989L145.303 29.2847C143.11 26.1687 139.684 24.272 134.821 24.272C125.501 24.272 119.061 31.8588 119.061 41.679C119.061 51.5685 125.501 59.0859 134.821 59.0859C139.617 59.0859 143.044 57.1892 145.303 54.0732L145.44 57.257C145.44 57.3963 145.468 57.5342 145.524 57.662C145.58 57.7899 145.662 57.9051 145.765 58.0004C145.868 58.0956 145.989 58.169 146.122 58.2159C146.255 58.2628 146.396 58.2823 146.536 58.273H154.074C154.219 58.2837 154.364 58.2657 154.501 58.2201C154.638 58.1745 154.765 58.1023 154.874 58.0077C154.982 57.913 155.071 57.7979 155.134 57.6689C155.197 57.54 155.234 57.4 155.241 57.257V26.0969C155.241 25.9577 155.212 25.8201 155.156 25.6924C155.1 25.5648 155.018 25.4499 154.915 25.3548C154.813 25.2598 154.691 25.1866 154.559 25.1398C154.426 25.093 154.285 25.0736 154.145 25.0828ZM137.084 49.6714C132.628 49.6714 129.272 46.5554 129.272 41.6786C129.272 36.8691 132.628 33.6853 137.084 33.6853C141.673 33.6853 144.825 36.8691 144.825 41.6088C144.825 46.4864 141.673 49.6714 137.084 49.6714ZM180.749 24.2699C175.952 24.2699 172.8 26.6408 170.815 29.9601L170.541 26.1667C170.541 25.3538 170.13 25.0828 169.511 25.0828H161.425C161.288 25.0749 161.151 25.0957 161.023 25.144C160.894 25.1922 160.778 25.2669 160.681 25.3629C160.584 25.4589 160.509 25.5742 160.46 25.701C160.412 25.8279 160.391 25.9635 160.399 26.0989V57.259C160.391 57.3944 160.412 57.53 160.46 57.6569C160.509 57.7838 160.584 57.899 160.681 57.995C160.778 58.0911 160.894 58.1657 161.023 58.214C161.151 58.2622 161.288 58.2831 161.425 58.2751H169.785C169.926 58.2847 170.067 58.2655 170.2 58.2187C170.333 58.172 170.454 58.0986 170.557 58.0032C170.66 57.9079 170.742 57.7926 170.798 57.6645C170.853 57.5365 170.882 57.3984 170.881 57.259V40.4592C170.881 36.0562 173.074 33.753 176.704 33.753C180.404 33.753 182.323 36.0562 182.323 40.4592V57.2578C182.323 57.3971 182.351 57.535 182.407 57.6628C182.463 57.7907 182.545 57.9059 182.648 58.0012C182.751 58.0964 182.872 58.1698 183.005 58.2167C183.138 58.2636 183.279 58.2831 183.419 58.2739H191.713C191.853 58.2831 191.994 58.2636 192.127 58.2167C192.26 58.1698 192.381 58.0964 192.484 58.0012C192.587 57.9059 192.669 57.7907 192.725 57.6628C192.781 57.535 192.81 57.3971 192.809 57.2578V38.0206C192.809 29.3504 187.738 24.2699 180.749 24.2699ZM209.405 59.0867C216.187 59.0867 222.15 55.5643 222.217 48.723C222.354 43.7103 218.998 40.7996 214.816 39.1722L209.745 37.2078C208.238 36.5981 207.075 35.7175 207.075 34.4982C207.075 33.4821 207.689 32.3309 209.745 32.3309C211.597 32.3309 213.446 33.2789 215.638 34.9724C216.257 35.3788 216.735 35.4465 217.216 34.9724L220.709 30.908C220.983 30.5016 221.191 29.9597 220.78 29.4855C219.348 27.8365 217.571 26.5156 215.57 25.6148C213.57 24.714 211.395 24.255 209.197 24.2695C202.756 24.2695 197.141 27.9952 197.141 34.4978C197.141 39.104 200.015 41.9491 204.4 43.6422L208.786 45.4034C211.049 46.284 211.801 47.0291 211.801 48.3162C211.801 49.8064 210.568 50.4839 208.719 50.4839C206.319 50.4839 204.06 49.4678 201.111 47.3678C200.563 47.0291 199.948 46.8259 199.4 47.7065L196.659 51.4999C196.181 52.1773 196.111 52.9898 196.456 53.464C199.263 56.7836 203.715 59.0867 209.405 59.0867ZM55.2158 37.085C56.0372 37.085 56.8401 37.3258 57.5231 37.7769C58.2061 38.228 58.7383 38.8692 59.0527 39.6193C59.367 40.3695 59.4493 41.195 59.289 41.9914C59.1288 42.7877 58.7332 43.5192 58.1524 44.0934C57.5716 44.6675 56.8316 45.0585 56.026 45.2169C55.2204 45.3754 54.3854 45.294 53.6265 44.9833C52.8676 44.6726 52.219 44.1464 51.7627 43.4713C51.3064 42.7961 51.0628 42.0024 51.0628 41.1904C51.0628 40.1016 51.5004 39.0574 52.2792 38.2875C53.058 37.5175 54.1144 37.085 55.2158 37.085ZM45.9268 55.0778C45.9268 67.3382 36.612 72.16 28.458 72.16C23.3875 72.16 18.5223 70.8052 15.0279 68.1634C14.717 67.9335 14.5079 67.5939 14.444 67.2153C14.3802 66.8367 14.4666 66.4483 14.6853 66.1312L16.8092 61.9995C17.2203 61.2544 17.837 60.9157 18.6593 61.3899C19.6805 61.9213 20.7391 62.3792 21.8268 62.7603C26.1111 63.707 34.9387 64.5338 36.3379 55.825V53.1934C34.214 55.903 30.9934 57.5287 26.4022 57.5287C17.0164 57.5287 10.7794 50.6875 10.7794 40.8657C10.7794 31.1794 17.0147 24.2699 26.4707 24.2699C31.1304 24.2699 34.3511 25.8957 36.4749 28.673L36.612 26.0989C36.6037 25.9633 36.6246 25.8276 36.6733 25.7006C36.722 25.5736 36.7974 25.4582 36.8946 25.3622C36.9918 25.2662 37.1084 25.1916 37.2369 25.1434C37.3654 25.0953 37.5027 25.0746 37.6399 25.0828H45.3146C45.4517 25.0747 45.589 25.0954 45.7174 25.1436C45.8459 25.1918 45.9625 25.2663 46.0596 25.3624C46.1567 25.4584 46.2321 25.5737 46.2808 25.7007C46.3295 25.8276 46.3504 25.9634 46.3421 26.0989L45.9268 55.0778ZM28.5256 33.5498C24.1405 33.5498 20.9883 36.3949 20.9883 40.8657C20.9883 45.4038 24.1405 48.2489 28.5256 48.2489C32.8427 48.2489 35.9263 45.4038 35.9263 40.8657C35.9271 36.3949 32.8435 33.5498 28.5265 33.5498H28.5256Z"/>
</mask>
<path fill-rule="evenodd" clip-rule="evenodd" d="M84.4219 24.2699C79.557 24.2699 76.1308 26.1666 73.938 29.3504L73.8009 26.0989C73.8014 25.9595 73.7728 25.8216 73.7169 25.6936C73.6611 25.5656 73.5792 25.4504 73.4764 25.3551C73.3735 25.2598 73.2519 25.1864 73.1191 25.1396C72.9863 25.0927 72.8452 25.0734 72.7046 25.0828H65.1C64.9628 25.0746 64.8255 25.0953 64.697 25.1434C64.5685 25.1916 64.4519 25.2662 64.3547 25.3622C64.2576 25.4582 64.1821 25.5736 64.1334 25.7006C64.0847 25.8276 64.0638 25.9633 64.0721 26.0989V70.1278C64.0638 70.2634 64.0847 70.3992 64.1334 70.5262C64.1821 70.6532 64.2576 70.7685 64.3547 70.8646C64.4519 70.9606 64.5685 71.0351 64.697 71.0833C64.8255 71.1315 64.9628 71.1521 65.1 71.1439H73.5281C73.6688 71.1533 73.8099 71.134 73.9427 71.0872C74.0754 71.0403 74.197 70.967 74.2999 70.8716C74.4027 70.7763 74.4846 70.6611 74.5405 70.5331C74.5963 70.4052 74.6249 70.2672 74.6245 70.1278V54.8204C76.8173 57.53 80.0379 59.088 84.4231 59.088C93.8089 59.088 100.252 51.5693 100.252 41.681C100.251 31.8568 93.8093 24.2699 84.4219 24.2699ZM82.1605 49.6714C77.5698 49.6714 74.4862 46.4876 74.4862 41.6108C74.4862 36.8691 77.5698 33.6874 82.1605 33.6874C86.6146 33.6874 89.9724 36.8711 89.9724 41.6806C89.9724 46.5554 86.6146 49.6714 82.1605 49.6714ZM105.408 58.2739H113.836C113.977 58.2833 114.118 58.264 114.251 58.2171C114.383 58.1703 114.505 58.0969 114.608 58.0016C114.711 57.9063 114.793 57.791 114.848 57.6631C114.904 57.5351 114.933 57.3971 114.932 57.2578V10.8584C114.933 10.719 114.904 10.5811 114.848 10.4531C114.793 10.3251 114.711 10.2099 114.608 10.1146C114.505 10.0193 114.383 9.94589 114.251 9.89905C114.118 9.8522 113.977 9.8329 113.836 9.84232H105.408C105.271 9.83411 105.133 9.85474 105.005 9.9029C104.876 9.95106 104.76 10.0256 104.663 10.1217C104.565 10.2177 104.49 10.3331 104.441 10.4601C104.393 10.5871 104.372 10.7228 104.38 10.8584V57.2578C104.372 57.3934 104.393 57.5291 104.441 57.6561C104.49 57.7831 104.565 57.8984 104.663 57.9945C104.76 58.0905 104.876 58.1651 105.005 58.2132C105.133 58.2614 105.271 58.2821 105.408 58.2739ZM154.145 25.0828H146.536C146.396 25.0736 146.255 25.0931 146.122 25.14C145.989 25.1869 145.868 25.2602 145.765 25.3555C145.662 25.4508 145.58 25.566 145.524 25.6938C145.468 25.8217 145.44 25.9596 145.44 26.0989L145.303 29.2847C143.11 26.1687 139.684 24.272 134.821 24.272C125.501 24.272 119.061 31.8588 119.061 41.679C119.061 51.5685 125.501 59.0859 134.821 59.0859C139.617 59.0859 143.044 57.1892 145.303 54.0732L145.44 57.257C145.44 57.3963 145.468 57.5342 145.524 57.662C145.58 57.7899 145.662 57.9051 145.765 58.0004C145.868 58.0956 145.989 58.169 146.122 58.2159C146.255 58.2628 146.396 58.2823 146.536 58.273H154.074C154.219 58.2837 154.364 58.2657 154.501 58.2201C154.638 58.1745 154.765 58.1023 154.874 58.0077C154.982 57.913 155.071 57.7979 155.134 57.6689C155.197 57.54 155.234 57.4 155.241 57.257V26.0969C155.241 25.9577 155.212 25.8201 155.156 25.6924C155.1 25.5648 155.018 25.4499 154.915 25.3548C154.813 25.2598 154.691 25.1866 154.559 25.1398C154.426 25.093 154.285 25.0736 154.145 25.0828ZM137.084 49.6714C132.628 49.6714 129.272 46.5554 129.272 41.6786C129.272 36.8691 132.628 33.6853 137.084 33.6853C141.673 33.6853 144.825 36.8691 144.825 41.6088C144.825 46.4864 141.673 49.6714 137.084 49.6714ZM180.749 24.2699C175.952 24.2699 172.8 26.6408 170.815 29.9601L170.541 26.1667C170.541 25.3538 170.13 25.0828 169.511 25.0828H161.425C161.288 25.0749 161.151 25.0957 161.023 25.144C160.894 25.1922 160.778 25.2669 160.681 25.3629C160.584 25.4589 160.509 25.5742 160.46 25.701C160.412 25.8279 160.391 25.9635 160.399 26.0989V57.259C160.391 57.3944 160.412 57.53 160.46 57.6569C160.509 57.7838 160.584 57.899 160.681 57.995C160.778 58.0911 160.894 58.1657 161.023 58.214C161.151 58.2622 161.288 58.2831 161.425 58.2751H169.785C169.926 58.2847 170.067 58.2655 170.2 58.2187C170.333 58.172 170.454 58.0986 170.557 58.0032C170.66 57.9079 170.742 57.7926 170.798 57.6645C170.853 57.5365 170.882 57.3984 170.881 57.259V40.4592C170.881 36.0562 173.074 33.753 176.704 33.753C180.404 33.753 182.323 36.0562 182.323 40.4592V57.2578C182.323 57.3971 182.351 57.535 182.407 57.6628C182.463 57.7907 182.545 57.9059 182.648 58.0012C182.751 58.0964 182.872 58.1698 183.005 58.2167C183.138 58.2636 183.279 58.2831 183.419 58.2739H191.713C191.853 58.2831 191.994 58.2636 192.127 58.2167C192.26 58.1698 192.381 58.0964 192.484 58.0012C192.587 57.9059 192.669 57.7907 192.725 57.6628C192.781 57.535 192.81 57.3971 192.809 57.2578V38.0206C192.809 29.3504 187.738 24.2699 180.749 24.2699ZM209.405 59.0867C216.187 59.0867 222.15 55.5643 222.217 48.723C222.354 43.7103 218.998 40.7996 214.816 39.1722L209.745 37.2078C208.238 36.5981 207.075 35.7175 207.075 34.4982C207.075 33.4821 207.689 32.3309 209.745 32.3309C211.597 32.3309 213.446 33.2789 215.638 34.9724C216.257 35.3788 216.735 35.4465 217.216 34.9724L220.709 30.908C220.983 30.5016 221.191 29.9597 220.78 29.4855C219.348 27.8365 217.571 26.5156 215.57 25.6148C213.57 24.714 211.395 24.255 209.197 24.2695C202.756 24.2695 197.141 27.9952 197.141 34.4978C197.141 39.104 200.015 41.9491 204.4 43.6422L208.786 45.4034C211.049 46.284 211.801 47.0291 211.801 48.3162C211.801 49.8064 210.568 50.4839 208.719 50.4839C206.319 50.4839 204.06 49.4678 201.111 47.3678C200.563 47.0291 199.948 46.8259 199.4 47.7065L196.659 51.4999C196.181 52.1773 196.111 52.9898 196.456 53.464C199.263 56.7836 203.715 59.0867 209.405 59.0867ZM55.2158 37.085C56.0372 37.085 56.8401 37.3258 57.5231 37.7769C58.2061 38.228 58.7383 38.8692 59.0527 39.6193C59.367 40.3695 59.4493 41.195 59.289 41.9914C59.1288 42.7877 58.7332 43.5192 58.1524 44.0934C57.5716 44.6675 56.8316 45.0585 56.026 45.2169C55.2204 45.3754 54.3854 45.294 53.6265 44.9833C52.8676 44.6726 52.219 44.1464 51.7627 43.4713C51.3064 42.7961 51.0628 42.0024 51.0628 41.1904C51.0628 40.1016 51.5004 39.0574 52.2792 38.2875C53.058 37.5175 54.1144 37.085 55.2158 37.085ZM45.9268 55.0778C45.9268 67.3382 36.612 72.16 28.458 72.16C23.3875 72.16 18.5223 70.8052 15.0279 68.1634C14.717 67.9335 14.5079 67.5939 14.444 67.2153C14.3802 66.8367 14.4666 66.4483 14.6853 66.1312L16.8092 61.9995C17.2203 61.2544 17.837 60.9157 18.6593 61.3899C19.6805 61.9213 20.7391 62.3792 21.8268 62.7603C26.1111 63.707 34.9387 64.5338 36.3379 55.825V53.1934C34.214 55.903 30.9934 57.5287 26.4022 57.5287C17.0164 57.5287 10.7794 50.6875 10.7794 40.8657C10.7794 31.1794 17.0147 24.2699 26.4707 24.2699C31.1304 24.2699 34.3511 25.8957 36.4749 28.673L36.612 26.0989C36.6037 25.9633 36.6246 25.8276 36.6733 25.7006C36.722 25.5736 36.7974 25.4582 36.8946 25.3622C36.9918 25.2662 37.1084 25.1916 37.2369 25.1434C37.3654 25.0953 37.5027 25.0746 37.6399 25.0828H45.3146C45.4517 25.0747 45.589 25.0954 45.7174 25.1436C45.8459 25.1918 45.9625 25.2663 46.0596 25.3624C46.1567 25.4584 46.2321 25.5737 46.2808 25.7007C46.3295 25.8276 46.3504 25.9634 46.3421 26.0989L45.9268 55.0778ZM28.5256 33.5498C24.1405 33.5498 20.9883 36.3949 20.9883 40.8657C20.9883 45.4038 24.1405 48.2489 28.5256 48.2489C32.8427 48.2489 35.9263 45.4038 35.9263 40.8657C35.9271 36.3949 32.8435 33.5498 28.5265 33.5498H28.5256Z" stroke="#DEC8A7" stroke-width="2" mask="url(#path-1-inside-1_378_2592)"/>
</svg>
