<svg width="15" height="16" viewBox="0 0 15 16" fill="none" xmlns="http://www.w3.org/2000/svg">
<g clip-path="url(#clip0_396_2223)">
<path d="M9.6875 5.26709C9.6875 4.83444 9.55921 4.41151 9.31884 4.05178C9.07848 3.69205 8.73683 3.41167 8.33712 3.2461C7.93741 3.08054 7.49757 3.03722 7.07324 3.12162C6.64891 3.20603 6.25913 3.41437 5.95321 3.72029C5.64728 4.02622 5.43894 4.416 5.35453 4.84033C5.27013 5.26466 5.31345 5.7045 5.47901 6.10421C5.64458 6.50392 5.92496 6.84557 6.28469 7.08593C6.64442 7.3263 7.06735 7.45459 7.5 7.45459C8.08016 7.45459 8.63656 7.22412 9.0468 6.81389C9.45703 6.40365 9.6875 5.84725 9.6875 5.26709ZM5.9375 5.26709C5.9375 4.95806 6.02914 4.65596 6.20083 4.39901C6.37252 4.14206 6.61655 3.94179 6.90206 3.82353C7.18757 3.70527 7.50173 3.67432 7.80483 3.73461C8.10793 3.7949 8.38634 3.94372 8.60486 4.16224C8.82338 4.38076 8.97219 4.65917 9.03248 4.96226C9.09277 5.26536 9.06183 5.57952 8.94356 5.86503C8.8253 6.15054 8.62503 6.39457 8.36808 6.56626C8.11113 6.73795 7.80903 6.82959 7.5 6.82959C7.0856 6.82959 6.68817 6.66497 6.39515 6.37195C6.10212 6.07892 5.9375 5.68149 5.9375 5.26709Z" fill="#565656"/>
<path d="M7.50002 15.2671C7.55209 15.267 7.60332 15.254 7.64905 15.2291C7.69478 15.2042 7.73357 15.1683 7.7619 15.1246L11.9213 8.72585C12.6646 7.5925 12.9636 6.22474 12.7609 4.88462C12.5583 3.5445 11.8683 2.32627 10.8231 1.46335C9.89055 0.685324 8.71454 0.259186 7.50002 0.259186C6.28551 0.259186 5.10949 0.685324 4.1769 1.46335C3.13175 2.32627 2.44175 3.5445 2.23912 4.88462C2.03649 6.22474 2.33547 7.5925 3.07877 8.72585L7.23815 15.1246C7.26647 15.1683 7.30526 15.2042 7.351 15.2291C7.39673 15.254 7.44796 15.267 7.50002 15.2671ZM4.57315 1.9471C5.39399 1.26066 6.42999 0.884569 7.50002 0.884569C8.57006 0.884569 9.60606 1.26066 10.4269 1.9471C11.3536 2.71191 11.9651 3.79199 12.1443 4.98008C12.3234 6.16817 12.0575 7.38056 11.3975 8.3846L7.50002 14.3815L3.60252 8.38522C2.94239 7.38113 2.67636 6.1686 2.8555 4.98037C3.03464 3.79214 3.64633 2.71194 4.57315 1.9471Z" fill="#565656"/>
</g>
<defs>
<clipPath id="clip0_396_2223">
<rect width="15" height="15" fill="white" transform="translate(0 0.26709)"/>
</clipPath>
</defs>
</svg>
