<svg width="354" height="53" viewBox="0 0 354 53" fill="none" xmlns="http://www.w3.org/2000/svg">
<path d="M202.252 3.87053L202.252 3.87184C202.273 5.50352 202.284 6.27747 202.329 6.69742C202.351 6.90147 202.376 6.97149 202.389 6.9987C202.401 7.02253 202.412 7.03972 202.503 7.13846C202.574 7.21405 202.673 7.29991 202.775 7.37448C202.864 7.44023 202.934 7.48051 202.971 7.49863C202.979 7.49994 202.991 7.50173 203.006 7.50384C203.057 7.51065 203.128 7.51813 203.222 7.52584C203.409 7.54117 203.665 7.55587 203.972 7.56861C204.586 7.59406 205.394 7.61113 206.247 7.61113H208.853V4.90896C208.853 4.7726 208.853 4.64086 208.853 4.51354C208.854 3.53552 208.854 2.81843 208.805 2.27372C208.748 1.65 208.633 1.37966 208.492 1.23357C208.353 1.09034 208.097 0.972538 207.493 0.91107C206.961 0.856977 206.26 0.853302 205.298 0.848265C205.178 0.847633 205.053 0.84698 204.924 0.846203L204.924 0.846202C203.846 0.839336 203.077 0.846318 202.575 0.868076C202.444 0.873735 202.335 0.88025 202.247 0.887323C202.243 1.05767 202.24 1.28051 202.239 1.54467C202.235 2.15584 202.239 2.98035 202.252 3.87053Z" stroke="#DEC8A7"/>
<path d="M104.169 51.796C104.168 51.7311 104.167 51.6562 104.165 51.5713C104.16 51.2245 104.155 50.7185 104.151 50.0699C104.141 48.773 104.132 46.9098 104.124 44.6184C104.109 40.0357 104.098 33.7419 104.098 26.8432V2.27559H107.515C109.672 2.27559 110.759 2.28734 111.401 2.38347C111.708 2.42946 111.877 2.49042 111.999 2.5589C112.12 2.62719 112.225 2.72016 112.39 2.88987C112.394 2.89611 112.408 2.91616 112.433 2.95798C112.471 3.02035 112.523 3.10997 112.591 3.23098C112.725 3.47234 112.913 3.82385 113.161 4.30108C113.658 5.25473 114.392 6.69803 115.417 8.73936C117.468 12.8213 120.68 19.2863 125.483 28.9891L128.122 34.3214L128.569 35.2254L129.018 34.322L133.031 26.2411C135.243 21.7882 138.844 14.5182 141.043 10.0649L104.169 51.796ZM104.169 51.796C104.227 51.8021 104.3 51.8082 104.391 51.8138C104.881 51.8436 105.743 51.8507 107.268 51.8507H110.257L104.169 51.796ZM144.905 2.27559L141.043 10.0643L153.486 28.2588C153.486 4.39327 153.509 3.22392 152.936 2.65376C152.882 2.60009 152.823 2.55173 152.758 2.49024L152.416 2.85501C152.416 2.85486 152.416 2.85472 152.415 2.85457C152.277 2.72484 152.158 2.63835 152.013 2.57102C151.864 2.50167 151.664 2.44181 151.353 2.39557C150.715 2.30073 149.71 2.27559 147.92 2.27559H144.905ZM149.899 51.8507H152.986L110.056 12.7635C110.056 12.7614 110.056 12.7593 110.056 12.7572C110.046 12.6767 110.036 12.5994 110.031 12.5325C110.026 12.4734 110.019 12.3864 110.028 12.3047C110.031 12.2723 110.042 12.175 110.1 12.0743C110.132 12.0174 110.193 11.9374 110.296 11.8793C110.407 11.8172 110.525 11.8039 110.627 11.8196C110.792 11.8452 110.896 11.9436 110.921 11.9679L110.921 11.9683C110.963 12.0075 110.995 12.0486 111.016 12.0784C111.098 12.1902 111.201 12.3772 111.326 12.614C111.456 12.8625 111.628 13.2022 111.851 13.6446L111.852 13.646C112.362 14.6659 113.572 17.1422 114.548 19.1483C115.435 20.9723 116.788 23.7395 117.708 25.6215C117.8 25.8092 117.887 25.9881 117.969 26.1564C118.465 27.1707 119.123 28.5201 119.758 29.8241C120.283 30.9035 120.794 31.9518 121.185 32.7533C121.471 33.3389 121.777 33.9647 122.072 34.5705C122.672 35.7996 123.232 36.9462 123.507 37.5072L123.509 37.5111C123.945 38.4161 124.282 38.9611 124.611 39.3069C124.919 39.6299 125.234 39.7925 125.676 39.8909C125.84 39.9226 126.317 39.9595 127.021 39.9872C127.713 40.0144 128.582 40.0315 129.491 40.0315H132.39L132.598 39.5898L132.598 39.5897L132.603 39.5795C132.683 39.4192 132.931 38.9118 133.281 38.1934C133.77 37.1934 134.458 35.7844 135.171 34.3335C136.394 31.8335 138.029 28.4939 138.813 26.9113C141.974 20.4122 144.31 15.6284 145.205 13.826L145.207 13.8221L146.169 11.9255L147.113 12.1944L147.031 13.1475C147.004 13.7284 146.936 22.7304 146.895 33.2083L146.828 51.8507H149.899Z" stroke="#DEC8A7"/>
<path d="M221.755 14.843L221.754 14.3493L221.74 8.77076C221.74 8.77054 221.74 8.77032 221.74 8.7701C221.74 7.23983 221.751 5.83776 221.768 4.81247C221.776 4.29922 221.787 3.88316 221.798 3.59351C221.798 3.58255 221.799 3.5718 221.799 3.56127C221.964 3.55558 222.174 3.55061 222.42 3.54664C223.054 3.53641 223.919 3.53297 224.864 3.53981C224.864 3.53981 224.865 3.53982 224.865 3.53982L227.821 3.57515L227.846 8.58085L227.846 8.5829C227.873 11.6067 227.887 14.1607 227.887 14.2406C227.887 14.4327 227.987 14.5668 228.067 14.6382C228.139 14.703 228.216 14.7368 228.26 14.7539C228.351 14.7893 228.454 14.8084 228.543 14.8213C228.733 14.8486 229.01 14.8673 229.387 14.8811C230.149 14.909 231.391 14.9192 233.321 14.9192H237.567L236.924 17.0493L236.924 17.0508L236.179 19.489L232.465 19.5265L232.464 19.5265L228.383 19.554L227.887 19.5573L227.887 20.0533L227.873 30.7455V30.7456C227.861 41.9864 227.846 43.0201 228.032 44.0162C228.053 44.1301 228.077 44.2434 228.104 44.3715C228.456 46.063 229.115 47.1827 230.402 47.439C230.765 47.5174 231.26 47.5327 231.809 47.5102C232.37 47.4873 233.024 47.423 233.718 47.3261C235.106 47.1324 236.68 46.8044 238.04 46.3977L238.042 46.3974C238.19 46.3527 238.329 46.3132 238.456 46.2793C238.278 46.8744 238.016 47.7544 237.734 48.7034C237.488 49.5317 237.252 50.2905 237.071 50.8478C236.981 51.1269 236.905 51.3527 236.849 51.5105C236.838 51.5421 236.828 51.5702 236.819 51.5949C236.801 51.6019 236.779 51.6098 236.754 51.6185C236.633 51.6605 236.466 51.7078 236.257 51.7586C235.841 51.8596 235.289 51.9663 234.669 52.0665C233.427 52.267 231.942 52.436 230.772 52.4831L230.771 52.4831C227.995 52.5977 226.067 52.1301 224.721 51.0425C223.375 49.9553 222.515 48.1724 222.05 45.4377C221.866 44.3207 221.823 42.5913 221.782 32.2839C221.782 32.2837 221.782 32.2836 221.782 32.2834L221.282 32.2854L221.755 14.843ZM221.755 14.843L221.262 14.8504M221.755 14.843L221.262 14.8504M221.262 14.8504L218.513 14.8917L218.51 14.8917M221.262 14.8504L218.51 14.8917M218.51 14.8917L216.262 14.9142M218.51 14.8917L216.262 14.9142M216.262 14.9142L216.284 17.2042L216.307 19.4927L218.54 19.5265C218.54 19.5265 218.54 19.5265 218.54 19.5265L216.262 14.9142Z" stroke="#DEC8A7"/>
<path d="M6.60109 12.6063L6.60135 12.6089L6.69755 13.5434L6.7543 14.0946H6.20018H3.28662H0.886798V15.2438V16.393H7.67071H14.9546H15.4546V16.893V18.1986V19.5042V20.0042H14.9546H8.083H1.71139V21.1534V22.3026H8.083H14.9684H15.4859L15.4681 22.8198L15.4268 24.0152L15.4268 24.0154L15.3856 25.2247L15.3692 25.7047L14.8889 25.7076L8.05854 25.7488L8.05753 25.7488L1.71139 25.7743V26.8568V27.9393L8.05753 27.9648L8.05854 27.9648L14.8889 28.006L15.3722 28.0089L15.3857 28.492L15.4269 29.9625L15.4269 29.9626L15.4682 31.4469L15.4824 31.9608H14.9684H7.67071H0.886798V33.1787V34.3986L7.16424 34.4241L7.16526 34.4241L13.9269 34.4653L15.0796 34.4723L14.2869 35.3092L13.5463 36.0908C13.5461 36.0911 13.5458 36.0914 13.5456 36.0916C10.9376 38.8701 6.43403 40.9385 2.30849 41.2497L1.44931 41.3188L0.959739 42.8672L0.959742 42.8672L0.959169 42.869C0.763481 43.4799 0.641299 43.8712 0.571966 44.1245C0.667618 44.1177 0.777826 44.1081 0.901026 44.0956C1.2832 44.057 1.77167 43.9933 2.30036 43.9141C3.35974 43.7555 4.55562 43.5383 5.35264 43.3441C10.0071 42.1939 13.4373 40.2581 15.868 37.4422L15.868 37.4422L15.8706 37.4392L16.5578 36.6558L16.9141 36.2496L17.2915 36.6364L18.3904 37.7627C18.3904 37.7627 18.3904 37.7627 18.3904 37.7627C20.2737 39.686 22.5084 41.1483 25.4225 42.3356C27.1266 43.0253 30.1143 43.8326 31.3695 43.9503L31.9281 44.0027L32.7008 42.6506C32.701 42.6501 32.7013 42.6496 32.7016 42.6491C32.9535 42.1998 33.1807 41.7792 33.3442 41.4641C33.3498 41.4532 33.3554 41.4424 33.3609 41.4317C33.1537 41.392 32.899 41.3514 32.622 41.3161C27.8541 40.7426 23.2939 38.7843 20.4236 36.0425C20.4233 36.0421 20.4229 36.0418 20.4226 36.0415L19.6686 35.3286L18.7688 34.4779L20.0071 34.4653L26.7962 34.3966L33.0886 34.3328L33.1181 33.1253L33.1181 33.1252L33.1467 31.9608H26.2928H18.9402H18.4402V31.4608V29.949V28.4373V27.9373H18.9402H25.8118H32.1834V26.8568V25.7763H25.8118H18.9402H18.4402V25.2763V24.0394V22.8026V22.3026H18.9402H25.8118H32.1834V21.1534V20.0042H25.8118H18.9402H18.4402V19.5042V18.1986V16.893V16.393H18.9402H26.2928H33.1454V15.2438V14.0946H30.6769H27.7083H27.088L27.2197 13.4884L27.2885 13.1723L27.2901 13.1647L27.292 13.1572C27.3224 13.0356 27.4022 12.4558 27.4578 11.858C27.4579 11.858 27.4579 11.8579 27.4579 11.8579L27.5044 11.3459H25.9767C25.7501 11.3459 25.5517 11.3446 25.3763 11.3435C25.0804 11.3416 24.8499 11.34 24.6594 11.3459C24.5114 11.3505 24.4106 11.3592 24.3398 11.3714C24.3158 11.3755 24.2981 11.3795 24.2854 11.3829C24.2808 11.3987 24.2749 11.4221 24.2685 11.4557C24.2475 11.5654 24.2354 11.6941 24.218 11.8792C24.2078 11.988 24.1957 12.1164 24.1789 12.272C24.1367 12.6927 24.053 13.1902 24.0037 13.3916L23.9365 13.7008L23.8509 14.0946H23.4479H16.9474H10.4606H10.0269L9.96561 13.6653L9.7733 12.3192L9.7732 12.3185L9.64155 11.4063L7.94958 11.3733H7.94951L6.45347 11.344C6.49698 11.6543 6.55498 12.1799 6.60109 12.6063ZM0.499871 44.4617C0.500029 44.4615 0.500239 44.4583 0.500027 44.4527C0.499606 44.459 0.499713 44.4618 0.499871 44.4617ZM24.2957 11.355C24.2956 11.3549 24.2949 11.356 24.2938 11.3587C24.2951 11.3565 24.2957 11.3551 24.2957 11.355Z" stroke="#DEC8A7"/>
<path d="M39.0754 43.2137L39.0754 43.2137L39.077 43.2158C39.1537 43.3192 39.1981 43.3846 39.2273 43.4278C39.2834 43.5105 39.284 43.5113 39.3504 43.5408C39.5094 43.6114 39.8753 43.6853 40.8571 43.7324C42.5432 43.8132 45.7921 43.8126 52.2808 43.8112C53.1754 43.811 54.1315 43.8108 55.1536 43.8108H70.046V28.6435C70.046 27.6031 70.0462 26.6298 70.0464 25.7192C70.0477 19.1148 70.0484 15.8094 69.9675 14.0959C69.9204 13.0981 69.8465 12.726 69.7753 12.5646C69.7627 12.5358 69.7555 12.5196 69.7449 12.5059C69.718 12.4713 69.6689 12.4538 69.4509 12.2921L69.4489 12.2906C69.4093 12.2609 69.4059 12.2597 69.4026 12.2586C69.4022 12.2584 69.4019 12.2583 69.4014 12.2581C69.3882 12.2527 69.341 12.2362 69.2116 12.2184C68.9461 12.1817 68.4508 12.1535 67.4503 12.1328C65.4634 12.0917 61.5875 12.0813 53.8329 12.0607L38.819 12.0341L38.8456 27.3229C38.8662 35.2149 38.8765 39.1596 38.9177 41.1809C38.9383 42.1986 38.9666 42.7028 39.0034 42.9731C39.0213 43.1051 39.038 43.1533 39.0435 43.167C39.0437 43.1675 39.0438 43.1678 39.044 43.1682C39.045 43.1713 39.0461 43.1746 39.0754 43.2137ZM66.9917 40.9437V41.4437H66.4917H54.3977H42.3037H41.8037V40.9437V27.9564V14.969V14.469H42.3037H54.3977H66.4917H66.9917V14.969V27.9564V40.9437Z" stroke="#DEC8A7"/>
<path d="M57.7837 19.5042V20.0042H57.2837H50.7557H44.7277V21.0847V22.1652H47.0588H49.9036H50.4594L50.4008 22.7179L50.3049 23.6225C50.3048 23.6229 50.3048 23.6234 50.3047 23.6238C49.8164 28.4487 47.884 34.3329 45.508 38.2743C45.508 38.2744 45.508 38.2744 45.508 38.2745L45.2775 38.657H46.564H48.4538L48.5827 38.4443L48.5827 38.4443L48.585 38.4407C50.0551 36.0617 51.8527 31.067 52.6566 27.1029C52.7717 26.5137 52.9422 25.5115 53.0861 24.6037C53.2328 23.678 53.3417 22.9109 53.3481 22.7463C53.3526 22.5932 53.4237 22.4831 53.4774 22.423C53.5302 22.364 53.5849 22.3304 53.6138 22.3143C53.6721 22.2819 53.7265 22.266 53.7511 22.2593C53.8081 22.2436 53.8697 22.234 53.92 22.2274C54.0272 22.2133 54.1696 22.2022 54.3309 22.1934C54.657 22.1756 55.0995 22.1652 55.5796 22.1652H57.3112H57.8158L57.8112 22.6697L57.7562 28.7442L57.7562 28.7442C57.7015 34.7375 57.6908 34.8949 57.3271 36.262L57.3268 36.2635C57.129 36.998 56.7919 37.9683 56.5896 38.4452L56.5896 38.4453L56.5874 38.4504C56.5586 38.5161 56.5306 38.5804 56.5036 38.6423C56.8757 38.6512 57.3665 38.657 57.9022 38.657H59.651L59.8157 38.1302C59.8157 38.1299 59.8158 38.1297 59.8159 38.1294C60.5749 35.6658 60.7693 33.6573 60.7693 27.3653V22.6652V22.1652H61.2693H63.0559H64.3425V21.0847V20.0042H63.0559H61.283H60.7974L60.7832 19.5188L60.742 18.1034L60.742 18.1032L60.7147 17.1767L59.2385 17.1455H59.2384L57.7837 17.115V18.0612V19.5042Z" stroke="#DEC8A7"/>
<path d="M192.62 45.026C192.626 44.9972 192.632 44.9688 192.637 44.9411C190.688 45.9251 187.871 46.7832 185.512 47.1281C183.343 47.448 182.561 47.5046 180.202 47.4907C178.163 47.4907 176.552 47.3034 175.178 46.8353C173.794 46.3635 172.679 45.6161 171.615 44.5387C170.34 43.2484 169.685 42.0885 169.048 40.0501C168.866 39.4821 168.673 38.5984 168.541 37.8507C168.475 37.4745 168.422 37.1211 168.393 36.8491C168.379 36.7149 168.37 36.5887 168.37 36.4849C168.37 36.4346 168.372 36.3738 168.381 36.3135C168.386 36.2834 168.394 36.2404 168.41 36.1931C168.424 36.1525 168.459 36.0661 168.539 35.9862L168.574 35.9512L168.615 35.9237C168.667 35.8891 168.714 35.8725 168.73 35.8668C168.752 35.8592 168.77 35.8547 168.781 35.8522C168.802 35.8473 168.819 35.8447 168.827 35.8435C168.845 35.8409 168.861 35.8395 168.87 35.8388C168.89 35.8371 168.913 35.8359 168.935 35.8349C168.98 35.8329 169.043 35.8309 169.12 35.829C169.276 35.8251 169.5 35.8211 169.786 35.817C170.357 35.8089 171.177 35.8003 172.185 35.7917C174.201 35.7745 176.971 35.7573 180.008 35.7435L180.009 35.7435C185 35.7229 187.777 35.7057 189.385 35.6664C191.019 35.6264 191.382 35.5621 191.611 35.4827L191.611 35.4826L191.617 35.4806C192.227 35.2774 192.67 35.0215 193 34.7036C193.326 34.3889 193.564 33.9897 193.729 33.4601C193.764 33.3394 193.804 33.0312 193.83 32.4769C193.855 31.9381 193.866 31.2128 193.859 30.2965L193.859 30.295C193.845 27.3024 193.631 25.9398 192.853 23.5785C191.139 18.4485 187.086 15.0387 181.907 14.3098C180.463 14.1093 178.253 14.0828 176.909 14.2423C173.49 14.665 170.638 15.8712 168.367 17.8126C166.094 19.7553 164.377 22.4569 163.266 25.9106C162.365 28.724 162.054 30.9524 162.054 34.4839C162.067 40.9434 163.598 45.2011 166.859 48.2907L166.859 48.2908C168.644 49.9835 170.776 51.1137 173.465 51.7826C175.736 52.3337 177 52.4689 180.283 52.4553C182.946 52.4417 183.603 52.3876 185.283 52.092C187.555 51.6838 189.247 51.2116 190.657 50.6129C190.658 50.6127 190.658 50.6125 190.659 50.6122L191.441 50.2741L192.125 47.3071C192.126 47.3066 192.126 47.3062 192.126 47.3057C192.324 46.4219 192.499 45.6147 192.62 45.026ZM181.715 19.3633L181.718 19.3643C183.16 19.743 184.148 20.2948 185.177 21.3384L185.177 21.3389C186.897 23.0884 187.777 25.5306 187.89 28.6505C187.89 28.6513 187.89 28.6521 187.891 28.6529L187.973 30.4763L187.996 30.9989H187.473H178.183H168.892H168.322L168.397 30.4336L168.465 29.9114L168.466 29.9078C168.819 27.3676 169.986 24.3774 171.291 22.7385L171.291 22.7385C172.719 20.9472 175.002 19.6355 177.316 19.2449L177.317 19.2447C177.823 19.1605 178.724 19.1419 179.565 19.1642C180.401 19.1864 181.275 19.2514 181.715 19.3633Z" stroke="#DEC8A7"/>
<path d="M286.503 21.3087C286.793 21.2117 287.164 21.0844 287.563 20.9431L287.567 20.942C291.551 19.5629 293.612 19.2243 297.857 19.2103H297.859C300.493 19.2103 301.213 19.248 302.033 19.476L302.036 19.4766C304.403 20.147 305.935 21.219 306.801 22.9806L306.802 22.9832C307.016 23.4245 307.156 23.7189 307.232 24.1854C307.303 24.6158 307.32 25.1974 307.347 26.2252L307.347 26.2288L307.388 28.3727L307.399 28.9257L306.848 28.8807L305.505 28.771C305.504 28.771 305.503 28.7709 305.503 28.7709C297.891 28.2108 293.106 28.9847 289.249 31.2591C285.407 33.5357 283.485 37.2827 283.776 41.9432L283.776 41.9439C283.976 45.2103 284.958 47.3675 287.082 49.3604C289.995 52.0776 294.778 53.0583 302.06 52.1839L302.061 52.1838C304.011 51.9535 306.178 51.5088 308.116 50.9751C310.062 50.4392 311.738 49.8237 312.729 49.2637C312.729 49.2634 312.73 49.2632 312.73 49.2629L313.026 49.0927V36.6145C313.026 30.6267 313.023 27.4203 312.988 25.5811C312.954 23.7403 312.889 23.3093 312.779 22.8505L312.779 22.8505L312.777 22.8444C312.329 20.8641 311.585 19.4481 310.304 18.0882C307.461 15.0753 302.344 13.6722 295.564 14.2303C292.843 14.4617 289.252 15.1159 287.152 15.7758C287.152 15.7758 287.152 15.7758 287.152 15.7758L286.535 15.9696L286.498 18.7935C286.498 18.7939 286.498 18.7943 286.498 18.7947C286.492 19.672 286.492 20.4651 286.498 21.0375C286.5 21.135 286.501 21.2256 286.503 21.3087ZM304.056 33.2149V33.2148L304.063 33.2151C304.596 33.2358 305.133 33.2635 305.57 33.2931C305.979 33.3208 306.346 33.3527 306.52 33.3894L306.953 33.4706L307.361 33.5471V33.9621V39.8579V45.74V46.1079L307.009 46.2174L305.953 46.5466C305.953 46.5467 305.953 46.5468 305.952 46.5469C304.57 46.9842 303.67 47.1689 301.911 47.3504C300.999 47.4493 299.653 47.4975 298.421 47.4975C297.207 47.4975 296.035 47.4512 295.496 47.344C293.668 46.9952 292.271 46.3333 291.337 45.2401C290.401 44.1439 289.993 42.6862 289.993 40.8758C289.985 38.8614 290.544 37.1999 291.728 35.933C292.904 34.675 294.645 33.861 296.898 33.43C297.42 33.3271 298.337 33.2364 299.224 33.178C300.11 33.1196 301.017 33.0901 301.525 33.1191C301.599 33.122 301.705 33.1267 301.837 33.1325C302.343 33.1546 303.224 33.1932 304.056 33.2149Z" stroke="#DEC8A7"/>
<path d="M331.626 14.7863L331.627 14.7862C332.926 14.5291 333.487 14.4485 335.568 14.2295C336.835 14.0961 340.042 14.1089 341.444 14.2435C345.33 14.6348 348.05 15.7598 350.003 17.7264C351.203 18.9398 351.756 19.8008 352.378 21.4401C353.437 24.2602 353.5 25.1087 353.5 39.8581V51.8507H350.509H347.503L347.45 38.9768L331.626 14.7863ZM331.626 14.7863C329.015 15.3005 326.137 16.2364 323.528 17.3912M331.626 14.7863L323.528 17.3912M323.528 17.3912C323.528 17.3913 323.528 17.3914 323.528 17.3916L323.029 17.6152L323.069 34.7856L323.069 34.786L323.096 51.7878L326.079 51.8232L326.08 51.8232L329.037 51.8467V36.6971V21.0299V20.6636L329.386 20.5532L330.472 20.2096L330.473 20.2093C332.981 19.4201 334.533 19.2244 338.056 19.2105H338.058C340.761 19.2105 341.479 19.2483 342.312 19.4755L342.312 19.4755L342.318 19.477C343.655 19.8579 344.708 20.4206 345.512 21.266C346.314 22.1105 346.831 23.1984 347.161 24.5665C347.28 25.0444 347.337 25.728 347.374 27.7047C347.412 29.704 347.429 33.0756 347.45 38.9765L323.528 17.3912Z" stroke="#DEC8A7"/>
<path d="M202.5 33.385V51.8507H205.504H208.509V33.385V14.9194H205.504H202.5V33.385Z" stroke="#DEC8A7"/>
<path d="M275.164 31.9282V14.9193H272.159H269.155V30.0866V45.7401V46.1089L268.802 46.2178L267.469 46.6301L267.467 46.6307C265.657 47.1822 264.445 47.3653 261.97 47.4765L261.97 47.4766C257.25 47.683 254.618 47.153 252.913 45.3415C251.788 44.1561 251.3 42.779 251.061 40.445L251.06 40.4438C251.047 40.3128 251.037 39.8279 251.028 39.1133C251.018 38.3809 251.009 37.3716 251.001 36.1591C250.986 33.7339 250.976 30.4929 250.976 27.0219V14.9193H247.957H244.955L245.008 27.9129C245.008 27.9129 245.008 27.913 245.008 27.9131C245.035 33.824 245.056 37.2316 245.094 39.2819C245.131 41.3435 245.187 41.9957 245.273 42.4251C245.623 44.1337 246.008 45.2706 246.67 46.5555L246.67 46.5561C247.15 47.4897 247.487 47.9434 248.462 48.9186C248.996 49.4527 249.33 49.7619 249.676 50.0139C250.019 50.2642 250.39 50.4687 251.009 50.775C253.398 51.9427 255.492 52.3877 259.251 52.4692C261.986 52.5236 263.78 52.4014 266.092 51.9823L266.094 51.9819C268.942 51.48 271.474 50.7217 274.033 49.5977L274.036 49.5966L275.164 49.1086V31.9282Z" stroke="#DEC8A7"/>
</svg>
