<svg width="420" height="114" viewBox="0 0 420 114" fill="none" xmlns="http://www.w3.org/2000/svg">
<path d="M419 58.4739C410.665 103.661 394.899 137.131 376.266 90.597M376.266 90.597C373.007 82.4584 369.661 71.8724 366.251 58.4739C347.286 -16.0492 331.862 -7.44173 321.188 24.5978M376.266 90.597C379.425 81.5499 382.148 70.4215 384.352 58.4739M376.266 90.597C367.479 115.767 355.324 124.827 341.618 90.597M321.188 24.5978C317.957 34.295 315.161 46.1388 312.834 58.4739M321.188 24.5978C324.526 33.1635 328.001 44.3192 331.603 58.4739C335.012 71.8724 338.359 82.4584 341.618 90.597M321.188 24.5978C306.95 -11.9341 295.186 -1.35623 286.539 24.5977M341.618 90.597C344.776 81.5499 347.5 70.4215 349.704 58.4739M341.618 90.597C332.831 115.767 320.676 124.827 306.97 90.597M286.539 24.5977C283.309 34.295 280.513 46.1388 278.186 58.4739M286.539 24.5977C289.878 33.1635 293.352 44.3192 296.954 58.4739C300.364 71.8724 303.711 82.4584 306.97 90.597M286.539 24.5977C272.302 -11.9341 260.538 -1.35622 251.891 24.5977M306.97 90.597C310.128 81.5499 312.851 70.4215 315.055 58.4739M306.97 90.597C298.182 115.767 286.027 124.827 272.321 90.597M251.891 24.5977C248.66 34.295 245.865 46.1388 243.538 58.4739M251.891 24.5977C255.23 33.1635 258.704 44.3192 262.306 58.4739C265.716 71.8724 269.062 82.4584 272.321 90.597M251.891 24.5977C237.653 -11.9341 225.89 -1.35622 217.243 24.5977M272.321 90.597C275.48 81.5499 278.203 70.4215 280.407 58.4739M272.321 90.597C263.534 115.767 251.379 124.827 237.673 90.597M217.243 24.5977C214.012 34.295 211.217 46.1388 208.889 58.4739M217.243 24.5977C220.581 33.1635 224.056 44.3192 227.658 58.4739C231.068 71.8724 234.414 82.4584 237.673 90.597M217.243 24.5977C203.005 -11.9341 191.242 -1.35622 182.595 24.5977M237.673 90.597C240.832 81.5499 243.555 70.4215 245.759 58.4739M237.673 90.597C228.886 115.767 216.731 124.827 203.025 90.597M182.595 24.5977C179.364 34.295 176.568 46.1388 174.241 58.4739M182.595 24.5977C185.933 33.1635 189.408 44.3192 193.01 58.4739C196.419 71.8724 199.766 82.4584 203.025 90.597M182.595 24.5977C168.357 -11.9341 156.593 -1.35622 147.946 24.5977M203.025 90.597C206.183 81.5499 208.907 70.4215 211.111 58.4739M203.025 90.597C194.238 115.767 182.083 124.827 168.377 90.597M147.946 24.5977C144.716 34.295 141.92 46.1388 139.593 58.4739M147.946 24.5977C151.285 33.1635 154.759 44.3192 158.362 58.4739C161.771 71.8724 165.118 82.4584 168.377 90.597M147.946 24.5977C133.709 -11.9341 121.945 -1.35621 113.298 24.5978M168.377 90.597C171.535 81.5499 174.258 70.4215 176.462 58.4739M168.377 90.597C159.589 115.767 147.434 124.827 133.728 90.597M113.298 24.5978C110.067 34.295 107.272 46.1388 104.945 58.4739M113.298 24.5978C116.637 33.1635 120.111 44.3192 123.713 58.4739C127.123 71.8724 130.469 82.4584 133.728 90.597M113.298 24.5978C99.0603 -11.9341 87.2968 -1.35621 78.65 24.5978M133.728 90.597C136.887 81.5499 139.61 70.4215 141.814 58.4739M133.728 90.597C124.941 115.767 112.786 124.827 99.0801 90.597M78.65 24.5978C75.4192 34.295 72.6236 46.1388 70.2965 58.4739M78.65 24.5978C81.9884 33.1635 85.4628 44.3192 89.065 58.4739C92.4748 71.8725 95.8212 82.4584 99.0801 90.597M78.65 24.5978C64.4121 -11.9341 52.6486 -1.35621 44.0017 24.5978M99.0801 90.597C102.239 81.5499 104.962 70.4215 107.166 58.4739M99.0801 90.597C88.2036 121.751 72.1674 128.225 54.4168 58.4739C50.8146 44.3192 47.3401 33.1635 44.0017 24.5978M44.0017 24.5978C40.771 34.295 37.9753 46.1388 35.6483 58.4739M44.0017 24.5978C24.4441 -25.5836 9.55529 13.1249 0.999999 58.4739" stroke="url(#paint0_linear_396_2245)"/>
<defs>
<linearGradient id="paint0_linear_396_2245" x1="363.438" y1="94.2275" x2="327.921" y2="-52.1288" gradientUnits="userSpaceOnUse">
<stop stop-color="#DEC8A7"/>
<stop offset="0.301806" stop-color="#F3963A"/>
<stop offset="0.645833" stop-color="#E37B00"/>
<stop offset="1" stop-color="#B03B31"/>
</linearGradient>
</defs>
</svg>
