<svg width="894" height="358" viewBox="0 0 894 358" fill="none" xmlns="http://www.w3.org/2000/svg">
<g clip-path="url(#clip0_7:3)">
<rect width="894" height="358" rx="10" fill="white"/>
<g filter="url(#filter0_d_7:3)">
<rect width="894" height="358" rx="10" fill="#192239"/>
</g>
<path d="M178.07 231.758C202.68 231.758 220.469 216.359 222.367 194.773L222.438 194H201.766L201.625 194.703C198.953 206.727 190.375 213.758 178.141 213.758C161.898 213.758 151.492 200.539 151.492 179.164V179.094C151.492 157.859 161.828 144.781 178.07 144.781C190.727 144.781 199.023 152.094 201.414 163.273L201.695 164.469H222.367L222.297 163.836C220.398 142.32 202.75 126.781 178.07 126.781C148.469 126.781 129.766 146.469 129.766 179.164V179.234C129.766 211.93 148.398 231.758 178.07 231.758ZM268.914 231.547C291.695 231.547 306.25 216.922 306.25 192.312V192.172C306.25 167.773 291.414 153.078 268.844 153.078C246.344 153.078 231.578 167.914 231.578 192.172V192.312C231.578 216.852 245.992 231.547 268.914 231.547ZM268.984 215.445C258.859 215.445 252.461 207.078 252.461 192.312V192.172C252.461 177.617 258.93 169.18 268.844 169.18C278.828 169.18 285.367 177.617 285.367 192.172V192.312C285.367 207.008 278.969 215.445 268.984 215.445Z" fill="#E37B00"/>
<path d="M340.07 230H360.812L379.516 162.008H379.938L398.57 230H419.312L446.242 128.539H424.234L408.133 201.242H407.711L389.008 128.539H370.375L351.672 201.242H351.25L335.219 128.539H313.211L340.07 230ZM490.539 231.547C513.32 231.547 527.875 216.922 527.875 192.312V192.172C527.875 167.773 513.039 153.078 490.469 153.078C467.969 153.078 453.203 167.914 453.203 192.172V192.312C453.203 216.852 467.617 231.547 490.539 231.547ZM490.609 215.445C480.484 215.445 474.086 207.078 474.086 192.312V192.172C474.086 177.617 480.555 169.18 490.469 169.18C500.453 169.18 506.992 177.617 506.992 192.172V192.312C506.992 207.008 500.594 215.445 490.609 215.445ZM538.492 230H559.023V187.531C559.023 176.914 564.93 170.797 575.055 170.797C578.008 170.797 580.82 171.219 582.508 171.922V153.852C580.961 153.43 578.852 153.078 576.602 153.078C567.672 153.078 561.273 158.352 559.094 167.492H558.672V154.625H538.492V230ZM591.648 230H612.18V205.039L617.453 199.203L639.039 230H662.734L632.852 187.039L661.328 154.625H638.055L612.602 184.789H612.18V128.539H591.648V230Z" fill="white"/>
<path d="M671.344 230.375C674.156 230.375 676.375 228.094 676.375 225.188C676.375 222.312 674.156 220.031 671.344 220.031C668.562 220.031 666.312 222.312 666.312 225.188C666.312 228.094 668.562 230.375 671.344 230.375ZM695.375 230.531C699.812 230.531 703.594 228.438 705.844 225H706.031L704.969 230H713.75L723.344 184.906H714.438L710.625 202.438H710.438C709.344 198.562 705.438 195.875 700.344 195.875C690.812 195.875 683.594 204.906 683.594 217.031C683.594 225.281 688.125 230.531 695.375 230.531ZM699.062 223.188C695.156 223.188 692.719 220.281 692.719 215.75C692.719 208.656 696.719 203.375 701.875 203.375C705.875 203.375 708.469 206.344 708.469 210.656C708.469 217.625 704.344 223.188 699.062 223.188ZM737.25 230.75C745.344 230.75 751.469 226 753.188 219.312H744.781C743.75 222 741.156 223.812 737.594 223.812C733.344 223.812 730.688 220.75 730.688 216.312C730.688 215.969 730.719 215.625 730.75 215.25H754.188C754.531 213.656 754.656 211.656 754.656 210.031C754.656 201.25 748.906 195.656 740.25 195.656C729.656 195.656 722.406 204.312 722.406 215.625C722.406 224.812 727.906 230.75 737.25 230.75ZM731.656 209.594C732.719 205.5 735.781 202.5 739.938 202.5C744.156 202.5 746.281 205.344 746.281 208.656C746.281 208.969 746.25 209.375 746.219 209.594H731.656ZM758.5 196.375L762.719 230H772.906L791.438 196.375H781.844L769.531 221.406H769.344L767.406 196.375H758.5Z" fill="#E37B00"/>
</g>
<defs>
<filter id="filter0_d_7:3" x="-4" y="0" width="902" height="366" filterUnits="userSpaceOnUse" color-interpolation-filters="sRGB">
<feFlood flood-opacity="0" result="BackgroundImageFix"/>
<feColorMatrix in="SourceAlpha" type="matrix" values="0 0 0 0 0 0 0 0 0 0 0 0 0 0 0 0 0 0 127 0" result="hardAlpha"/>
<feOffset dy="4"/>
<feGaussianBlur stdDeviation="2"/>
<feColorMatrix type="matrix" values="0 0 0 0 0 0 0 0 0 0 0 0 0 0 0 0 0 0 0.25 0"/>
<feBlend mode="normal" in2="BackgroundImageFix" result="effect1_dropShadow_7:3"/>
<feBlend mode="normal" in="SourceGraphic" in2="effect1_dropShadow_7:3" result="shape"/>
</filter>
<clipPath id="clip0_7:3">
<rect width="894" height="358" rx="10" fill="white"/>
</clipPath>
</defs>
</svg>
