<svg width="246" height="245" viewBox="0 0 246 245" fill="none" xmlns="http://www.w3.org/2000/svg">
<path opacity="0.2" d="M5.40685 182.65L5.76061 182.296L5.40685 182.65ZM61.9966 239.307L61.6428 239.66L61.9966 239.307ZM227.786 239.487L227.438 239.128L227.786 239.487ZM240.07 227.576L239.722 227.217L240.07 227.576ZM240.534 59.9938L240.171 60.3381L240.534 59.9938ZM188.854 5.57302L188.491 5.91733L188.854 5.57302ZM1.22729 135.747V27.1634H0.227295V135.747H1.22729ZM7.42308 14.7665L21.5099 4.19398L20.9096 3.39418L6.82281 13.9667L7.42308 14.7665ZM30.8141 1.09082H177.252V0.0908203H30.8141V1.09082ZM188.491 5.91733L240.171 60.3381L240.896 59.6495L189.216 5.22871L188.491 5.91733ZM244.432 71.0116V216.089H245.432V71.0116H244.432ZM239.722 227.217L227.438 239.128L228.134 239.846L240.418 227.935L239.722 227.217ZM216.648 243.5H73.317V244.5H216.648V243.5ZM62.3503 238.954L5.76061 182.296L5.05308 183.003L61.6428 239.66L62.3503 238.954ZM1.22729 171.343V135.106H0.227295V171.343H1.22729ZM5.76061 182.296C2.85779 179.39 1.22729 175.45 1.22729 171.343H0.227295C0.227295 175.715 1.96298 179.909 5.05308 183.003L5.76061 182.296ZM73.317 243.5C69.2029 243.5 65.2577 241.864 62.3503 238.954L61.6428 239.66C64.7377 242.759 68.9375 244.5 73.317 244.5V243.5ZM227.438 239.128C224.546 241.932 220.676 243.5 216.648 243.5V244.5C220.936 244.5 225.055 242.831 228.134 239.846L227.438 239.128ZM244.432 216.089C244.432 220.283 242.732 224.298 239.722 227.217L240.418 227.935C243.623 224.827 245.432 220.554 245.432 216.089H244.432ZM240.171 60.3381C242.907 63.2185 244.432 67.0392 244.432 71.0116H245.432C245.432 66.783 243.808 62.7157 240.896 59.6495L240.171 60.3381ZM177.252 1.09082C181.501 1.09082 185.565 2.83571 188.491 5.91733L189.216 5.22871C186.101 1.94829 181.776 0.0908203 177.252 0.0908203V1.09082ZM21.5099 4.19398C24.1936 2.17974 27.4585 1.09082 30.8141 1.09082V0.0908203C27.242 0.0908203 23.7665 1.25 20.9096 3.39418L21.5099 4.19398ZM1.22729 27.1634C1.22729 22.2865 3.52257 17.694 7.42308 14.7665L6.82281 13.9667C2.67065 17.0831 0.227295 21.9719 0.227295 27.1634H1.22729Z" fill="#DEC8A7"/>
</svg>
