<svg width="246" height="245" viewBox="0 0 246 245" fill="none" xmlns="http://www.w3.org/2000/svg">
<path opacity="0.6" d="M5.58867 182.922L5.94243 182.569L5.58867 182.922ZM62.1784 239.579L61.8246 239.933L62.1784 239.579ZM227.968 239.759L227.62 239.4L227.968 239.759ZM240.251 227.849L239.903 227.49L240.251 227.849ZM240.716 60.2662L240.353 60.6105L240.716 60.2662ZM189.036 5.84548L188.673 6.18979L189.036 5.84548ZM1.40912 136.019V27.4359H0.409119V136.019H1.40912ZM7.60491 15.039L21.6917 4.46644L21.0914 3.66664L7.00464 14.2392L7.60491 15.039ZM30.9959 1.36328H177.434V0.363281H30.9959V1.36328ZM188.673 6.18979L240.353 60.6105L241.078 59.9219L189.398 5.50117L188.673 6.18979ZM244.614 71.284V216.362H245.614V71.284H244.614ZM239.903 227.49L227.62 239.4L228.316 240.118L240.6 228.208L239.903 227.49ZM216.83 243.772H73.4988V244.772H216.83V243.772ZM62.5321 239.226L5.94243 182.569L5.23491 183.276L61.8246 239.933L62.5321 239.226ZM1.40912 171.615V135.379H0.409119V171.615H1.40912ZM5.94243 182.569C3.03961 179.663 1.40912 175.723 1.40912 171.615H0.409119C0.409119 175.988 2.14481 180.182 5.23491 183.276L5.94243 182.569ZM73.4988 243.772C69.3848 243.772 65.4395 242.137 62.5321 239.226L61.8246 239.933C64.9195 243.031 69.1193 244.772 73.4988 244.772V243.772ZM227.62 239.4C224.728 242.204 220.858 243.772 216.83 243.772V244.772C221.118 244.772 225.237 243.103 228.316 240.118L227.62 239.4ZM244.614 216.362C244.614 220.556 242.914 224.57 239.903 227.49L240.6 228.208C243.805 225.1 245.614 220.826 245.614 216.362H244.614ZM240.353 60.6105C243.089 63.491 244.614 67.3117 244.614 71.284H245.614C245.614 67.0554 243.99 62.9882 241.078 59.9219L240.353 60.6105ZM177.434 1.36328C181.683 1.36328 185.747 3.10818 188.673 6.18979L189.398 5.50117C186.283 2.22075 181.957 0.363281 177.434 0.363281V1.36328ZM21.6917 4.46644C24.3754 2.45221 27.6404 1.36328 30.9959 1.36328V0.363281C27.4239 0.363281 23.9483 1.52246 21.0914 3.66664L21.6917 4.46644ZM1.40912 27.4359C1.40912 22.559 3.70439 17.9665 7.60491 15.039L7.00464 14.2392C2.85247 17.3555 0.409119 22.2443 0.409119 27.4359H1.40912Z" fill="#DEC8A7"/>
</svg>
