<svg width="246" height="245" viewBox="0 0 246 245" fill="none" xmlns="http://www.w3.org/2000/svg">
<path opacity="0.4" d="M5.49773 182.786L5.85149 182.433L5.49773 182.786ZM62.0874 239.444L61.7337 239.797L62.0874 239.444ZM227.877 239.624L227.529 239.265L227.877 239.624ZM240.161 227.713L239.812 227.354L240.161 227.713ZM240.625 60.1305L240.262 60.4748L240.625 60.1305ZM188.945 5.70974L188.582 6.05405L188.945 5.70974ZM1.31818 135.884V27.3001H0.318176V135.884H1.31818ZM7.51397 14.9033L21.6007 4.3307L21.0005 3.5309L6.91369 14.1035L7.51397 14.9033ZM30.905 1.22754H177.343V0.227539H30.905V1.22754ZM188.582 6.05405L240.262 60.4748L240.987 59.7862L189.307 5.36543L188.582 6.05405ZM244.523 71.1483V216.226H245.523V71.1483H244.523ZM239.812 227.354L227.529 239.265L228.225 239.982L240.509 228.072L239.812 227.354ZM216.739 243.637H73.4079V244.637H216.739V243.637ZM62.4412 239.09L5.85149 182.433L5.14396 183.14L61.7337 239.797L62.4412 239.09ZM1.31818 171.479V135.243H0.318176V171.479H1.31818ZM5.85149 182.433C2.94867 179.527 1.31818 175.587 1.31818 171.479H0.318176C0.318176 175.852 2.05386 180.046 5.14396 183.14L5.85149 182.433ZM73.4079 243.637C69.2938 243.637 65.3485 242.001 62.4412 239.09L61.7337 239.797C64.8286 242.896 69.0284 244.637 73.4079 244.637V243.637ZM227.529 239.265C224.637 242.069 220.767 243.637 216.739 243.637V244.637C221.027 244.637 225.146 242.967 228.225 239.982L227.529 239.265ZM244.523 216.226C244.523 220.42 242.823 224.435 239.812 227.354L240.509 228.072C243.714 224.964 245.523 220.69 245.523 216.226H244.523ZM240.262 60.4748C242.998 63.3552 244.523 67.176 244.523 71.1483H245.523C245.523 66.9197 243.899 62.8525 240.987 59.7862L240.262 60.4748ZM177.343 1.22754C181.592 1.22754 185.656 2.97243 188.582 6.05405L189.307 5.36543C186.192 2.08501 181.866 0.227539 177.343 0.227539V1.22754ZM21.6007 4.3307C24.2845 2.31646 27.5494 1.22754 30.905 1.22754V0.227539C27.3329 0.227539 23.8574 1.38672 21.0005 3.5309L21.6007 4.3307ZM1.31818 27.3001C1.31818 22.4232 3.61345 17.8307 7.51397 14.9033L6.91369 14.1035C2.76153 17.2198 0.318176 22.1086 0.318176 27.3001H1.31818Z" fill="#DEC8A7"/>
</svg>
