<svg width="246" height="245" viewBox="0 0 246 245" fill="none" xmlns="http://www.w3.org/2000/svg">
<path d="M5.67955 183.059L6.03332 182.706L5.67955 183.059ZM62.2693 239.716L61.9155 240.069L62.2693 239.716ZM228.058 239.896L227.71 239.537L228.058 239.896ZM240.342 227.985L239.994 227.626L240.342 227.985ZM240.807 60.4029L240.444 60.7473L240.807 60.4029ZM189.126 5.9822L188.764 6.32651L189.126 5.9822ZM1.5 136.156V27.5726H0.5V136.156H1.5ZM7.69579 15.1757L21.7826 4.60316L21.1823 3.80336L7.09552 14.3759L7.69579 15.1757ZM31.0868 1.5H177.524V0.5H31.0868V1.5ZM188.764 6.32651L240.444 60.7473L241.169 60.0586L189.489 5.63789L188.764 6.32651ZM244.705 71.4207V216.498H245.705V71.4207H244.705ZM239.994 227.626L227.71 239.537L228.407 240.255L240.69 228.344L239.994 227.626ZM216.921 243.909H73.5897V244.909H216.921V243.909ZM62.623 239.363L6.03332 182.706L5.32579 183.412L61.9155 240.069L62.623 239.363ZM1.5 171.752V135.516H0.5V171.752H1.5ZM6.03332 182.706C3.13049 179.799 1.5 175.86 1.5 171.752H0.5C0.5 176.125 2.23569 180.318 5.32579 183.412L6.03332 182.706ZM73.5897 243.909C69.4756 243.909 65.5304 242.274 62.623 239.363L61.9155 240.069C65.0104 243.168 69.2102 244.909 73.5897 244.909V243.909ZM227.71 239.537C224.819 242.341 220.949 243.909 216.921 243.909V244.909C221.209 244.909 225.328 243.24 228.407 240.255L227.71 239.537ZM244.705 216.498C244.705 220.692 243.005 224.707 239.994 227.626L240.69 228.344C243.896 225.237 245.705 220.963 245.705 216.498H244.705ZM240.444 60.7473C243.179 63.6277 244.705 67.4484 244.705 71.4207H245.705C245.705 67.1921 244.081 63.1249 241.169 60.0586L240.444 60.7473ZM177.524 1.5C181.774 1.5 185.837 3.24489 188.764 6.32651L189.489 5.63789C186.374 2.35747 182.048 0.5 177.524 0.5V1.5ZM21.7826 4.60316C24.4663 2.58892 27.7312 1.5 31.0868 1.5V0.5C27.5148 0.5 24.0392 1.65918 21.1823 3.80336L21.7826 4.60316ZM1.5 27.5726C1.5 22.6957 3.79527 18.1032 7.69579 15.1757L7.09552 14.3759C2.94336 17.4923 0.5 22.381 0.5 27.5726H1.5Z" fill="#F09236"/>
</svg>
