<svg width="498" height="274" viewBox="0 0 498 274" fill="none" xmlns="http://www.w3.org/2000/svg">
<g opacity="0.2">
<g opacity="0.7" filter="url(#filter0_f_660_2296)">
<ellipse rx="11.5148" ry="14.2328" transform="matrix(0.0323247 -0.999478 -0.999459 -0.032902 102.042 178.995)" fill="url(#paint0_radial_660_2296)"/>
</g>
<g opacity="0.7" filter="url(#filter1_f_660_2296)">
<ellipse rx="23.0689" ry="28.5146" transform="matrix(0.0323247 -0.999478 -0.999459 -0.032902 353.221 109.166)" fill="url(#paint1_radial_660_2296)" fill-opacity="0.6"/>
</g>
<path d="M417.053 72.4421L418.104 72.3982L417.053 72.4421ZM381.326 85.776L380.276 85.8199L381.326 85.776ZM345.6 99.1098L346.651 99.0658L345.6 99.1098ZM309.874 112.444L310.925 112.4L309.874 112.444ZM274.148 125.777L275.199 125.734L274.148 125.777ZM238.422 139.111L239.472 139.067L238.422 139.111ZM202.695 152.445L203.746 152.401L202.695 152.445ZM166.969 165.779L168.02 165.735L166.969 165.779ZM131.243 179.113L132.294 179.069L131.243 179.113ZM95.5165 192.447L96.5673 192.403L95.5165 192.447ZM470.659 52.6942C463.991 45.7326 457.157 39.4719 450.662 34.6072C444.148 29.7278 438.06 26.3182 432.874 24.9586C430.295 24.2824 427.98 24.124 425.956 24.512C423.942 24.898 422.149 25.8366 420.633 27.4535C417.567 30.723 415.625 36.7775 415.507 46.5368L413.38 46.3141C413.499 36.4358 415.451 29.8902 418.931 26.1796C420.687 24.3065 422.831 23.1601 425.289 22.6889C427.737 22.2197 430.432 22.4319 433.274 23.1771C438.93 24.6602 445.329 28.2959 451.939 33.2473C458.569 38.2132 465.5 44.5685 472.226 51.5908L470.659 52.6942ZM415.507 46.5368C415.425 53.3389 416.23 61.8754 418.104 72.3982L416.002 72.4861C414.116 61.8965 413.296 53.2503 413.38 46.3141L415.507 46.5368ZM418.104 72.3982C420.723 87.1115 421.486 98.2014 420.757 106.278C420.032 114.323 417.813 119.536 414.281 122.291C410.67 125.108 405.899 125.205 400.647 123.515C395.433 121.837 389.608 118.365 383.588 113.834L384.87 112.478C390.805 116.945 396.366 120.223 401.182 121.773C405.96 123.31 409.86 123.112 412.773 120.84C415.765 118.506 417.923 113.836 418.636 105.931C419.346 98.0571 418.609 87.1297 416.002 72.4861L418.104 72.3982ZM383.588 113.834C376.284 108.336 368.584 101.193 361.194 93.5545L362.754 92.443C370.097 100.034 377.702 107.082 384.87 112.478L383.588 113.834ZM434.933 66.028C427.88 58.6646 420.643 52.0866 413.818 47.115L415.069 45.7358C422.044 50.8169 429.386 57.4984 436.5 64.9246L434.933 66.028ZM413.818 47.115C409.067 43.6544 404.553 40.9991 400.467 39.3902C396.377 37.7795 392.813 37.2544 389.881 37.9186C386.98 38.576 384.51 40.4417 382.728 43.9731C380.936 47.5228 379.867 52.7087 379.781 59.8706L377.654 59.6479C377.741 52.3645 378.826 46.9131 380.766 43.0692C382.715 39.2071 385.557 36.9231 389.143 36.1104C392.7 35.3045 396.803 35.9889 401.156 37.7033C405.515 39.4194 410.221 42.2046 415.069 45.7358L413.818 47.115ZM379.781 59.8706C379.699 66.6727 380.504 75.2092 382.377 85.732L380.276 85.8199C378.39 75.2304 377.57 66.5842 377.654 59.6479L379.781 59.8706ZM382.377 85.732C384.368 96.9145 385.286 105.999 385.293 113.257L383.165 113.055C383.158 105.924 382.256 96.9413 380.276 85.8199L382.377 85.732ZM385.293 113.257C385.301 120.983 384.277 126.696 382.371 130.672C380.456 134.668 377.613 136.97 373.985 137.706C370.397 138.433 366.257 137.582 361.879 135.7C357.491 133.814 352.746 130.844 347.862 127.168L349.144 125.812C353.944 129.425 358.51 132.268 362.641 134.043C366.782 135.823 370.369 136.48 373.296 135.887C376.182 135.302 378.641 133.455 380.395 129.796C382.159 126.118 383.173 120.67 383.165 113.055L385.293 113.257ZM347.862 127.168C340.557 121.669 332.858 114.527 325.468 106.888L327.027 105.777C334.371 113.368 341.976 120.416 349.144 125.812L347.862 127.168ZM399.207 79.3618C392.153 71.9985 384.917 65.4204 378.092 60.4489L379.343 59.0697C386.318 64.1508 393.66 70.8322 400.774 78.2585L399.207 79.3618ZM378.092 60.4489C373.341 56.9882 368.827 54.3329 364.741 52.724C360.651 51.1133 357.087 50.5882 354.155 51.2524C351.254 51.9098 348.784 53.7756 347.002 57.307C345.21 60.8567 344.141 66.0425 344.055 73.2044L341.927 72.9817C342.015 65.6983 343.1 60.2469 345.04 56.403C346.989 52.5409 349.83 50.2569 353.417 49.4442C356.974 48.6383 361.077 49.3228 365.43 51.0371C369.788 52.7533 374.495 55.5385 379.343 59.0697L378.092 60.4489ZM344.055 73.2044C343.973 80.0065 344.777 88.543 346.651 99.0658L344.549 99.1537C342.664 88.5642 341.844 79.918 341.927 72.9817L344.055 73.2044ZM346.651 99.0658C348.642 110.248 349.56 119.333 349.567 126.591L347.439 126.389C347.432 119.258 346.53 110.275 344.549 99.1537L346.651 99.0658ZM349.567 126.591C349.574 134.317 348.551 140.03 346.645 144.006C344.729 148.001 341.887 150.304 338.259 151.039C334.671 151.767 330.531 150.916 326.153 149.034C321.765 147.148 317.02 144.178 312.136 140.502L313.417 139.145C318.218 142.759 322.784 145.602 326.915 147.377C331.056 149.156 334.642 149.814 337.569 149.221C340.456 148.636 342.915 146.789 344.669 143.13C346.433 139.451 347.447 134.004 347.439 126.389L349.567 126.591ZM312.136 140.502C304.831 135.003 297.132 127.861 289.742 120.222L291.301 119.111C298.645 126.702 306.25 133.75 313.417 139.145L312.136 140.502ZM363.481 92.6957C356.427 85.3323 349.19 78.7542 342.366 73.7827L343.616 72.4035C350.592 77.4846 357.934 84.1661 365.048 91.5923L363.481 92.6957ZM342.366 73.7827C337.615 70.322 333.1 67.6667 329.015 66.0579C324.924 64.4471 321.361 63.922 318.429 64.5862C315.527 65.2437 313.058 67.1094 311.276 70.6408C309.484 74.1905 308.415 79.3764 308.329 86.5383L306.201 86.3156C306.289 79.0322 307.373 73.5807 309.313 69.7369C311.263 65.8747 314.104 63.5907 317.691 62.778C321.248 61.9722 325.35 62.6566 329.704 64.3709C334.062 66.0871 338.769 68.8723 343.616 72.4035L342.366 73.7827ZM308.329 86.5383C308.247 93.3403 309.051 101.877 310.925 112.4L308.823 112.488C306.938 101.898 306.117 93.2518 306.201 86.3156L308.329 86.5383ZM310.925 112.4C312.916 123.582 313.833 132.667 313.84 139.925L311.713 139.723C311.706 132.591 310.804 123.609 308.823 112.488L310.925 112.4ZM313.84 139.925C313.848 147.651 312.825 153.364 310.919 157.34C309.003 161.335 306.16 163.638 302.532 164.373C298.945 165.1 294.805 164.249 290.426 162.368C286.038 160.482 281.293 157.512 276.41 153.836L277.691 152.479C282.491 156.093 287.058 158.936 291.189 160.711C295.329 162.49 298.916 163.148 301.843 162.555C304.729 161.97 307.189 160.123 308.943 156.464C310.706 152.785 311.72 147.338 311.713 139.723L313.84 139.925ZM276.41 153.836C269.105 148.337 261.405 141.195 254.016 133.556L255.575 132.444C262.919 140.035 270.523 147.084 277.691 152.479L276.41 153.836ZM327.754 106.03C320.701 98.6661 313.464 92.0881 306.639 87.1165L307.89 85.7373C314.865 90.8184 322.208 97.4999 329.322 104.926L327.754 106.03ZM306.639 87.1165C301.889 83.6559 297.374 81.0006 293.288 79.3917C289.198 77.781 285.634 77.2559 282.703 77.9201C279.801 78.5775 277.332 80.4432 275.549 83.9746C273.758 87.5243 272.689 92.7102 272.602 99.8721L270.475 99.6494C270.563 92.366 271.647 86.9145 273.587 83.0707C275.537 79.2085 278.378 76.9245 281.965 76.1119C285.522 75.306 289.624 75.9904 293.978 77.7048C298.336 79.4209 303.043 82.2061 307.89 85.7373L306.639 87.1165ZM272.602 99.8721C272.52 106.674 273.325 115.211 275.199 125.734L273.097 125.821C271.211 115.232 270.391 106.586 270.475 99.6494L272.602 99.8721ZM275.199 125.734C277.19 136.916 278.107 146.001 278.114 153.258L275.987 153.057C275.98 145.925 275.077 136.943 273.097 125.821L275.199 125.734ZM278.114 153.258C278.122 160.985 277.099 166.698 275.193 170.673C273.277 174.669 270.434 176.972 266.806 177.707C263.219 178.434 259.079 177.583 254.7 175.702C250.312 173.816 245.567 170.846 240.683 167.17L241.965 165.813C246.765 169.426 251.331 172.269 255.462 174.045C259.603 175.824 263.19 176.482 266.117 175.888C269.003 175.303 271.462 173.457 273.217 169.798C274.98 166.119 275.994 160.672 275.987 153.057L278.114 153.258ZM240.683 167.17C233.379 161.671 225.679 154.528 218.289 146.89L219.849 145.778C227.192 153.369 234.797 160.418 241.965 165.813L240.683 167.17ZM292.028 119.363C284.975 112 277.738 105.422 270.913 100.45L272.164 99.0711C279.139 104.152 286.481 110.834 293.595 118.26L292.028 119.363ZM270.913 100.45C266.163 96.9897 261.648 94.3344 257.562 92.7255C253.472 91.1148 249.908 90.5897 246.976 91.2539C244.075 91.9113 241.605 93.7771 239.823 97.3085C238.031 100.858 236.962 106.044 236.876 113.206L234.749 112.983C234.836 105.7 235.921 100.248 237.861 96.4045C239.81 92.5424 242.652 90.2584 246.238 89.4457C249.795 88.6398 253.898 89.3243 258.252 91.0386C262.61 92.7548 267.316 95.54 272.164 99.0711L270.913 100.45ZM236.876 113.206C236.794 120.008 237.599 128.545 239.472 139.067L237.371 139.155C235.485 128.566 234.665 119.919 234.749 112.983L236.876 113.206ZM239.472 139.067C241.463 150.25 242.381 159.335 242.388 166.592L240.26 166.391C240.253 159.259 239.351 150.277 237.371 139.155L239.472 139.067ZM242.388 166.592C242.396 174.319 241.372 180.031 239.466 184.007C237.551 188.003 234.708 190.306 231.08 191.041C227.492 191.768 223.352 190.917 218.974 189.035C214.586 187.15 209.841 184.18 204.957 180.503L206.239 179.147C211.039 182.76 215.605 185.603 219.736 187.379C223.877 189.158 227.464 189.815 230.391 189.222C233.277 188.637 235.736 186.791 237.49 183.132C239.254 179.453 240.268 174.006 240.26 166.391L242.388 166.592ZM204.957 180.503C197.652 175.005 189.953 167.862 182.563 160.224L184.122 159.112C191.466 166.703 199.071 173.751 206.239 179.147L204.957 180.503ZM256.302 132.697C249.248 125.334 242.012 118.756 235.187 113.784L236.438 112.405C243.413 117.486 250.755 124.168 257.869 131.594L256.302 132.697ZM235.187 113.784C230.436 110.324 225.922 107.668 221.836 106.059C217.746 104.449 214.182 103.924 211.25 104.588C208.349 105.245 205.879 107.111 204.097 110.642C202.305 114.192 201.236 119.378 201.15 126.54L199.022 126.317C199.11 119.034 200.195 113.582 202.135 109.738C204.084 105.876 206.925 103.592 210.512 102.78C214.069 101.974 218.172 102.658 222.525 104.372C226.884 106.089 231.59 108.874 236.438 112.405L235.187 113.784ZM201.15 126.54C201.068 133.342 201.872 141.878 203.746 152.401L201.644 152.489C199.759 141.9 198.939 133.253 199.022 126.317L201.15 126.54ZM203.746 152.401C205.737 163.584 206.655 172.669 206.662 179.926L204.534 179.724C204.527 172.593 203.625 163.61 201.644 152.489L203.746 152.401ZM206.662 179.926C206.669 187.653 205.646 193.365 203.74 197.341C201.824 201.337 198.982 203.639 195.354 204.375C191.766 205.102 187.626 204.251 183.248 202.369C178.86 200.484 174.115 197.513 169.231 193.837L170.513 192.481C175.313 196.094 179.879 198.937 184.01 200.712C188.151 202.492 191.737 203.149 194.664 202.556C197.551 201.971 200.01 200.124 201.764 196.465C203.528 192.787 204.542 187.339 204.534 179.724L206.662 179.926ZM169.231 193.837C161.926 188.339 154.227 181.196 146.837 173.557L148.396 172.446C155.74 180.037 163.345 187.085 170.513 192.481L169.231 193.837ZM220.576 146.031C213.522 138.668 206.285 132.09 199.461 127.118L200.711 125.739C207.687 130.82 215.029 137.501 222.143 144.928L220.576 146.031ZM199.461 127.118C194.71 123.657 190.195 121.002 186.11 119.393C182.019 117.782 178.456 117.257 175.524 117.922C172.622 118.579 170.153 120.445 168.371 123.976C166.579 127.526 165.51 132.712 165.424 139.874L163.296 139.651C163.384 132.367 164.468 126.916 166.408 123.072C168.358 119.21 171.199 116.926 174.786 116.113C178.343 115.307 182.446 115.992 186.799 117.706C191.157 119.422 195.864 122.208 200.711 125.739L199.461 127.118ZM165.424 139.874C165.342 146.676 166.146 155.212 168.02 165.735L165.918 165.823C164.033 155.233 163.213 146.587 163.296 139.651L165.424 139.874ZM168.02 165.735C170.011 176.917 170.928 186.002 170.935 193.26L168.808 193.058C168.801 185.927 167.899 176.944 165.918 165.823L168.02 165.735ZM170.935 193.26C170.943 200.986 169.92 206.699 168.014 210.675C166.098 214.671 163.255 216.973 159.627 217.709C156.04 218.436 151.9 217.585 147.521 215.703C143.133 213.817 138.388 210.847 133.505 207.171L134.786 205.815C139.586 209.428 144.153 212.271 148.284 214.046C152.424 215.826 156.011 216.483 158.938 215.89C161.824 215.305 164.284 213.458 166.038 209.799C167.801 206.121 168.815 200.673 168.808 193.058L170.935 193.26ZM133.505 207.171C126.2 201.672 118.501 194.53 111.111 186.891L112.67 185.78C120.014 193.371 127.618 200.419 134.786 205.815L133.505 207.171ZM184.849 159.365C177.796 152.001 170.559 145.423 163.734 140.452L164.985 139.073C171.96 144.154 179.303 150.835 186.417 158.261L184.849 159.365ZM163.734 140.452C158.984 136.991 154.469 134.336 150.383 132.727C146.293 131.116 142.729 130.591 139.798 131.255C136.896 131.913 134.427 133.779 132.644 137.31C130.853 140.86 129.784 146.046 129.697 153.207L127.57 152.985C127.658 145.701 128.742 140.25 130.682 136.406C132.632 132.544 135.473 130.26 139.06 129.447C142.617 128.641 146.719 129.326 151.073 131.04C155.431 132.756 160.138 135.541 164.985 139.073L163.734 140.452ZM129.697 153.207C129.615 160.009 130.42 168.546 132.294 179.069L130.192 179.157C128.306 168.567 127.486 159.921 127.57 152.985L129.697 153.207ZM132.294 179.069C134.285 190.251 135.202 199.336 135.209 206.594L133.082 206.392C133.075 199.261 132.172 190.278 130.192 179.157L132.294 179.069ZM135.209 206.594C135.217 214.32 134.194 220.033 132.288 224.009C130.372 228.004 127.529 230.307 123.901 231.042C120.314 231.77 116.174 230.918 111.795 229.037C107.407 227.151 102.662 224.181 97.7784 220.505L99.06 219.148C103.86 222.762 108.426 225.605 112.557 227.38C116.698 229.159 120.285 229.817 123.212 229.224C126.098 228.639 128.557 226.792 130.312 223.133C132.075 219.454 133.089 214.007 133.082 206.392L135.209 206.594ZM97.7784 220.505C90.4737 215.006 82.7743 207.864 75.3844 200.225L76.9437 199.114C84.2874 206.705 91.8921 213.753 99.06 219.148L97.7784 220.505ZM149.123 172.699C142.07 165.335 134.833 158.757 128.008 153.786L129.259 152.406C136.234 157.488 143.576 164.169 150.69 171.595L149.123 172.699ZM128.008 153.786C122.119 149.496 116.608 146.455 111.834 145.099C107.101 143.754 103.195 144.084 100.252 146.396C97.2432 148.76 95.0625 153.328 94.2811 160.864C93.5022 168.377 94.1278 178.703 96.5673 192.403L94.4658 192.491C92.0126 178.714 91.3614 168.219 92.162 160.497C92.9601 152.799 95.2152 147.718 98.7387 144.95C102.328 142.129 107.051 141.844 112.284 143.331C117.476 144.806 123.268 148.042 129.259 152.406L128.008 153.786ZM96.5673 192.403C98.5585 203.585 99.4758 212.67 99.483 219.928L97.3554 219.726C97.3484 212.594 96.4461 203.612 94.4658 192.491L96.5673 192.403ZM99.483 219.928C99.4934 230.512 97.5705 237.363 94.0358 241.117C92.2467 243.016 90.0472 244.118 87.5187 244.491C85.0068 244.861 82.2454 244.5 79.3431 243.593C73.5646 241.786 67.0165 237.745 60.2706 232.471C53.5043 227.182 46.4513 220.581 39.6582 213.559L41.2175 212.447C47.9661 219.423 54.9368 225.943 61.5875 231.142C68.2587 236.358 74.521 240.176 79.8577 241.844C82.5129 242.674 84.8853 242.955 86.9472 242.652C88.9926 242.35 90.8069 241.464 92.3357 239.84C95.4369 236.547 97.3658 230.215 97.3554 219.726L99.483 219.928Z" fill="#DEC8A7"/>
<path d="M455.411 58.1265C428.62 30.1587 398.885 13.1343 398.412 52.4094M398.412 52.4094C398.329 59.2786 399.141 67.87 401.021 78.4261C411.476 137.14 392.106 137.137 368.197 119.14M398.412 52.4094C405.312 57.4358 412.601 64.0655 419.685 71.4603M398.412 52.4094C379.215 38.4258 363.034 36.8527 362.686 65.7433M368.197 119.14C360.961 113.693 353.309 106.597 345.942 98.9827M368.197 119.14C368.19 111.946 367.28 102.912 365.295 91.76C363.415 81.2038 362.603 72.6124 362.686 65.7433M368.197 119.14C368.228 149.823 351.839 147.053 332.471 132.474M362.686 65.7433C369.585 70.7696 376.875 77.3994 383.959 84.7942M362.686 65.7433C343.489 51.7596 327.308 50.1865 326.959 79.0771M332.471 132.474C325.235 127.027 317.583 119.931 310.216 112.317M332.471 132.474C332.464 125.279 331.554 116.246 329.568 105.094C327.689 94.5376 326.876 85.9463 326.959 79.0771M332.471 132.474C332.501 163.157 316.112 160.386 296.745 145.808M326.959 79.0771C333.859 84.1034 341.149 90.7332 348.232 98.128M326.959 79.0771C307.763 65.0934 291.581 63.5203 291.233 92.4109M296.745 145.808C289.509 140.361 281.857 133.265 274.49 125.65M296.745 145.808C296.738 138.613 295.828 129.58 293.842 118.428C291.963 107.871 291.15 99.2801 291.233 92.4109M296.745 145.808C296.775 176.491 280.386 173.72 261.019 159.142M291.233 92.4109C298.133 97.4372 305.422 104.067 312.506 111.462M291.233 92.4109C272.037 78.4272 255.855 76.8541 255.507 105.745M261.019 159.142C253.782 153.694 246.13 146.599 238.764 138.984M261.019 159.142C261.012 151.947 260.102 142.913 258.116 131.761C256.236 121.205 255.424 112.614 255.507 105.745M261.019 159.142C261.049 189.825 244.66 187.054 225.292 172.475M255.507 105.745C262.407 110.771 269.696 117.401 276.78 124.796M255.507 105.745C236.31 91.7611 220.129 90.188 219.781 119.079M225.292 172.475C218.056 167.028 210.404 159.933 203.037 152.318M225.292 172.475C225.285 165.281 224.376 156.247 222.39 145.095C220.51 134.539 219.698 125.948 219.781 119.079M225.292 172.475C225.323 203.159 208.934 200.388 189.566 185.809M219.781 119.079C226.681 124.105 233.97 130.735 241.054 138.129M219.781 119.079C200.584 105.095 184.403 103.522 184.054 132.412M189.566 185.809C182.33 180.362 174.678 173.267 167.311 165.652M189.566 185.809C189.559 178.615 188.649 169.581 186.664 158.429C184.784 147.873 183.972 139.282 184.054 132.412M189.566 185.809C189.596 216.493 173.207 213.722 153.84 199.143M184.054 132.412C190.954 137.439 198.244 144.068 205.327 151.463M184.054 132.412C164.858 118.429 148.676 116.856 148.328 145.746M153.84 199.143C146.604 193.696 138.952 186.6 131.585 178.986M153.84 199.143C153.833 191.949 152.923 182.915 150.937 171.763C149.058 161.207 148.245 152.615 148.328 145.746M153.84 199.143C153.87 229.826 137.481 227.056 118.114 212.477M148.328 145.746C155.228 150.773 162.518 157.402 169.601 164.797M148.328 145.746C129.132 131.763 112.95 130.189 112.602 159.08M118.114 212.477C110.877 207.03 103.225 199.934 95.8586 192.32M118.114 212.477C118.107 205.282 117.197 196.249 115.211 185.097C113.331 174.541 112.519 165.949 112.602 159.08M118.114 212.477C118.144 243.16 101.755 240.389 82.3875 225.811M112.602 159.08C119.502 164.106 126.791 170.736 133.875 178.131M112.602 159.08C88.8413 141.772 69.6995 143.477 79.4848 198.431C81.4706 209.583 82.3804 218.616 82.3875 225.811M82.3875 225.811C75.1512 220.364 67.4991 213.268 60.1324 205.653M82.3875 225.811C82.4291 267.958 51.4894 246.982 24.4061 218.987" stroke="#F09236" stroke-width="2"/>
</g>
<defs>
<filter id="filter0_f_660_2296" x="75.8116" y="155.476" width="52.4602" height="47.037" filterUnits="userSpaceOnUse" color-interpolation-filters="sRGB">
<feFlood flood-opacity="0" result="BackgroundImageFix"/>
<feBlend mode="normal" in="SourceGraphic" in2="BackgroundImageFix" result="shape"/>
<feGaussianBlur stdDeviation="6" result="effect1_foregroundBlur_660_2296"/>
</filter>
<filter id="filter1_f_660_2296" x="301.712" y="63.0897" width="103.018" height="92.1526" filterUnits="userSpaceOnUse" color-interpolation-filters="sRGB">
<feFlood flood-opacity="0" result="BackgroundImageFix"/>
<feBlend mode="normal" in="SourceGraphic" in2="BackgroundImageFix" result="shape"/>
<feGaussianBlur stdDeviation="11.5" result="effect1_foregroundBlur_660_2296"/>
</filter>
<radialGradient id="paint0_radial_660_2296" cx="0" cy="0" r="1" gradientUnits="userSpaceOnUse" gradientTransform="translate(11.5148 14.2328) rotate(90) scale(16.9699 13.7292)">
<stop offset="0.419792" stop-color="#DEC8A7"/>
<stop offset="1" stop-color="#E37B00"/>
</radialGradient>
<radialGradient id="paint1_radial_660_2296" cx="0" cy="0" r="1" gradientUnits="userSpaceOnUse" gradientTransform="translate(23.0689 28.5146) rotate(90) scale(33.9982 27.5052)">
<stop offset="0.419792" stop-color="#DEC8A7"/>
<stop offset="1" stop-color="#E37B00"/>
</radialGradient>
</defs>
</svg>
