<svg width="62" height="81" viewBox="0 0 62 81" fill="none" xmlns="http://www.w3.org/2000/svg">
<path d="M47.094 64.3521L59.6276 72.0871L47.094 79.8165" stroke="#DEC8A7" stroke-width="2" stroke-linecap="round" stroke-linejoin="round"/>
<path d="M14.8156 64.3521L2.28198 72.0871L14.8156 79.8165" stroke="#DEC8A7" stroke-width="2" stroke-linecap="round" stroke-linejoin="round"/>
<path d="M23.2172 60.1858H38.6696V71.133C38.6696 72.6437 38.0553 74.0928 36.9612 75.1631C35.8671 76.2334 34.3823 76.8377 32.832 76.8436H29.0776C27.5234 76.8436 26.0327 76.242 24.9337 75.171C23.8346 74.1001 23.2172 72.6475 23.2172 71.133V60.1858Z" stroke="#DEC8A7" stroke-width="2" stroke-linecap="round" stroke-linejoin="round"/>
<path d="M47.7179 32.5479C47.7218 35.7629 46.7566 38.9083 44.9422 41.5934L38.6925 60.1864H23.2401L16.9675 41.5934C15.5088 39.4676 14.5817 37.0382 14.2607 34.5001C13.9397 31.962 14.2337 29.3859 15.1191 26.9786C16.0045 24.5712 17.4567 22.3996 19.3591 20.638C21.2615 18.8764 23.5611 17.5738 26.0735 16.8347C28.586 16.0957 31.2412 15.9407 33.8261 16.3824C36.4111 16.824 38.8539 17.8499 40.9584 19.3777C43.0629 20.9056 44.7706 22.8928 45.9445 25.18C47.1184 27.4672 47.7258 29.9907 47.7179 32.5479V32.5479Z" stroke="#DEC8A7" stroke-width="2" stroke-linecap="round" stroke-linejoin="round"/>
<path d="M1 34.6948H6.67162" stroke="#F09236" stroke-width="2" stroke-linecap="round" stroke-linejoin="round"/>
<path d="M6.67163 8.75739L11.2959 11.9808" stroke="#F09236" stroke-width="2" stroke-linecap="round" stroke-linejoin="round"/>
<path d="M30.9548 1V6.42619" stroke="#DEC8A7" stroke-width="2" stroke-linecap="round" stroke-linejoin="round"/>
<path d="M7.61597 55.8976L11.9598 52.4791" stroke="#F09236" stroke-width="2" stroke-linecap="round" stroke-linejoin="round"/>
<path d="M60.9097 34.6948H55.238" stroke="#F09236" stroke-width="2" stroke-linecap="round" stroke-linejoin="round"/>
<path d="M55.2381 8.75739L50.6195 11.9808" stroke="#F09236" stroke-width="2" stroke-linecap="round" stroke-linejoin="round"/>
<path d="M30.9548 1V6.42619" stroke="#F09236" stroke-width="2" stroke-linecap="round" stroke-linejoin="round"/>
<path d="M54.2937 55.8976L49.9556 52.4791" stroke="#F09236" stroke-width="2" stroke-linecap="round" stroke-linejoin="round"/>
<path d="M33.7552 58.5564L38.3967 32.4348L33.8811 36.2159L30.0123 32.4348L27.0477 36.2159L23.053 32.4348L27.952 58.0489" stroke="#F09236" stroke-width="2" stroke-linecap="round" stroke-linejoin="round"/>
<path d="M23.2172 65.2328H38.6925" stroke="#DEC8A7" stroke-width="2" stroke-linecap="round" stroke-linejoin="round"/>
<path d="M23.2172 69.7783H38.6925" stroke="#DEC8A7" stroke-width="2" stroke-linecap="round" stroke-linejoin="round"/>
</svg>
