<svg width="76" height="80" viewBox="0 0 76 80" fill="none" xmlns="http://www.w3.org/2000/svg">
<mask id="path-1-inside-1_378_2563" fill="white">
<path fill-rule="evenodd" clip-rule="evenodd" d="M37.5576 0L0.37793 13.2213L6.05944 62.3164L37.5576 79.7686L69.5564 62.0814L75.7385 12.9862L37.5576 0ZM14.4495 60.7595L37.6167 9.31371L61.9028 60.9063L53.631 60.7595L48.5382 49.007H27.7553L23.104 60.6126L14.4495 60.7595ZM45.5061 42.1319L37.6758 25.7964L30.7871 42.1319H45.5061Z"/>
</mask>
<path d="M0.37793 13.2213L0.0428775 12.2791L-0.706924 12.5458L-0.615441 13.3363L0.37793 13.2213ZM37.5576 0L37.8796 -0.946737L37.5503 -1.05875L37.2225 -0.9422L37.5576 0ZM6.05944 62.3164L5.06606 62.4314L5.12516 62.942L5.57479 63.1912L6.05944 62.3164ZM37.5576 79.7686L37.0729 80.6433L37.557 80.9115L38.0413 80.6438L37.5576 79.7686ZM69.5564 62.0814L70.0401 62.9566L70.485 62.7107L70.5485 62.2063L69.5564 62.0814ZM75.7385 12.9862L76.7307 13.1112L76.8325 12.3021L76.0605 12.0395L75.7385 12.9862ZM37.6167 9.31371L38.5215 8.88781L37.5966 6.923L36.7049 8.9031L37.6167 9.31371ZM14.4495 60.7595L13.5377 60.3488L12.8905 61.7861L14.4665 61.7593L14.4495 60.7595ZM61.9028 60.9063L61.8851 61.9062L63.4922 61.9347L62.8076 60.4804L61.9028 60.9063ZM53.631 60.7595L52.7135 61.1571L52.9695 61.7479L53.6133 61.7593L53.631 60.7595ZM48.5382 49.007L49.4558 48.6094L49.1947 48.007H48.5382V49.007ZM27.7553 49.007V48.007H27.0788L26.8271 48.635L27.7553 49.007ZM23.104 60.6126L23.121 61.6124L23.7851 61.6012L24.0322 60.9846L23.104 60.6126ZM37.6758 25.7964L38.5776 25.3641L37.6175 23.3612L36.7544 25.4078L37.6758 25.7964ZM45.5061 42.1319V43.1319H47.0944L46.4079 41.6996L45.5061 42.1319ZM30.7871 42.1319L29.8657 41.7433L29.2801 43.1319H30.7871V42.1319ZM0.712982 14.1635L37.8926 0.9422L37.2225 -0.9422L0.0428775 12.2791L0.712982 14.1635ZM7.05281 62.2015L1.3713 13.1064L-0.615441 13.3363L5.06606 62.4314L7.05281 62.2015ZM38.0422 78.8939L6.54408 61.4417L5.57479 63.1912L37.0729 80.6433L38.0422 78.8939ZM69.0726 61.2062L37.0738 78.8934L38.0413 80.6438L70.0401 62.9566L69.0726 61.2062ZM74.7463 12.8613L68.5642 61.9564L70.5485 62.2063L76.7307 13.1112L74.7463 12.8613ZM37.2356 0.946737L75.4165 13.933L76.0605 12.0395L37.8796 -0.946737L37.2356 0.946737ZM36.7049 8.9031L13.5377 60.3488L15.3613 61.1701L38.5285 9.72432L36.7049 8.9031ZM62.8076 60.4804L38.5215 8.88781L36.712 9.73961L60.9981 61.3322L62.8076 60.4804ZM53.6133 61.7593L61.8851 61.9062L61.9206 59.9065L53.6488 59.7596L53.6133 61.7593ZM47.6207 49.4046L52.7135 61.1571L54.5486 60.3618L49.4558 48.6094L47.6207 49.4046ZM27.7553 50.007H48.5382V48.007H27.7553V50.007ZM24.0322 60.9846L28.6835 49.379L26.8271 48.635L22.1758 60.2406L24.0322 60.9846ZM14.4665 61.7593L23.121 61.6124L23.087 59.6127L14.4325 59.7596L14.4665 61.7593ZM36.7741 26.2286L44.6044 42.5641L46.4079 41.6996L38.5776 25.3641L36.7741 26.2286ZM31.7085 42.5204L38.5973 26.185L36.7544 25.4078L29.8657 41.7433L31.7085 42.5204ZM45.5061 41.1319H30.7871V43.1319H45.5061V41.1319Z" fill="url(#paint0_linear_378_2563)" mask="url(#path-1-inside-1_378_2563)"/>
<defs>
<linearGradient id="paint0_linear_378_2563" x1="10.3951" y1="13.3701" x2="65.5343" y2="70.8861" gradientUnits="userSpaceOnUse">
<stop stop-color="#DEC8A7"/>
<stop offset="0.301806" stop-color="#F3963A"/>
<stop offset="0.645833" stop-color="#E37B00"/>
<stop offset="1" stop-color="#B03B31"/>
</linearGradient>
</defs>
</svg>
