<svg width="58" height="84" viewBox="0 0 58 84" fill="none" xmlns="http://www.w3.org/2000/svg">
<path d="M16.7081 7.68756V8.18756H17.2081H21.7896V10.9538H14.0558V0.654541H21.7891V3.42105H17.2081H16.7081V3.92105V7.68756ZM29.6175 7.52341V7.02341H29.1175H24.5358L24.536 0.654541H32.2696V2.92975H27.6883H27.1883V3.42975V4.08474V4.58474H27.6883H32.2696V11.1178H24.5363V8.6784H29.1175H29.6175V8.1784V7.52341ZM40.0978 7.52341V7.02341H39.5978H35.0167V0.654541H42.7501V2.92975H38.1688H37.6688V3.42975V4.08474V4.58474H38.1688H42.7501V11.1178H35.0165V8.6784H39.5978H40.0978V8.1784V7.52341ZM12.1653 51.5573L12.2049 52.014H12.6634L37.1093 52.014L36.3492 60.7698L28.7685 62.8804L21.2059 60.7745L20.7224 55.1892L20.6828 54.7323H20.2242H12.9856H12.4405L12.4874 55.2754L13.4976 66.9517L13.5273 67.2945L13.8581 67.3893L28.6292 71.6177L28.7655 71.6568L28.9019 71.6185L28.9351 71.6091L29.3 71.5067V71.5035L43.6951 67.3894L44.0262 67.2947L44.0559 66.9517L45.8589 46.1184L45.859 46.1176L46.0348 44.1215L46.0349 44.1207L47.3365 29.0693L47.3835 28.5262H46.8384L10.7185 28.5262H10.1725L10.2204 29.0701L10.8759 36.5065L10.9161 36.9626H11.3739L38.391 36.9626L37.821 43.5776L12.0172 43.5776H11.4719L11.5191 44.1209L12.1653 51.5573ZM28.7649 83.4794L5.71055 76.8792L0.545093 17.1321H57.0549L51.8841 76.8697L28.7649 83.4794Z" stroke="url(#paint0_linear_378_2543)"/>
<defs>
<linearGradient id="paint0_linear_378_2543" x1="7.65636" y1="14.2079" x2="63.5175" y2="56.5792" gradientUnits="userSpaceOnUse">
<stop stop-color="#DEC8A7"/>
<stop offset="0.301806" stop-color="#F3963A"/>
<stop offset="0.645833" stop-color="#E37B00"/>
<stop offset="1" stop-color="#B03B31"/>
</linearGradient>
</defs>
</svg>
