<svg width="60" height="84" viewBox="0 0 60 84" fill="none" xmlns="http://www.w3.org/2000/svg">
<path d="M9.87422 6.98429H9.37422V7.48429V10.7521H6.60794V0.5H9.37399V3.71573V4.21573H9.87399H13.3193H13.8193V3.71573V0.5H16.5858V10.7521H13.8196V7.48429V6.98429H13.3196H9.87422ZM22.5384 3.73144L22.5384 3.23148H22.0384H19.2232V0.5H28.6226V3.23148H25.8054H25.3054V3.73148V10.7521H22.5391L22.5384 3.73144ZM39.8098 0.5H42.9579V10.7521H40.207V5.67497V3.98319L39.2873 5.40316L37.0832 8.80629L34.8777 5.40304L33.9581 3.98408V5.67497V10.7521H31.273V0.5H34.4197L36.6892 4.2144L37.116 4.91304L37.5426 4.21422L39.8098 0.5ZM48.5997 7.53295V8.03295H49.0997H53.8962V10.7521H45.832L45.8322 0.5H48.5997V7.53295ZM13.615 51.6125L38.7534 51.6125L37.9729 60.3185L30.1663 62.4226L22.3805 60.3233L21.8839 54.7684L21.8432 54.3129H21.3859H13.9461H13.3995L13.4481 54.8574L14.4863 66.4775L14.5171 66.8224L14.8508 66.9149L30.0322 71.123L30.1644 71.1597L30.2967 71.1237L30.3309 71.1145L30.6998 71.0143V71.0109L45.5007 66.9149L45.8346 66.8225L45.8654 66.4775L47.7185 45.7444L47.7186 45.7436L47.8993 43.7571L47.9489 43.2118H47.4014L20.8502 43.2119L20.2622 36.6335L48.0757 36.6335H48.5329L48.5737 36.1781L49.2372 28.7775L49.286 28.2328H48.7392L11.616 28.2329H11.0694L11.118 28.7773L13.117 51.157L13.1576 51.6125H13.615ZM6.45486 76.3505L1.14661 16.8984H59.2533L53.9396 76.3411L30.1639 82.923L6.45486 76.3505Z" stroke="url(#paint0_linear_378_2548)"/>
<defs>
<linearGradient id="paint0_linear_378_2548" x1="8.46901" y1="13.9858" x2="64.5194" y2="57.8926" gradientUnits="userSpaceOnUse">
<stop stop-color="#DEC8A7"/>
<stop offset="0.301806" stop-color="#F3963A"/>
<stop offset="0.645833" stop-color="#E37B00"/>
<stop offset="1" stop-color="#B03B31"/>
</linearGradient>
</defs>
</svg>
