<svg width="80" height="80" viewBox="0 0 80 80" fill="none" xmlns="http://www.w3.org/2000/svg">
<path d="M20.7765 66.2962L20.3901 66.5296L20.5829 66.9378C22.4277 70.8433 26.082 74.084 32.3118 74.084C35.7253 74.084 38.6698 73.177 40.7635 71.2081C42.8627 69.2341 44.0356 66.2598 44.0356 62.2751V36.6567V36.1567H43.5356H36.0178H35.5178V36.6567V62.169C35.5178 63.9926 35.1363 65.0109 34.5736 65.5831C34.0153 66.1509 33.1747 66.3848 31.9897 66.3848C30.8368 66.3848 30.0455 65.9973 29.3946 65.3773C28.7188 64.7336 28.1887 63.8359 27.5921 62.7804L27.3389 62.3323L26.8983 62.5984L20.7765 66.2962ZM47.3689 65.4872L46.959 65.7241L47.1731 66.1463C49.4625 70.6612 54.1489 74.085 61.3122 74.085C64.9635 74.085 68.198 73.1402 70.5311 71.283C72.8775 69.4152 74.2706 66.6555 74.2706 63.1334C74.2706 59.8878 73.3336 57.4968 71.5386 55.5708C69.7655 53.6684 67.1864 52.255 63.9788 50.8828L63.9788 50.8828L62.1013 50.0799C62.101 50.0797 62.1007 50.0796 62.1004 50.0795C60.4824 49.3796 59.4034 48.8319 58.7219 48.2123C58.0809 47.6295 57.7847 46.9763 57.7847 45.9826C57.7847 45.2046 58.0801 44.5361 58.5971 44.059C59.1158 43.5803 59.8883 43.267 60.8828 43.267C61.8811 43.267 62.6654 43.477 63.3452 43.9274C64.0332 44.3833 64.6564 45.1133 65.2792 46.2267L65.5384 46.6901L65.9854 46.4036L71.8391 42.6515L72.2385 42.3955L72.0039 41.9833C70.7316 39.747 69.1925 38.172 67.3307 37.1616C65.4722 36.153 63.33 35.7275 60.8831 35.7275C57.4191 35.7275 54.5396 36.8353 52.5213 38.7085C50.5014 40.583 49.3743 43.197 49.3743 46.1433C49.3743 49.309 50.3113 51.6815 51.9775 53.5568C53.6284 55.4148 55.9647 56.7496 58.7001 57.9115C58.7003 57.9116 58.7005 57.9117 58.7007 57.9118L60.5753 58.7145C60.5757 58.7147 60.5762 58.715 60.5767 58.7152C62.3159 59.4743 63.6161 60.051 64.4943 60.7397C64.9234 61.0761 65.2325 61.4259 65.4367 61.8182C65.6398 62.2082 65.7528 62.6665 65.7528 63.2404C65.7528 64.1414 65.3417 64.9218 64.5725 65.4919C63.7935 66.0692 62.6309 66.4388 61.1512 66.4388C59.3929 66.4388 58.0425 65.9833 56.9425 65.2328C55.8344 64.4767 54.9522 63.402 54.1664 62.1215L53.9118 61.7064L53.4901 61.95L47.3689 65.4872ZM0.5 0.5H79.5V79.345H0.5V0.5Z" stroke="url(#paint0_linear_378_2557)"/>
<defs>
<linearGradient id="paint0_linear_378_2557" x1="10.6338" y1="13.3829" x2="65.5944" y2="74.1838" gradientUnits="userSpaceOnUse">
<stop stop-color="#DEC8A7"/>
<stop offset="0.301806" stop-color="#F3963A"/>
<stop offset="0.645833" stop-color="#E37B00"/>
<stop offset="1" stop-color="#B03B31"/>
</linearGradient>
</defs>
</svg>
