<svg width="80" height="91" viewBox="0 0 80 91" fill="none" xmlns="http://www.w3.org/2000/svg">
<path d="M43.3546 1.53573L43.3581 1.53771C47.9052 4.15665 52.4528 6.77388 57.0003 9.39104L57.0173 9.4008C63.4532 13.1047 69.8888 16.8085 76.3226 20.517L76.3234 20.5175C78.2362 21.6157 79.5192 23.7941 79.4997 26.0368V26.0411L79.4997 64.1157L79.4997 64.1188C79.5139 66.451 78.1057 68.6846 76.0816 69.7612L76.0744 69.765L76.0673 69.7691C70.306 73.08 64.5463 76.3929 58.7869 79.7058L58.7866 79.7059L58.7121 79.7488C53.5482 82.7191 48.3845 85.6892 43.22 88.6576L43.2174 88.6591C41.1532 89.8622 38.4517 89.7715 36.445 88.4653L36.436 88.4594L36.4266 88.4539C34.6434 87.4002 32.8586 86.3494 31.0743 85.2988L31.0623 85.2918L31.0336 85.2749C29.5461 84.3991 28.0591 83.5236 26.5731 82.6465C26.4277 82.5582 26.2796 82.4743 26.1387 82.3944L26.1349 82.3923C25.7321 82.164 25.3875 81.9642 25.114 81.7152C25.2936 81.61 25.5264 81.531 25.8287 81.436L25.8377 81.4332C26.0008 81.382 26.1852 81.3241 26.3637 81.2517C27.6897 80.8194 28.9078 80.1487 30.0726 79.5073L30.0922 79.4966L30.3206 79.3709L30.344 79.358L30.3659 79.3428C30.4139 79.3092 30.467 79.2955 30.5388 79.303C30.618 79.3113 30.7169 79.3468 30.8192 79.4134L30.8294 79.42L30.8398 79.4261C32.0375 80.1261 33.2308 80.8349 34.4261 81.5447L34.4272 81.5454C36.0279 82.4962 37.632 83.4489 39.2478 84.381C39.6587 84.6221 40.072 84.6083 40.4224 84.5048C40.7402 84.411 41.0359 84.2338 41.2556 84.1022L41.2767 84.0897L41.0199 83.6606L41.2767 84.0897C41.3467 84.0478 41.4094 84.0103 41.4697 83.976L41.4722 83.9745C46.5949 81.0234 51.7207 78.0775 56.8466 75.1315L56.8524 75.1282L56.8597 75.124C62.4781 71.895 68.0967 68.6659 73.7112 65.4299C74.2954 65.1347 74.5977 64.5148 74.5605 63.9023C74.5653 55.928 74.5648 47.9527 74.5642 39.9779V39.9439C74.5639 35.3813 74.5636 30.819 74.5643 26.2569C74.6178 25.55 74.2182 24.9104 73.6074 24.618C67.5197 21.1235 61.4337 17.6259 55.3477 14.1283L55.3179 14.1112C50.5154 11.3512 45.7128 8.59121 40.9095 5.83275C40.6414 5.6508 40.3254 5.55272 40.001 5.55223C39.6764 5.55175 39.3599 5.64904 39.0911 5.8305C34.2565 8.60778 29.423 11.3874 24.5898 14.1668C18.5255 17.6542 12.4617 21.1414 6.39607 24.6237C5.79927 24.9104 5.37247 25.5366 5.43574 26.2601C5.43699 34.6254 5.43658 42.9918 5.43616 51.3584C5.43595 55.5391 5.43574 59.72 5.43574 63.9008C5.41348 64.2095 5.48201 64.5186 5.63365 64.7888C5.78593 65.06 6.01536 65.28 6.29341 65.4189C8.21393 66.5289 10.136 67.6338 12.0575 68.7383L12.0625 68.7412C13.0488 69.3082 14.035 69.8751 15.0209 70.4426L15.0208 70.4427L15.0298 70.4477C16.7271 71.3789 18.9046 71.9873 20.9109 71.2233C22.7093 70.5641 23.9519 68.7117 23.92 66.7803C23.9272 60.8352 23.9258 54.8897 23.9244 48.9448C23.9229 42.4039 23.9214 35.8638 23.9313 29.3248L23.9313 29.3065L23.93 29.2882C23.914 29.0651 24.1443 28.8376 24.3869 28.8615L24.4131 28.8641L24.4395 28.8639C25.8395 28.8543 27.2347 28.8448 28.627 28.8677L28.6368 28.8679L28.6467 28.8677C28.7516 28.8652 28.8548 28.9141 28.9394 29.026C29.0278 29.1428 29.0717 29.3012 29.053 29.4456L29.0489 29.4774L29.0489 29.5095C29.0468 34.139 29.0483 38.7685 29.0498 43.3978V43.3981C29.0524 51.3347 29.0549 59.2706 29.0395 67.2064L29.0395 67.2079C29.0431 70.4566 27.7319 73.8798 24.919 75.3977C21.3521 77.2802 16.9015 76.8953 13.3125 75.0559L13.3111 75.0552C11.3319 74.0483 9.40694 72.9273 7.46744 71.7978L7.21581 72.2298L7.46744 71.7978L7.46536 71.7966C6.29306 71.1138 5.11544 70.428 3.92428 69.767L3.92433 69.7669L3.91499 69.762C1.8882 68.6927 0.486054 66.4511 0.50027 64.1191V64.1161L0.500292 26.0411L0.500249 26.0365C0.479064 23.747 1.81338 21.5288 3.78562 20.4467L3.78567 20.4467L3.79441 20.4417C12.0495 15.6931 20.3035 10.9417 28.5571 6.1905L36.6399 1.53778L36.6425 1.53631C38.6735 0.351315 41.3276 0.346687 43.3546 1.53573ZM59.8849 30.128L59.8868 30.129C63.0057 31.8516 64.7826 35.4894 64.8581 39.1003C64.8035 39.2708 64.5889 39.4295 64.3055 39.4087L64.2876 39.4074L64.2697 39.4074C63.8306 39.4068 63.3917 39.4085 62.9544 39.4101C62.0052 39.4138 61.0632 39.4174 60.1223 39.3979L60.1073 39.3976L60.0923 39.3982C59.9805 39.4025 59.8889 39.36 59.8015 39.2552C59.7051 39.1397 59.6308 38.9623 59.604 38.7698L59.6012 38.7502L59.597 38.7309C59.1816 36.85 58.1585 34.9018 56.3128 33.9377L56.3086 33.9355C53.7101 32.6094 50.7298 32.6396 48.047 32.6668L47.9899 32.6674L47.7714 32.6696L47.7603 32.6697L47.7492 32.6703C45.7316 32.7795 43.4006 32.9562 41.5435 34.2695C39.9999 35.348 39.5807 37.463 40.1013 39.1184L40.1078 39.1391L40.1161 39.1592C40.3855 39.8116 40.8753 40.2342 41.3961 40.5274C41.9001 40.8112 42.4685 40.9926 42.9416 41.1435L42.9625 41.1502L43.0908 41.1912L43.1027 41.195L43.1148 41.1983C45.6605 41.8769 48.2673 42.2288 50.8368 42.5756L50.8523 42.5777C54.1845 43.0274 57.4539 43.4705 60.5746 44.5867L60.5769 44.5875C62.8415 45.3851 64.9577 46.9028 65.6902 49.1853C66.6959 52.4005 66.2387 56.204 64.0436 58.7286L64.0413 58.7314C62.2465 60.8261 59.6079 61.9922 56.9104 62.6332C53.3252 63.4477 49.5902 63.4716 45.9114 63.1064C42.4541 62.7042 38.9487 61.7851 36.3703 59.4655L36.3673 59.4628C34.1938 57.5392 33.11 54.5168 33.216 51.5727C33.2277 51.3853 33.4398 51.1889 33.6928 51.211L33.7166 51.2131L33.7404 51.2129C35.1341 51.2014 36.5256 51.1976 37.9161 51.2148L37.9374 51.215L37.9587 51.2135C38.0706 51.2053 38.1722 51.2467 38.2588 51.3372C38.3502 51.4328 38.414 51.5752 38.4221 51.7272L38.4234 51.751L38.4269 51.7747C38.6907 53.5346 39.3543 55.512 40.9968 56.6503L40.9967 56.6504L41.0068 56.6571C43.7274 58.4462 47.0582 58.4838 50.0257 58.5173L50.0934 58.5181C50.37 58.5212 50.6437 58.5243 50.9149 58.5286L50.9302 58.5289L50.9455 58.5282C51.0774 58.5222 51.2102 58.5165 51.3442 58.5107L51.3657 58.5097L51.4411 58.5065C53.9667 58.3973 56.9355 58.269 59.1467 56.4435L59.1541 56.4373L59.1613 56.4309C60.4892 55.2458 60.8448 53.3138 60.5061 51.7039L60.5032 51.6901L60.4995 51.6765C60.2905 50.9023 59.7906 50.3532 59.2233 49.9572C58.6619 49.5653 58.0096 49.3053 57.4447 49.11L57.4448 49.1099L57.4348 49.1066C54.6759 48.2171 51.8127 47.9067 49.0094 47.6028L48.9848 47.6002C45.8831 47.2639 42.8546 46.9332 39.9792 45.8745L39.9759 45.8733C37.7656 45.0771 35.7127 43.6003 34.9057 41.4022C33.7344 38.1628 34.2887 34.1902 36.7051 31.7596L36.7086 31.756C39.0979 29.3042 42.5794 28.3293 45.9849 27.9772C50.7435 27.6656 55.7251 27.8067 59.8849 30.128Z" stroke="url(#paint0_linear_378_2570)"/>
<defs>
<linearGradient id="paint0_linear_378_2570" x1="10.6338" y1="15.2074" x2="72.795" y2="76.3096" gradientUnits="userSpaceOnUse">
<stop stop-color="#DEC8A7"/>
<stop offset="0.301806" stop-color="#F3963A"/>
<stop offset="0.645833" stop-color="#E37B00"/>
<stop offset="1" stop-color="#B03B31"/>
</linearGradient>
</defs>
</svg>
