<svg width="106" height="56" viewBox="0 0 106 56" fill="none" xmlns="http://www.w3.org/2000/svg">
<path d="M20.6139 14.1971H20.2032L20.1235 14.6L14.3369 43.8143L14.2186 44.4115H14.8274H21.6988H22.1123L22.1899 44.0053L23.559 36.8374H29.6398C35.0782 37.1491 41.0111 33.4202 42.7011 26.8377L40.8388 36.2402L40.7205 36.8374H41.3293H48.2007H48.6104L48.6909 36.4357L51.865 20.6073H56.8801C58.1235 20.6073 58.4841 20.8816 58.611 21.1136C58.6863 21.2514 58.7293 21.4542 58.7195 21.7652C58.7096 22.0758 58.6493 22.4468 58.5596 22.8945L58.5586 22.8996L56.0271 36.2442L55.9146 36.8374H56.5183H63.7511H64.1728L64.2439 36.4218L66.7743 21.6412C67.1589 19.7136 66.7769 17.9156 65.4668 16.5589C64.1717 15.2176 62.0411 14.3827 59.0806 14.1981L59.065 14.1971H59.0494H53.1447L54.4779 7.21725L54.5914 6.62345H53.9868H47.1154H46.7047L46.6249 7.0263L43.018 25.2373C43.12 24.5177 43.1736 23.7691 43.1736 22.9928C43.1736 20.3705 42.4196 18.2424 40.8511 16.727C39.2901 15.2188 36.9895 14.3829 34.0253 14.1981L34.0098 14.1971H33.9942H20.6139ZM69.074 14.1971H68.6633L68.5835 14.6L62.7974 43.8143L62.6791 44.4115H63.2879H70.1589H70.5724L70.65 44.0053L72.0191 36.8374H78.1007C84.5224 37.2055 91.6345 31.939 91.6345 22.9928C91.6345 20.3705 90.8806 18.2424 89.312 16.727C87.7509 15.2188 85.4502 14.3829 82.4858 14.1981L82.4703 14.1971H82.4547H69.074ZM25.1822 30.4276L26.8234 20.6073H31.1013C32.3057 20.6073 33.277 20.8661 33.9326 21.3276C34.5629 21.7713 34.9369 22.4249 34.9408 23.3388C34.7625 26.325 33.9746 27.9773 32.9325 28.9366C31.8858 29.9003 30.4956 30.249 28.9038 30.4276H25.1822ZM73.6423 30.4276L75.2835 20.6073H79.5618C80.7662 20.6073 81.7375 20.8661 82.3931 21.3276C83.0234 21.7714 83.3975 22.4249 83.4013 23.3389C83.223 26.3251 82.4351 27.9773 81.393 28.9366C80.3463 29.9003 78.9561 30.249 77.3643 30.4276H73.6423ZM105.1 27.6814C105.1 34.9691 99.3999 41.6907 89.9049 46.62C80.4346 51.5364 67.3169 54.5922 52.8 54.5922C38.2831 54.5922 25.1654 51.5364 15.6951 46.62C6.20007 41.6907 0.5 34.9691 0.5 27.6814C0.5 20.3936 6.20007 13.672 15.6951 8.74272C25.1654 3.82629 38.2831 0.770508 52.8 0.770508C67.3169 0.770508 80.4346 3.82629 89.9049 8.74272C99.3999 13.672 105.1 20.3936 105.1 27.6814Z" stroke="url(#paint0_linear_378_2575)"/>
<defs>
<linearGradient id="paint0_linear_378_2575" x1="14.0367" y1="9.45924" x2="43.2463" y2="71.5825" gradientUnits="userSpaceOnUse">
<stop stop-color="#DEC8A7"/>
<stop offset="0.301806" stop-color="#F3963A"/>
<stop offset="0.645833" stop-color="#E37B00"/>
<stop offset="1" stop-color="#B03B31"/>
</linearGradient>
</defs>
</svg>
