<svg width="80" height="81" viewBox="0 0 80 81" fill="none" xmlns="http://www.w3.org/2000/svg">
<path d="M29.0254 5.88501C29.5499 5.88459 30.0692 5.98892 30.5534 6.19187C31.0378 6.39487 31.4775 6.69246 31.8476 7.0673C32.2176 7.44212 32.5106 7.88683 32.7103 8.3758C32.9099 8.86463 33.0124 9.38832 33.012 9.91695M29.0254 5.88501C28.501 5.88459 27.9817 5.98892 27.4975 6.19187C27.0131 6.39487 26.5734 6.69246 26.2033 7.0673C25.8333 7.44212 25.5402 7.88683 25.3406 8.3758C25.1409 8.86463 25.0385 9.38831 25.0389 9.91694M29.0254 5.88501C29.0256 5.88501 29.0257 5.88501 29.0259 5.88501L29.0254 6.38501L29.025 5.88501C29.0251 5.88501 29.0253 5.88501 29.0254 5.88501ZM33.012 9.91695C33.0124 10.4456 32.9099 10.9693 32.7103 11.4581C32.5106 11.9471 32.2176 12.3918 31.8476 12.7666C31.4775 13.1414 31.0378 13.439 30.5534 13.642C30.0692 13.845 29.5499 13.9493 29.0254 13.9489M33.012 9.91695C33.012 9.9171 33.012 9.91724 33.012 9.91738L32.512 9.91694L33.012 9.91649C33.012 9.91665 33.012 9.9168 33.012 9.91695ZM29.0254 13.9489C28.501 13.9493 27.9817 13.845 27.4975 13.642C27.0131 13.439 26.5734 13.1414 26.2033 12.7666C25.8333 12.3918 25.5402 11.9471 25.3406 11.4581C25.1409 10.9692 25.0385 10.4456 25.0389 9.91694M29.0254 13.9489C29.0253 13.9489 29.0251 13.9489 29.025 13.9489L29.0254 13.4489L29.0259 13.9489C29.0257 13.9489 29.0256 13.9489 29.0254 13.9489ZM25.0389 9.91694C25.0389 9.91679 25.0389 9.91664 25.0389 9.91649L25.5389 9.91694L25.0389 9.91738C25.0389 9.91724 25.0389 9.91709 25.0389 9.91694ZM50.9749 75.0739C50.4504 75.0743 49.9312 74.97 49.4469 74.767C48.9625 74.564 48.5228 74.2664 48.1528 73.8916C47.7827 73.5168 47.4897 73.0721 47.29 72.5831C47.0904 72.0943 46.9879 71.5706 46.9883 71.042M50.9749 75.0739C51.4996 75.0743 52.0188 74.9696 52.5028 74.7667C52.9872 74.5637 53.4269 74.2661 53.797 73.8913C54.167 73.5165 54.4601 73.0718 54.6597 72.5828C54.8594 72.0939 54.9618 71.5703 54.9614 71.0416M50.9749 75.0739C50.9747 75.0739 50.9746 75.0739 50.9744 75.0739L50.9749 74.5739L50.9753 75.0739C50.9752 75.0739 50.975 75.0739 50.9749 75.0739ZM46.9883 71.042C46.9879 70.5133 47.0903 69.9896 47.2899 69.5008C47.4895 69.0117 47.7826 68.567 48.1526 68.1921C48.5226 67.8172 48.9624 67.5196 49.4468 67.3166C49.9311 67.1136 50.4504 67.0093 50.9749 67.0097M46.9883 71.042C46.9883 71.0418 46.9883 71.0417 46.9883 71.0415L47.4883 71.042L46.9883 71.0424C46.9883 71.0423 46.9883 71.0422 46.9883 71.042ZM50.9749 67.0097C51.4993 67.0093 52.0186 67.1136 52.5028 67.3166C52.9873 67.5196 53.427 67.8172 53.797 68.192C54.167 68.5668 54.4601 69.0115 54.6597 69.5005C54.8594 69.9893 54.9618 70.513 54.9614 71.0416M50.9749 67.0097C50.975 67.0097 50.9752 67.0097 50.9753 67.0097L50.9749 67.5097L50.9744 67.0097C50.9746 67.0097 50.9747 67.0097 50.9749 67.0097ZM54.9614 71.0416C54.9614 71.0418 54.9614 71.0419 54.9614 71.0421L54.4614 71.0416L54.9614 71.0412C54.9614 71.0413 54.9614 71.0415 54.9614 71.0416ZM21.1709 9.0897L21.1708 9.05496L21.1663 9.02351L21.1663 9.02329L21.1662 9.02289L21.1662 9.02278L21.1662 9.02232L21.1651 9.01291C21.164 9.00223 21.1622 8.98364 21.1605 8.95767C21.1571 8.90569 21.1538 8.82432 21.156 8.71779C21.1603 8.5046 21.1865 8.19175 21.2766 7.8123C21.4557 7.05714 21.89 6.02668 22.9297 4.98284C25.0139 2.89037 29.6121 0.669067 39.7119 0.669067C50.2532 0.669067 54.9716 3.34091 57.0792 5.86782C58.1359 7.13483 58.563 8.39489 58.7283 9.33213C58.8111 9.80167 58.8282 10.1905 58.8251 10.4581C58.8236 10.5918 58.817 10.6948 58.8112 10.7621C58.8083 10.7957 58.8055 10.8203 58.8037 10.8353L58.8018 10.8505L58.8018 10.8507L58.8017 10.8515L58.8016 10.8521L58.8015 10.8525L58.7961 10.8882V10.9261V28.7006C58.7961 31.3002 58.1447 33.2045 57.1946 34.6075C56.2425 36.0136 54.9691 36.9472 53.6795 37.5679C52.3878 38.1897 51.0897 38.4925 50.11 38.639C49.6214 38.7121 49.2153 38.7458 48.9333 38.7612C48.7923 38.7689 48.6826 38.772 48.6094 38.7733C48.5728 38.7739 48.5454 38.774 48.5277 38.774L48.5086 38.7739L48.5047 38.7739L48.5047 38.7738H48.4965H29.2745C26.3058 38.7738 24.0665 39.5151 22.3867 40.6556C20.7097 41.7941 19.6222 43.3085 18.9184 44.8066C18.2156 46.3024 17.8905 47.7916 17.7401 48.902C17.6648 49.4585 17.6328 49.9232 17.6197 50.2508C17.6132 50.4147 17.6114 50.5445 17.6112 50.6346C17.6112 50.6797 17.6115 50.7148 17.6119 50.7393L17.6124 50.7681L17.6125 50.7711V59.8975H11.343H11.3268L11.3122 59.8985L11.3119 59.8985L11.3114 59.8985L11.3106 59.8986L11.3097 59.8986L11.2928 59.8993C11.2764 59.8999 11.2498 59.9006 11.2137 59.9007C11.1414 59.901 11.0312 59.8991 10.8885 59.8897C10.6028 59.8709 10.1881 59.8222 9.68742 59.702C8.68701 59.4618 7.34379 58.9362 5.99537 57.7898C3.31036 55.5071 0.5 50.6679 0.5 40.3747C0.5 30.1023 3.70935 25.47 6.78011 23.3703C8.32882 22.3114 9.87776 21.8706 11.04 21.6947C11.6208 21.6068 12.1031 21.5854 12.437 21.5857C12.6038 21.5858 12.7333 21.5914 12.8191 21.5967C12.862 21.5993 12.8939 21.6019 12.9141 21.6037L12.9355 21.6057L12.9387 21.606L12.9393 21.6061L12.9394 21.6061L12.9396 21.6062L12.9671 21.6093H12.9958H40.074H40.574V21.1093V18.3342V17.8342H40.074H21.1922L21.1709 9.0897ZM58.8294 71.8686L58.8295 71.9033L58.834 71.935L58.8341 71.9354L58.8341 71.9359L58.8343 71.9367L58.8344 71.9377L58.8352 71.9454C58.8363 71.956 58.8381 71.9746 58.8398 72.0006C58.8432 72.0526 58.8465 72.1339 58.8443 72.2405C58.84 72.4537 58.8138 72.7665 58.7237 73.146C58.5446 73.9011 58.1103 74.9316 57.0706 75.9754C54.9864 78.0679 50.3882 80.2892 40.2884 80.2892C29.7472 80.2892 25.0288 77.6174 22.9211 75.0906C21.8643 73.8236 21.4371 72.5636 21.2717 71.6264C21.1889 71.1569 21.1718 70.768 21.1749 70.5005C21.1764 70.3668 21.183 70.2637 21.1888 70.1965C21.1917 70.1629 21.1944 70.1382 21.1963 70.1232L21.1982 70.1081L21.1982 70.1079L21.1983 70.1071L21.1984 70.1065L21.1985 70.1061L21.2039 70.0704V70.0325V52.2576C21.2039 49.6579 21.8553 47.7535 22.8053 46.3506C23.7575 44.9444 25.0309 44.0107 26.3205 43.39C27.6122 42.7682 28.9102 42.4654 29.89 42.3189C30.3786 42.2458 30.7847 42.2121 31.0667 42.1967C31.2077 42.189 31.3173 42.1858 31.3906 42.1846C31.4272 42.184 31.4546 42.1839 31.4723 42.1839L31.4914 42.1839L31.4952 42.184L31.4953 42.184H31.5034H50.7255C53.6942 42.184 55.9334 41.4428 57.6133 40.3023C59.2903 39.1638 60.3778 37.6494 61.0816 36.1513C61.7844 34.6555 62.1095 33.1663 62.2599 32.0559C62.3352 31.4994 62.3672 31.0346 62.3802 30.707C62.3868 30.5431 62.3886 30.4133 62.3888 30.3232C62.3888 30.3001 62.3887 30.2795 62.3886 30.2617C62.3885 30.2449 62.3883 30.2304 62.3881 30.2185L62.3876 30.1898L62.3875 30.1867V21.0607H68.657H68.6732L68.6878 21.0597L68.6881 21.0597L68.6886 21.0597L68.6893 21.0596L68.6903 21.0596L68.7072 21.0589C68.7236 21.0583 68.7502 21.0576 68.7863 21.0574C68.8586 21.0572 68.9688 21.0591 69.1115 21.0685C69.3972 21.0873 69.8119 21.1359 70.3126 21.2562C71.313 21.4964 72.6562 22.022 74.0046 23.1683C76.6896 25.451 79.5 30.2901 79.5 40.5832C79.5 50.8559 76.2906 55.4884 73.2199 57.5882C71.6712 58.6472 70.1222 59.0879 68.96 59.2638C68.3791 59.3517 67.8969 59.3731 67.563 59.3729C67.3962 59.3727 67.2667 59.3672 67.1809 59.3619C67.138 59.3593 67.1061 59.3567 67.0859 59.3549L67.0645 59.3528L67.0613 59.3525L67.0607 59.3524L67.0606 59.3524L67.0603 59.3524L67.0328 59.3493H67.0042H39.926H39.426V59.8493V62.6243V63.1243H39.926H58.8081L58.8294 71.8686Z" stroke="url(#paint0_linear_378_2580)"/>
<defs>
<linearGradient id="paint0_linear_378_2580" x1="10.6338" y1="13.6819" x2="66.1795" y2="74.5392" gradientUnits="userSpaceOnUse">
<stop stop-color="#DEC8A7"/>
<stop offset="0.301806" stop-color="#F3963A"/>
<stop offset="0.645833" stop-color="#E37B00"/>
<stop offset="1" stop-color="#B03B31"/>
</linearGradient>
</defs>
</svg>
