<svg width="90" height="80" viewBox="0 0 90 80" fill="none" xmlns="http://www.w3.org/2000/svg">
<mask id="path-1-inside-1_378_2552" fill="white">
<path d="M68.5486 49.4047C68.1137 49.5475 67.6671 49.6854 67.2121 49.819C66.2049 46.6592 64.8456 43.2989 63.1827 39.8277C64.7699 36.4385 66.0764 33.1215 67.0554 29.9819C67.8693 30.2157 68.6595 30.4618 69.4209 30.7218C76.7845 33.2339 81.276 36.9488 81.276 39.8109C81.276 42.8598 76.4246 46.818 68.5486 49.4047Z"/>
<path d="M65.2805 55.8233C66.0768 59.8101 66.1905 63.4146 65.663 66.2325C65.189 68.7644 64.236 70.4524 63.0577 71.1285C60.55 72.5673 55.187 70.6971 49.4038 65.7644C48.7407 65.199 48.0726 64.5951 47.4028 63.9564C49.645 61.5256 51.8858 58.6998 54.0727 55.5619C57.9197 55.2236 61.554 54.6704 64.8498 53.9154C65.0118 54.5646 65.1562 55.2009 65.2805 55.8233Z"/>
<path d="M32.2304 70.88C29.7804 71.7376 27.8291 71.762 26.6497 71.088C24.1395 69.6534 23.0964 64.1141 24.5195 56.6847C24.6887 55.8067 24.8825 54.9336 25.1006 54.0662C28.3598 54.7807 31.9677 55.2948 35.8238 55.6048C38.0252 58.6753 40.3308 61.4977 42.6543 63.9693C42.1605 64.4427 41.655 64.9041 41.1383 65.3529C38.0509 68.0279 34.9568 69.9253 32.2304 70.88Z"/>
<path d="M20.7525 49.3859C16.8724 48.0714 13.6681 46.3632 11.4716 44.4993C9.49815 42.8239 8.50154 41.1607 8.50154 39.8109C8.50154 36.9394 12.8215 33.2761 20.0263 30.7864C20.9306 30.4753 21.8439 30.1905 22.765 29.9323C23.761 33.1425 25.0671 36.4989 26.6434 39.893C25.0467 43.3377 23.7219 46.7475 22.7168 49.9953C22.0571 49.8082 21.4021 49.605 20.7525 49.3859Z"/>
<path d="M24.6001 23.4275C23.1045 15.8522 24.0976 10.138 26.5969 8.70418C29.2592 7.17676 35.1456 9.35479 41.3499 14.8149C41.7464 15.1639 42.1447 15.5294 42.5437 15.9074C40.2321 18.3678 37.9477 21.1689 35.7654 24.2216C32.023 24.5654 28.4404 25.1176 25.1471 25.8572C24.9442 25.0519 24.7618 24.242 24.6001 23.4275Z"/>
<path d="M58.9241 31.828C58.1462 30.4962 57.3394 29.1811 56.5044 27.8838C59.0434 28.2014 61.4758 28.6237 63.7599 29.1407C63.0743 31.3191 62.2196 33.5969 61.2131 35.932C60.4777 34.549 59.7146 33.1807 58.9241 31.828Z"/>
<path d="M44.9268 18.3151C46.4946 19.9985 48.0649 21.8785 49.6094 23.9179C46.4763 23.7712 43.3379 23.7705 40.2047 23.9158C41.7507 21.8952 43.3343 20.0181 44.9268 18.3151Z"/>
<path d="M30.8397 31.851C30.0591 33.193 29.3102 34.5529 28.5936 35.9296C27.6037 33.6025 26.7568 31.3145 26.0651 29.1051C28.3355 28.6014 30.7566 28.1899 33.2791 27.8775C32.4347 29.1829 31.6214 30.5077 30.8397 31.851Z"/>
<path d="M33.3517 51.9849C30.7457 51.6966 28.288 51.306 26.0183 50.8163C26.7209 48.5677 27.5865 46.2305 28.5975 43.8535C29.3171 45.2312 30.0693 46.5919 30.8534 47.9346C31.6536 49.3041 32.4866 50.6546 33.3517 51.9849Z"/>
<path d="M45.0208 61.5448C43.4097 59.8216 41.8028 57.9158 40.2332 55.8659C41.7566 55.9252 43.31 55.9552 44.8887 55.9552C46.5108 55.9552 48.1142 55.9193 49.6922 55.8495C48.1427 57.9368 46.5781 59.8453 45.0208 61.5448Z"/>
<path d="M61.2455 43.7324C62.309 46.1353 63.2056 48.4599 63.9177 50.6704C61.6103 51.1922 59.1195 51.6124 56.4949 51.9245C57.3359 50.6029 58.1504 49.2649 58.9378 47.9112C59.7382 46.5354 60.5076 45.1421 61.2455 43.7324Z"/>
<path fill-rule="evenodd" clip-rule="evenodd" d="M55.993 46.2281C54.7877 48.3035 53.5145 50.3395 52.1756 52.3329C49.8148 52.5 47.375 52.5863 44.8887 52.5863C42.4127 52.5863 40.0039 52.5098 37.6843 52.3608C36.3107 50.3721 35.0134 48.3325 33.7954 46.2466C32.583 44.1717 31.4506 42.052 30.4006 39.8919C31.4479 37.7312 32.5769 35.6103 33.7852 33.5337C34.993 31.4567 36.28 29.4266 37.6434 27.4464C40.0099 27.2691 42.4363 27.1763 44.8891 27.1763C47.3528 27.1763 49.7824 27.2698 52.1482 27.4485C53.4978 29.4257 54.7765 31.4494 55.9821 33.5159C57.1945 35.5879 58.3386 37.6984 59.4125 39.8441C58.3496 42.0116 57.2088 44.141 55.993 46.2281ZM51.9944 39.811C51.9944 35.9216 48.8133 32.7684 44.8889 32.7684C40.9647 32.7684 37.7833 35.9216 37.7833 39.811C37.7833 43.7008 40.9647 46.854 44.8889 46.854C48.8133 46.854 51.9944 43.7008 51.9944 39.811Z"/>
<path d="M63.0056 8.604C65.67 10.1272 66.7064 16.2693 65.0323 24.3242C64.9225 24.8489 64.8032 25.3717 64.6745 25.8921C61.3733 25.1371 57.7883 24.5752 54.035 24.2261C51.8485 21.1402 49.583 18.3343 47.3088 15.9056C47.9047 15.3362 48.5149 14.7815 49.1386 14.2421C55.0133 9.17469 60.5038 7.17397 63.0056 8.604Z"/>
<path fill-rule="evenodd" clip-rule="evenodd" d="M17.0245 56.2758C6.60757 52.7466 0 46.4858 0 39.779C0 33.2543 6.95903 27.4584 17.0245 23.9802C14.9376 13.4087 16.5698 4.89026 22.2903 1.6082C28.2231 -1.79568 36.402 0.495794 44.9314 8.00164C53.1296 0.930004 61.3902 -1.92238 67.116 1.35025C73.0552 4.74471 75.0051 12.9078 72.7037 24.0538C82.9804 27.5603 89.6 33.2277 89.6 39.779C89.6 46.5741 83.5309 51.9128 72.6808 55.4681C74.8184 66.1719 73.0376 75.1053 67.1812 78.4656C61.4832 81.7347 53.3177 79.0227 45.2381 72.1312C36.9493 79.3127 28.2164 81.6321 22.3547 78.2813C16.6519 75.0216 14.9442 66.6553 17.0245 56.2758ZM67.966 26.7358C68.8265 26.9811 69.6806 27.2478 70.5276 27.5358C79.1217 30.4681 84.6753 35.0615 84.6753 39.8109C84.6753 44.7642 78.7403 49.6072 69.618 52.6027C69.1359 52.7611 68.6418 52.9133 68.1382 53.0606C68.3178 53.7768 68.478 54.4802 68.6154 55.1688C70.4163 64.185 69.0295 71.5955 64.7613 74.0444C60.6287 76.4154 53.9497 74.0863 47.1868 68.3183C46.4517 67.6899 45.7344 67.0412 45.0358 66.3731C44.4811 66.9047 43.9272 67.4119 43.3753 67.89C36.3934 73.939 29.2234 76.4486 24.9514 74.007C20.8152 71.6423 19.5154 64.7441 21.1797 56.0564C21.3616 55.1123 21.57 54.1733 21.8048 53.2407C21.0821 53.0362 20.3646 52.8139 19.6531 52.574C10.878 49.6016 5.10253 44.6989 5.10253 39.8109C5.10253 35.0786 10.4828 30.5159 18.9072 27.6049C19.8489 27.2796 20.8332 26.9738 21.8523 26.6869C21.634 25.8212 21.4379 24.9502 21.2642 24.0746C19.5186 15.2334 20.7469 8.16769 24.8939 5.78826C29.2188 3.30691 36.4216 5.97151 43.6074 12.2955C44.0544 12.6897 44.494 13.0921 44.9259 13.5025C45.5709 12.8853 46.2315 12.2844 46.9072 11.7004C53.7637 5.78652 60.5527 3.3125 64.7036 5.6853C69.033 8.15932 70.3008 15.6749 68.3618 25.0041C68.2407 25.5837 68.1087 26.161 67.966 26.7358Z"/>
</mask>
<path d="M68.5486 49.4047C68.1137 49.5475 67.6671 49.6854 67.2121 49.819C66.2049 46.6592 64.8456 43.2989 63.1827 39.8277C64.7699 36.4385 66.0764 33.1215 67.0554 29.9819C67.8693 30.2157 68.6595 30.4618 69.4209 30.7218C76.7845 33.2339 81.276 36.9488 81.276 39.8109C81.276 42.8598 76.4246 46.818 68.5486 49.4047Z" stroke="url(#paint0_linear_378_2552)" stroke-width="2" mask="url(#path-1-inside-1_378_2552)"/>
<path d="M65.2805 55.8233C66.0768 59.8101 66.1905 63.4146 65.663 66.2325C65.189 68.7644 64.236 70.4524 63.0577 71.1285C60.55 72.5673 55.187 70.6971 49.4038 65.7644C48.7407 65.199 48.0726 64.5951 47.4028 63.9564C49.645 61.5256 51.8858 58.6998 54.0727 55.5619C57.9197 55.2236 61.554 54.6704 64.8498 53.9154C65.0118 54.5646 65.1562 55.2009 65.2805 55.8233Z" stroke="url(#paint1_linear_378_2552)" stroke-width="2" mask="url(#path-1-inside-1_378_2552)"/>
<path d="M32.2304 70.88C29.7804 71.7376 27.8291 71.762 26.6497 71.088C24.1395 69.6534 23.0964 64.1141 24.5195 56.6847C24.6887 55.8067 24.8825 54.9336 25.1006 54.0662C28.3598 54.7807 31.9677 55.2948 35.8238 55.6048C38.0252 58.6753 40.3308 61.4977 42.6543 63.9693C42.1605 64.4427 41.655 64.9041 41.1383 65.3529C38.0509 68.0279 34.9568 69.9253 32.2304 70.88Z" stroke="url(#paint2_linear_378_2552)" stroke-width="2" mask="url(#path-1-inside-1_378_2552)"/>
<path d="M20.7525 49.3859C16.8724 48.0714 13.6681 46.3632 11.4716 44.4993C9.49815 42.8239 8.50154 41.1607 8.50154 39.8109C8.50154 36.9394 12.8215 33.2761 20.0263 30.7864C20.9306 30.4753 21.8439 30.1905 22.765 29.9323C23.761 33.1425 25.0671 36.4989 26.6434 39.893C25.0467 43.3377 23.7219 46.7475 22.7168 49.9953C22.0571 49.8082 21.4021 49.605 20.7525 49.3859Z" stroke="url(#paint3_linear_378_2552)" stroke-width="2" mask="url(#path-1-inside-1_378_2552)"/>
<path d="M24.6001 23.4275C23.1045 15.8522 24.0976 10.138 26.5969 8.70418C29.2592 7.17676 35.1456 9.35479 41.3499 14.8149C41.7464 15.1639 42.1447 15.5294 42.5437 15.9074C40.2321 18.3678 37.9477 21.1689 35.7654 24.2216C32.023 24.5654 28.4404 25.1176 25.1471 25.8572C24.9442 25.0519 24.7618 24.242 24.6001 23.4275Z" stroke="url(#paint4_linear_378_2552)" stroke-width="2" mask="url(#path-1-inside-1_378_2552)"/>
<path d="M58.9241 31.828C58.1462 30.4962 57.3394 29.1811 56.5044 27.8838C59.0434 28.2014 61.4758 28.6237 63.7599 29.1407C63.0743 31.3191 62.2196 33.5969 61.2131 35.932C60.4777 34.549 59.7146 33.1807 58.9241 31.828Z" stroke="url(#paint5_linear_378_2552)" stroke-width="2" mask="url(#path-1-inside-1_378_2552)"/>
<path d="M44.9268 18.3151C46.4946 19.9985 48.0649 21.8785 49.6094 23.9179C46.4763 23.7712 43.3379 23.7705 40.2047 23.9158C41.7507 21.8952 43.3343 20.0181 44.9268 18.3151Z" stroke="url(#paint6_linear_378_2552)" stroke-width="2" mask="url(#path-1-inside-1_378_2552)"/>
<path d="M30.8397 31.851C30.0591 33.193 29.3102 34.5529 28.5936 35.9296C27.6037 33.6025 26.7568 31.3145 26.0651 29.1051C28.3355 28.6014 30.7566 28.1899 33.2791 27.8775C32.4347 29.1829 31.6214 30.5077 30.8397 31.851Z" stroke="url(#paint7_linear_378_2552)" stroke-width="2" mask="url(#path-1-inside-1_378_2552)"/>
<path d="M33.3517 51.9849C30.7457 51.6966 28.288 51.306 26.0183 50.8163C26.7209 48.5677 27.5865 46.2305 28.5975 43.8535C29.3171 45.2312 30.0693 46.5919 30.8534 47.9346C31.6536 49.3041 32.4866 50.6546 33.3517 51.9849Z" stroke="url(#paint8_linear_378_2552)" stroke-width="2" mask="url(#path-1-inside-1_378_2552)"/>
<path d="M45.0208 61.5448C43.4097 59.8216 41.8028 57.9158 40.2332 55.8659C41.7566 55.9252 43.31 55.9552 44.8887 55.9552C46.5108 55.9552 48.1142 55.9193 49.6922 55.8495C48.1427 57.9368 46.5781 59.8453 45.0208 61.5448Z" stroke="url(#paint9_linear_378_2552)" stroke-width="2" mask="url(#path-1-inside-1_378_2552)"/>
<path d="M61.2455 43.7324C62.309 46.1353 63.2056 48.4599 63.9177 50.6704C61.6103 51.1922 59.1195 51.6124 56.4949 51.9245C57.3359 50.6029 58.1504 49.2649 58.9378 47.9112C59.7382 46.5354 60.5076 45.1421 61.2455 43.7324Z" stroke="url(#paint10_linear_378_2552)" stroke-width="2" mask="url(#path-1-inside-1_378_2552)"/>
<path fill-rule="evenodd" clip-rule="evenodd" d="M55.993 46.2281C54.7877 48.3035 53.5145 50.3395 52.1756 52.3329C49.8148 52.5 47.375 52.5863 44.8887 52.5863C42.4127 52.5863 40.0039 52.5098 37.6843 52.3608C36.3107 50.3721 35.0134 48.3325 33.7954 46.2466C32.583 44.1717 31.4506 42.052 30.4006 39.8919C31.4479 37.7312 32.5769 35.6103 33.7852 33.5337C34.993 31.4567 36.28 29.4266 37.6434 27.4464C40.0099 27.2691 42.4363 27.1763 44.8891 27.1763C47.3528 27.1763 49.7824 27.2698 52.1482 27.4485C53.4978 29.4257 54.7765 31.4494 55.9821 33.5159C57.1945 35.5879 58.3386 37.6984 59.4125 39.8441C58.3496 42.0116 57.2088 44.141 55.993 46.2281ZM51.9944 39.811C51.9944 35.9216 48.8133 32.7684 44.8889 32.7684C40.9647 32.7684 37.7833 35.9216 37.7833 39.811C37.7833 43.7008 40.9647 46.854 44.8889 46.854C48.8133 46.854 51.9944 43.7008 51.9944 39.811Z" stroke="url(#paint11_linear_378_2552)" stroke-width="2" mask="url(#path-1-inside-1_378_2552)"/>
<path d="M63.0056 8.604C65.67 10.1272 66.7064 16.2693 65.0323 24.3242C64.9225 24.8489 64.8032 25.3717 64.6745 25.8921C61.3733 25.1371 57.7883 24.5752 54.035 24.2261C51.8485 21.1402 49.583 18.3343 47.3088 15.9056C47.9047 15.3362 48.5149 14.7815 49.1386 14.2421C55.0133 9.17469 60.5038 7.17397 63.0056 8.604Z" stroke="url(#paint12_linear_378_2552)" stroke-width="2" mask="url(#path-1-inside-1_378_2552)"/>
<path fill-rule="evenodd" clip-rule="evenodd" d="M17.0245 56.2758C6.60757 52.7466 0 46.4858 0 39.779C0 33.2543 6.95903 27.4584 17.0245 23.9802C14.9376 13.4087 16.5698 4.89026 22.2903 1.6082C28.2231 -1.79568 36.402 0.495794 44.9314 8.00164C53.1296 0.930004 61.3902 -1.92238 67.116 1.35025C73.0552 4.74471 75.0051 12.9078 72.7037 24.0538C82.9804 27.5603 89.6 33.2277 89.6 39.779C89.6 46.5741 83.5309 51.9128 72.6808 55.4681C74.8184 66.1719 73.0376 75.1053 67.1812 78.4656C61.4832 81.7347 53.3177 79.0227 45.2381 72.1312C36.9493 79.3127 28.2164 81.6321 22.3547 78.2813C16.6519 75.0216 14.9442 66.6553 17.0245 56.2758ZM67.966 26.7358C68.8265 26.9811 69.6806 27.2478 70.5276 27.5358C79.1217 30.4681 84.6753 35.0615 84.6753 39.8109C84.6753 44.7642 78.7403 49.6072 69.618 52.6027C69.1359 52.7611 68.6418 52.9133 68.1382 53.0606C68.3178 53.7768 68.478 54.4802 68.6154 55.1688C70.4163 64.185 69.0295 71.5955 64.7613 74.0444C60.6287 76.4154 53.9497 74.0863 47.1868 68.3183C46.4517 67.6899 45.7344 67.0412 45.0358 66.3731C44.4811 66.9047 43.9272 67.4119 43.3753 67.89C36.3934 73.939 29.2234 76.4486 24.9514 74.007C20.8152 71.6423 19.5154 64.7441 21.1797 56.0564C21.3616 55.1123 21.57 54.1733 21.8048 53.2407C21.0821 53.0362 20.3646 52.8139 19.6531 52.574C10.878 49.6016 5.10253 44.6989 5.10253 39.8109C5.10253 35.0786 10.4828 30.5159 18.9072 27.6049C19.8489 27.2796 20.8332 26.9738 21.8523 26.6869C21.634 25.8212 21.4379 24.9502 21.2642 24.0746C19.5186 15.2334 20.7469 8.16769 24.8939 5.78826C29.2188 3.30691 36.4216 5.97151 43.6074 12.2955C44.0544 12.6897 44.494 13.0921 44.9259 13.5025C45.5709 12.8853 46.2315 12.2844 46.9072 11.7004C53.7637 5.78652 60.5527 3.3125 64.7036 5.6853C69.033 8.15932 70.3008 15.6749 68.3618 25.0041C68.2407 25.5837 68.1087 26.161 67.966 26.7358Z" stroke="url(#paint13_linear_378_2552)" stroke-width="2" mask="url(#path-1-inside-1_378_2552)"/>
<defs>
<linearGradient id="paint0_linear_378_2552" x1="11.9099" y1="13.3829" x2="65.9062" y2="80.2851" gradientUnits="userSpaceOnUse">
<stop stop-color="#DEC8A7"/>
<stop offset="0.301806" stop-color="#F3963A"/>
<stop offset="0.645833" stop-color="#E37B00"/>
<stop offset="1" stop-color="#B03B31"/>
</linearGradient>
<linearGradient id="paint1_linear_378_2552" x1="11.9099" y1="13.3829" x2="65.9062" y2="80.2851" gradientUnits="userSpaceOnUse">
<stop stop-color="#DEC8A7"/>
<stop offset="0.301806" stop-color="#F3963A"/>
<stop offset="0.645833" stop-color="#E37B00"/>
<stop offset="1" stop-color="#B03B31"/>
</linearGradient>
<linearGradient id="paint2_linear_378_2552" x1="11.9099" y1="13.3829" x2="65.9062" y2="80.2851" gradientUnits="userSpaceOnUse">
<stop stop-color="#DEC8A7"/>
<stop offset="0.301806" stop-color="#F3963A"/>
<stop offset="0.645833" stop-color="#E37B00"/>
<stop offset="1" stop-color="#B03B31"/>
</linearGradient>
<linearGradient id="paint3_linear_378_2552" x1="11.9099" y1="13.3829" x2="65.9062" y2="80.2851" gradientUnits="userSpaceOnUse">
<stop stop-color="#DEC8A7"/>
<stop offset="0.301806" stop-color="#F3963A"/>
<stop offset="0.645833" stop-color="#E37B00"/>
<stop offset="1" stop-color="#B03B31"/>
</linearGradient>
<linearGradient id="paint4_linear_378_2552" x1="11.9099" y1="13.3829" x2="65.9062" y2="80.2851" gradientUnits="userSpaceOnUse">
<stop stop-color="#DEC8A7"/>
<stop offset="0.301806" stop-color="#F3963A"/>
<stop offset="0.645833" stop-color="#E37B00"/>
<stop offset="1" stop-color="#B03B31"/>
</linearGradient>
<linearGradient id="paint5_linear_378_2552" x1="11.9099" y1="13.3829" x2="65.9062" y2="80.2851" gradientUnits="userSpaceOnUse">
<stop stop-color="#DEC8A7"/>
<stop offset="0.301806" stop-color="#F3963A"/>
<stop offset="0.645833" stop-color="#E37B00"/>
<stop offset="1" stop-color="#B03B31"/>
</linearGradient>
<linearGradient id="paint6_linear_378_2552" x1="11.9099" y1="13.3829" x2="65.9062" y2="80.2851" gradientUnits="userSpaceOnUse">
<stop stop-color="#DEC8A7"/>
<stop offset="0.301806" stop-color="#F3963A"/>
<stop offset="0.645833" stop-color="#E37B00"/>
<stop offset="1" stop-color="#B03B31"/>
</linearGradient>
<linearGradient id="paint7_linear_378_2552" x1="11.9099" y1="13.3829" x2="65.9062" y2="80.2851" gradientUnits="userSpaceOnUse">
<stop stop-color="#DEC8A7"/>
<stop offset="0.301806" stop-color="#F3963A"/>
<stop offset="0.645833" stop-color="#E37B00"/>
<stop offset="1" stop-color="#B03B31"/>
</linearGradient>
<linearGradient id="paint8_linear_378_2552" x1="11.9099" y1="13.3829" x2="65.9062" y2="80.2851" gradientUnits="userSpaceOnUse">
<stop stop-color="#DEC8A7"/>
<stop offset="0.301806" stop-color="#F3963A"/>
<stop offset="0.645833" stop-color="#E37B00"/>
<stop offset="1" stop-color="#B03B31"/>
</linearGradient>
<linearGradient id="paint9_linear_378_2552" x1="11.9099" y1="13.3829" x2="65.9062" y2="80.2851" gradientUnits="userSpaceOnUse">
<stop stop-color="#DEC8A7"/>
<stop offset="0.301806" stop-color="#F3963A"/>
<stop offset="0.645833" stop-color="#E37B00"/>
<stop offset="1" stop-color="#B03B31"/>
</linearGradient>
<linearGradient id="paint10_linear_378_2552" x1="11.9099" y1="13.3829" x2="65.9062" y2="80.2851" gradientUnits="userSpaceOnUse">
<stop stop-color="#DEC8A7"/>
<stop offset="0.301806" stop-color="#F3963A"/>
<stop offset="0.645833" stop-color="#E37B00"/>
<stop offset="1" stop-color="#B03B31"/>
</linearGradient>
<linearGradient id="paint11_linear_378_2552" x1="11.9099" y1="13.3829" x2="65.9062" y2="80.2851" gradientUnits="userSpaceOnUse">
<stop stop-color="#DEC8A7"/>
<stop offset="0.301806" stop-color="#F3963A"/>
<stop offset="0.645833" stop-color="#E37B00"/>
<stop offset="1" stop-color="#B03B31"/>
</linearGradient>
<linearGradient id="paint12_linear_378_2552" x1="11.9099" y1="13.3829" x2="65.9062" y2="80.2851" gradientUnits="userSpaceOnUse">
<stop stop-color="#DEC8A7"/>
<stop offset="0.301806" stop-color="#F3963A"/>
<stop offset="0.645833" stop-color="#E37B00"/>
<stop offset="1" stop-color="#B03B31"/>
</linearGradient>
<linearGradient id="paint13_linear_378_2552" x1="11.9099" y1="13.3829" x2="65.9062" y2="80.2851" gradientUnits="userSpaceOnUse">
<stop stop-color="#DEC8A7"/>
<stop offset="0.301806" stop-color="#F3963A"/>
<stop offset="0.645833" stop-color="#E37B00"/>
<stop offset="1" stop-color="#B03B31"/>
</linearGradient>
</defs>
</svg>
