<svg width="10" height="10" viewBox="0 0 10 10" fill="none" xmlns="http://www.w3.org/2000/svg">
<g clip-path="url(#clip0_675_1196)">
<path d="M5 0C4.0111 0 3.0444 0.293245 2.22215 0.842652C1.39991 1.39206 0.759043 2.17295 0.380605 3.08658C0.00216643 4.00021 -0.0968503 5.00555 0.0960759 5.97545C0.289002 6.94536 0.765206 7.83627 1.46447 8.53553C2.16373 9.2348 3.05465 9.711 4.02455 9.90392C4.99446 10.0969 5.99979 9.99783 6.91342 9.6194C7.82705 9.24096 8.60795 8.6001 9.15735 7.77785C9.70676 6.95561 10 5.98891 10 5C9.99857 3.67436 9.47133 2.40342 8.53396 1.46605C7.59658 0.528678 6.32565 0.00143378 5 0V0ZM5 9.58333C4.09351 9.58333 3.20736 9.31452 2.45364 8.8109C1.69991 8.30728 1.11246 7.59146 0.765555 6.75397C0.418653 5.91647 0.327888 4.99492 0.504736 4.10584C0.681585 3.21676 1.11811 2.40008 1.7591 1.75909C2.40009 1.1181 3.21676 0.681583 4.10584 0.504734C4.99492 0.327885 5.91648 0.41865 6.75397 0.765552C7.59146 1.11245 8.30728 1.69991 8.81091 2.45364C9.31453 3.20736 9.58334 4.0935 9.58334 5C9.5819 6.21514 9.09856 7.38009 8.23933 8.23932C7.3801 9.09855 6.21514 9.5819 5 9.58333Z" fill="#565656"/>
<path d="M6.60589 3.39415C6.58654 3.37475 6.56355 3.35936 6.53824 3.34886C6.51293 3.33835 6.4858 3.33295 6.45839 3.33295C6.43099 3.33295 6.40386 3.33835 6.37855 3.34886C6.35324 3.35936 6.33025 3.37475 6.31089 3.39415L5.00006 4.7054L3.68923 3.39415C3.65011 3.35503 3.59705 3.33306 3.54173 3.33306C3.4864 3.33306 3.43335 3.35503 3.39423 3.39415C3.35511 3.43327 3.33313 3.48633 3.33313 3.54165C3.33313 3.59698 3.35511 3.65003 3.39423 3.68915L4.70548 4.99999L3.39423 6.31082C3.35511 6.34994 3.33313 6.403 3.33313 6.45832C3.33313 6.51364 3.35511 6.5667 3.39423 6.60582C3.43335 6.64494 3.4864 6.66692 3.54173 6.66692C3.59705 6.66692 3.65011 6.64494 3.68923 6.60582L5.00006 5.29457L6.31089 6.60582C6.35001 6.64494 6.40307 6.66692 6.45839 6.66692C6.51372 6.66692 6.56677 6.64494 6.60589 6.60582C6.64501 6.5667 6.66699 6.51364 6.66699 6.45832C6.66699 6.403 6.64501 6.34994 6.60589 6.31082L5.29464 4.99999L6.60589 3.68915C6.62529 3.6698 6.64069 3.64681 6.65119 3.6215C6.66169 3.59619 6.6671 3.56906 6.6671 3.54165C6.6671 3.51425 6.66169 3.48712 6.65119 3.46181C6.64069 3.43649 6.62529 3.4135 6.60589 3.39415Z" fill="#565656"/>
</g>
<defs>
<clipPath id="clip0_675_1196">
<rect width="10" height="10" fill="white"/>
</clipPath>
</defs>
</svg>
