<svg width="11" height="11" viewBox="0 0 11 11" fill="none" xmlns="http://www.w3.org/2000/svg">
<g clip-path="url(#clip0_223_823)">
<path d="M10.5802 0.102247L3.72489 10.4102L0.391431 7.05516C0.371221 7.03048 0.34608 7.01029 0.317618 6.99588C0.289156 6.98148 0.258 6.97317 0.226143 6.9715C0.194287 6.96982 0.162432 6.97482 0.132617 6.98616C0.102802 6.99751 0.0756844 7.01496 0.0529995 7.03738C0.0303146 7.05981 0.0125622 7.08673 0.000878507 7.11641C-0.0108052 7.1461 -0.0161628 7.17789 -0.0148514 7.20977C-0.0135401 7.24164 -0.00558858 7.27289 0.00849408 7.30151C0.0225767 7.33014 0.0424804 7.35551 0.066931 7.376L3.5961 10.9304C3.61719 10.9521 3.64239 10.9695 3.67024 10.9815C3.69809 10.9934 3.72804 10.9997 3.75835 11H3.78081C3.8146 10.9967 3.84722 10.9858 3.87631 10.9683C3.9054 10.9508 3.93023 10.927 3.94901 10.8987L10.9615 0.35708C10.9792 0.332069 10.9918 0.303754 10.9984 0.273811C11.005 0.243868 11.0055 0.212906 10.9999 0.18276C10.9943 0.152613 10.9827 0.123894 10.9658 0.098304C10.949 0.0727137 10.9271 0.0507724 10.9016 0.0337793C10.8761 0.0167862 10.8474 0.00508692 10.8173 -0.000625724C10.7871 -0.00633837 10.7562 -0.00594822 10.7262 0.000521623C10.6962 0.00699146 10.6679 0.0194094 10.6428 0.0370402C10.6177 0.0546709 10.5964 0.0771558 10.5802 0.103163V0.102247Z" fill="#565656"/>
</g>
<defs>
<clipPath id="clip0_223_823">
<rect width="11" height="11" fill="white"/>
</clipPath>
</defs>
</svg>
