<svg width="329" height="622" viewBox="0 0 329 622" fill="none" xmlns="http://www.w3.org/2000/svg">
<path opacity="0.8" d="M605.725 0.303464C655.241 67.1732 679.122 130.953 591.824 102.521M591.824 102.521C576.556 97.5485 557.887 89.755 535.359 78.664C410.06 16.9755 401.035 50.2673 429.788 104.758M591.824 102.521C583.898 86.92 572.598 69.4553 559.505 51.7747M591.824 102.521C613.877 145.925 609.82 174.907 545.604 153.992M429.788 104.758C438.491 121.251 450.655 139.686 464.103 158.016M429.788 104.758C445.736 110.128 465.34 118.418 489.139 130.135C511.667 141.226 530.336 149.02 545.604 153.992M429.788 104.758C361.774 81.8582 360.276 112.088 383.568 156.23M545.604 153.992C537.678 138.391 526.378 120.926 513.285 103.246M545.604 153.992C567.657 197.397 563.6 226.378 499.384 205.464M383.568 156.23C392.271 172.722 404.435 191.157 417.883 209.488M383.568 156.23C399.516 161.599 419.12 169.889 442.919 181.606C465.447 192.697 484.116 200.491 499.384 205.464M383.568 156.23C315.554 133.329 314.056 163.56 337.348 207.701M499.384 205.464C491.458 189.862 480.158 172.398 467.065 154.717M499.384 205.464C521.437 248.868 517.38 277.849 453.164 256.935M337.348 207.701C346.051 224.193 358.215 242.628 371.663 260.959M337.348 207.701C353.296 213.07 372.9 221.361 396.699 233.078C419.227 244.169 437.896 251.962 453.164 256.935M337.348 207.701C269.334 184.801 267.836 215.031 291.128 259.172M453.164 256.935C445.238 241.334 433.938 223.869 420.845 206.188M453.164 256.935C475.217 300.339 471.16 329.321 406.944 308.406M291.128 259.172C299.831 275.664 311.995 294.099 325.443 312.43M291.128 259.172C307.076 264.541 326.68 272.832 350.479 284.549C373.007 295.64 391.676 303.433 406.944 308.406M291.128 259.172C223.114 236.272 221.616 266.502 244.908 310.643M406.944 308.406C399.018 292.805 387.718 275.34 374.625 257.659M406.944 308.406C428.997 351.81 424.94 380.792 360.724 359.877M244.908 310.643C253.611 327.136 265.775 345.57 279.223 363.901M244.908 310.643C260.856 316.013 280.46 324.303 304.259 336.02C326.787 347.111 345.456 354.904 360.724 359.877M244.908 310.643C176.894 287.743 175.396 317.973 198.688 362.114M360.724 359.877C352.798 344.276 341.498 326.811 328.405 309.131M360.724 359.877C382.777 403.281 378.72 432.263 314.504 411.348M198.688 362.114C207.391 378.607 219.555 397.041 233.003 415.372M198.688 362.114C214.636 367.484 234.24 375.774 258.039 387.491C280.567 398.582 299.236 406.376 314.504 411.348M198.688 362.114C130.674 339.214 129.176 369.444 152.468 413.586M314.504 411.348C306.578 395.747 295.278 378.282 282.185 360.602M314.504 411.348C336.557 454.752 332.5 483.734 268.284 462.82M152.468 413.586C161.171 430.078 173.335 448.513 186.783 466.844M152.468 413.586C168.416 418.955 188.02 427.245 211.819 438.962C234.347 450.053 253.016 457.847 268.284 462.82M152.468 413.586C84.4543 390.685 82.9563 420.916 106.248 465.057M268.284 462.82C260.358 447.218 249.058 429.754 235.965 412.073M268.284 462.82C290.337 506.224 286.28 535.205 222.064 514.291M106.248 465.057C114.951 481.549 127.115 499.984 140.563 518.315M106.248 465.057C122.196 470.426 141.8 478.717 165.599 490.434C188.127 501.525 206.796 509.318 222.064 514.291M106.248 465.057C38.2343 442.157 36.7363 472.387 60.0285 516.528M222.064 514.291C214.138 498.69 202.838 481.225 189.745 463.544M222.064 514.291C249.361 568.015 236.655 599.643 119.379 541.905C95.5803 530.188 75.9759 521.897 60.0285 516.528M60.0285 516.528C68.7312 533.021 80.8947 551.455 94.3426 569.786M60.0285 516.528C-33.398 485.071 -1.31746 553.865 48.1226 621.257" stroke="url(#paint0_linear_162_2129)" stroke-width="0.346038"/>
<defs>
<linearGradient id="paint0_linear_162_2129" x1="579.584" y1="125.955" x2="342.042" y2="-8.74741" gradientUnits="userSpaceOnUse">
<stop stop-color="#DEC8A7"/>
<stop offset="0.301806" stop-color="#F3963A"/>
<stop offset="0.645833" stop-color="#E37B00"/>
<stop offset="1" stop-color="#B03B31"/>
</linearGradient>
</defs>
</svg>
