<svg width="142" height="665" viewBox="0 0 142 665" fill="none" xmlns="http://www.w3.org/2000/svg">
<path opacity="0.8" d="M-410.679 36.0085C-342.031 -6.10089 -278.521 -23.7529 -313.291 58.0244M-313.291 58.0244C-319.372 72.3272 -328.46 89.6714 -341.052 110.458C-411.09 226.075 -379.75 237.582 -324.787 214.449M-313.291 58.0244C-329.002 64.3529 -346.794 73.777 -364.944 84.9109M-313.291 58.0244C-269.583 40.418 -241.98 46.7717 -267.557 106.927M-324.787 214.449C-308.151 207.447 -289.351 197.272 -270.544 185.85M-324.787 214.449C-318.266 199.525 -308.62 181.321 -295.317 159.361C-282.725 138.574 -273.638 121.23 -267.557 106.927M-324.787 214.449C-352.598 278.099 -323.576 282.091 -279.052 263.351M-267.557 106.927C-283.267 113.255 -301.059 122.679 -319.21 133.813M-267.557 106.927C-223.848 89.3204 -196.246 95.6741 -221.822 155.829M-279.052 263.351C-262.417 256.35 -243.617 246.175 -224.809 234.753M-279.052 263.351C-272.531 248.427 -262.886 230.223 -249.583 208.263C-236.991 187.476 -227.903 170.132 -221.822 155.829M-279.052 263.351C-306.863 327.002 -277.841 330.993 -233.317 312.254M-221.822 155.829C-237.533 162.158 -255.324 171.582 -273.475 182.716M-221.822 155.829C-178.113 138.223 -150.511 144.577 -176.087 204.732M-233.317 312.254C-216.682 305.252 -197.882 295.077 -179.074 283.655M-233.317 312.254C-226.797 297.33 -217.151 279.126 -203.848 257.165C-191.256 236.379 -182.169 219.034 -176.087 204.732M-233.317 312.254C-261.129 375.904 -232.107 379.896 -187.583 361.156M-176.087 204.732C-191.798 211.06 -209.59 220.484 -227.741 231.618M-176.087 204.732C-132.379 187.125 -104.776 193.479 -130.353 253.634M-187.583 361.156C-170.947 354.155 -152.148 343.98 -133.34 332.558M-187.583 361.156C-181.062 346.232 -171.416 328.028 -158.114 306.068C-145.522 285.281 -136.434 267.937 -130.353 253.634M-187.583 361.156C-215.394 424.806 -186.372 428.798 -141.848 410.059M-130.353 253.634C-146.064 259.962 -163.855 269.387 -182.006 280.52M-130.353 253.634C-86.6443 236.028 -59.0418 242.381 -84.6183 302.536M-141.848 410.059C-125.213 403.057 -106.413 392.882 -87.6053 381.46M-141.848 410.059C-135.327 395.134 -125.682 376.93 -112.379 354.97C-99.787 334.183 -90.6995 316.839 -84.6183 302.536M-141.848 410.059C-169.659 473.709 -140.637 477.7 -96.1137 458.961M-84.6183 302.536C-100.329 308.865 -118.121 318.289 -136.272 329.423M-84.6183 302.536C-40.9097 284.93 -13.3073 291.284 -38.8837 351.439M-96.1137 458.961C-79.4782 451.959 -60.6786 441.784 -41.8707 430.362M-96.1137 458.961C-89.5928 444.037 -79.9473 425.833 -66.6445 403.873C-54.0524 383.086 -44.9649 365.742 -38.8837 351.439M-96.1137 458.961C-123.925 522.611 -94.9028 526.603 -50.3791 507.863M-38.8837 351.439C-54.5944 357.767 -72.3861 367.191 -90.537 378.325M-38.8837 351.439C4.82489 333.832 32.4273 340.186 6.85085 400.341M-50.3791 507.863C-33.7436 500.862 -14.944 490.687 3.86391 479.265M-50.3791 507.863C-43.8582 492.939 -34.2127 474.735 -20.9099 452.775C-8.31784 431.988 0.769683 414.644 6.85085 400.341M-50.3791 507.863C-78.1902 571.514 -49.1683 575.505 -4.64456 556.766M6.85085 400.341C-8.85986 406.67 -26.6515 416.094 -44.8024 427.228M6.85085 400.341C50.5595 382.735 78.1619 389.089 52.5854 449.244M-4.64456 556.766C11.991 549.764 30.7906 539.589 49.5985 528.167M-4.64456 556.766C1.87638 541.842 11.5219 523.637 24.8246 501.677C37.4168 480.891 46.5043 463.546 52.5854 449.244M-4.64456 556.766C-32.4556 620.416 -3.4337 624.408 41.09 605.668M52.5854 449.244C36.8747 455.572 19.0831 464.996 0.932186 476.13M52.5854 449.244C106.686 427.451 136.112 442.367 70.5592 550.58C57.2565 572.54 47.611 590.744 41.09 605.668M41.09 605.668C57.7256 598.667 76.5252 588.492 95.3331 577.07M41.09 605.668C2.88782 693.1 71.9219 667.964 141.068 625.972" stroke="url(#paint0_linear_162_1067)" stroke-width="0.346038"/>
<defs>
<linearGradient id="paint0_linear_162_1067" x1="-291.727" y1="71.8011" x2="-441.623" y2="289.491" gradientUnits="userSpaceOnUse">
<stop stop-color="#DEC8A7"/>
<stop offset="0.301806" stop-color="#F3963A"/>
<stop offset="0.645833" stop-color="#E37B00"/>
<stop offset="1" stop-color="#B03B31"/>
</linearGradient>
</defs>
</svg>
