<svg width="27" height="27" viewBox="0 0 27 27" fill="none" xmlns="http://www.w3.org/2000/svg">
<path d="M14.246 2.12387C13.0422 2.12517 11.8881 2.60396 11.0369 3.45517C10.1857 4.30638 9.70692 5.4605 9.70562 6.66429L9.70562 16.974C9.71864 17.7323 10.0291 18.4551 10.5701 18.9866C11.1111 19.5181 11.8392 19.8158 12.5976 19.8154C13.356 19.815 14.0839 19.5166 14.6244 18.9846C15.1648 18.4525 15.4745 17.7294 15.4868 16.9711C15.4868 9.70404 15.602 9.99649 15.1145 9.50907C14.9391 9.33951 14.7179 9.22486 14.4782 9.17919C14.2385 9.13352 13.9907 9.15882 13.7651 9.25198C13.5396 9.34514 13.3462 9.50212 13.2086 9.70364C13.071 9.90516 12.9952 10.1425 12.9906 10.3864L13.0053 16.9711C12.9846 17.0637 12.9329 17.1465 12.8588 17.2058C12.7847 17.2652 12.6926 17.2975 12.5977 17.2975C12.5027 17.2975 12.4106 17.2652 12.3365 17.2058C12.2624 17.1465 12.2108 17.0637 12.19 16.9711L12.193 6.66429C12.193 6.39274 12.2464 6.12384 12.3504 5.87296C12.4543 5.62208 12.6066 5.39412 12.7986 5.2021C12.9906 5.01008 13.2186 4.85776 13.4695 4.75384C13.7204 4.64992 13.9893 4.59644 14.2608 4.59644C14.5324 4.59644 14.8013 4.64992 15.0521 4.75384C15.303 4.85776 15.531 5.01008 15.723 5.2021C15.915 5.39412 16.0673 5.62207 16.1713 5.87296C16.2752 6.12384 16.3287 6.39274 16.3287 6.66429L16.3021 18.2059C16.2775 19.172 15.8764 20.0903 15.1843 20.7649C14.4923 21.4395 13.5641 21.8171 12.5977 21.8171C11.6312 21.8171 10.703 21.4395 10.011 20.7649C9.31897 20.0903 8.91788 19.172 8.89325 18.2059L8.89325 8.31562C8.85327 8.01472 8.70544 7.73856 8.47722 7.53842C8.249 7.33828 7.9559 7.22777 7.65235 7.22741C7.34881 7.22705 7.05545 7.33686 6.82675 7.53646C6.59806 7.73605 6.44957 8.01187 6.40887 8.31267L6.40887 18.2088C6.41083 19.8522 7.06552 21.4274 8.22891 22.588C9.39231 23.7487 10.9691 24.3996 12.6124 24.3976C14.2558 24.3957 15.831 23.741 16.9916 22.5776C18.1523 21.4142 18.8032 19.8374 18.8012 18.1941L18.7865 6.66429C18.7852 5.4605 18.3064 4.30638 17.4552 3.45517C16.604 2.60396 15.4498 2.12517 14.246 2.12387V2.12387ZM17.9652 6.67611L17.9505 18.2059C17.9505 19.6255 17.3865 20.987 16.3827 21.9909C15.3788 22.9947 14.0173 23.5587 12.5977 23.5587C11.178 23.5587 9.81651 22.9947 8.81267 21.9909C7.80883 20.987 7.24487 19.6255 7.24487 18.2059L7.24192 8.31267C7.26267 8.22004 7.31436 8.13724 7.38846 8.0779C7.46256 8.01857 7.55465 7.98624 7.64958 7.98624C7.74451 7.98624 7.83661 8.01857 7.91071 8.0779C7.98481 8.13724 8.03649 8.22004 8.05725 8.31267L8.06906 18.2207C8.1334 19.3808 8.63995 20.4721 9.48449 21.27C10.329 22.068 11.4473 22.5119 12.6092 22.5104C13.7711 22.5088 14.8882 22.062 15.7306 21.2619C16.5731 20.4617 17.0768 19.3691 17.1381 18.2088L17.1292 6.67316C17.1487 6.28227 17.0885 5.89151 16.9525 5.52456C16.8164 5.1576 16.6073 4.82209 16.3377 4.53836C16.0682 4.25462 15.7438 4.02857 15.3843 3.87391C15.0248 3.71925 14.6376 3.63919 14.2463 3.63859C13.8549 3.63799 13.4675 3.71686 13.1075 3.87042C12.7475 4.02398 12.4225 4.24903 12.152 4.53193C11.8816 4.81484 11.6714 5.14971 11.5343 5.51624C11.3971 5.88278 11.3358 6.27335 11.354 6.66429L11.357 16.9711C11.3996 17.2697 11.5486 17.543 11.7765 17.7407C12.0044 17.9383 12.296 18.0471 12.5977 18.0471C12.8994 18.0471 13.1909 17.9383 13.4188 17.7406C13.6468 17.543 13.7957 17.2697 13.8384 16.9711L13.8413 10.3746C13.8462 10.2965 13.8729 10.2213 13.9185 10.1576C13.964 10.0939 14.0265 10.0443 14.0989 10.0144C14.1713 9.98455 14.2506 9.97561 14.3278 9.98864C14.405 10.0017 14.477 10.0361 14.5355 10.0881C14.7039 10.2565 14.6537 9.78085 14.6537 16.9711C14.6537 17.5195 14.4358 18.0455 14.048 18.4333C13.6602 18.8211 13.1343 19.0389 12.5858 19.0389C12.0374 19.0389 11.5115 18.8211 11.1237 18.4333C10.7359 18.0455 10.518 17.5195 10.518 16.9711L10.5446 6.66429C10.532 6.16988 10.6185 5.67794 10.799 5.21748C10.9795 4.75701 11.2503 4.33734 11.5956 3.98319C11.9408 3.62904 12.3534 3.34759 12.8091 3.15541C13.2648 2.96324 13.7544 2.86424 14.249 2.86424C14.7436 2.86424 15.2331 2.96324 15.6889 3.15541C16.1446 3.34759 16.5572 3.62904 16.9024 3.98319C17.2477 4.33734 17.5185 4.75701 17.699 5.21747C17.8795 5.67794 17.966 6.16988 17.9534 6.66429L17.9652 6.67611Z" fill="#565656"/>
</svg>
