<svg width="11" height="11" viewBox="0 0 11 11" fill="none" xmlns="http://www.w3.org/2000/svg">
<path d="M10.2456 0.75446C10.2243 0.733119 10.1991 0.716187 10.1712 0.704634C10.1434 0.693081 10.1135 0.687134 10.0834 0.687134C10.0532 0.687134 10.0234 0.693081 9.99555 0.704634C9.96771 0.716187 9.94242 0.733119 9.92113 0.75446L5.50005 5.176L1.07896 0.75446C1.03593 0.711429 0.977568 0.687254 0.916712 0.687254C0.855856 0.687254 0.797493 0.711429 0.754462 0.75446C0.711431 0.797492 0.687256 0.855855 0.687256 0.91671C0.687256 0.977566 0.711431 1.03593 0.754462 1.07896L5.176 5.50004L0.754462 9.92113C0.711431 9.96416 0.687256 10.0225 0.687256 10.0834C0.687256 10.1442 0.711431 10.2026 0.754462 10.2456C0.797493 10.2887 0.855856 10.3128 0.916712 10.3128C0.977568 10.3128 1.03593 10.2887 1.07896 10.2456L5.50005 5.82408L9.92113 10.2456C9.96416 10.2887 10.0225 10.3128 10.0834 10.3128C10.1442 10.3128 10.2026 10.2887 10.2456 10.2456C10.2887 10.2026 10.3128 10.1442 10.3128 10.0834C10.3128 10.0225 10.2887 9.96416 10.2456 9.92113L5.82409 5.50004L10.2456 1.07896C10.267 1.05767 10.2839 1.03238 10.2955 1.00454C10.307 0.976701 10.313 0.946853 10.313 0.91671C10.313 0.886567 10.307 0.85672 10.2955 0.828878C10.2839 0.801037 10.267 0.775748 10.2456 0.75446Z" fill="url(#paint0_linear_223_1155)"/>
<defs>
<linearGradient id="paint0_linear_223_1155" x1="1.96673" y1="2.30051" x2="8.59378" y2="9.61757" gradientUnits="userSpaceOnUse">
<stop stop-color="#DEC8A7"/>
<stop offset="0.301806" stop-color="#F3963A"/>
<stop offset="0.645833" stop-color="#E37B00"/>
<stop offset="1" stop-color="#B03B31"/>
</linearGradient>
</defs>
</svg>
