<svg width="1440" height="658" viewBox="0 0 1440 658" fill="none" xmlns="http://www.w3.org/2000/svg">
<path d="M-486 319.888C-437.684 55.6196 -346.294 -140.124 -238.289 132.02M-238.289 132.02C-219.399 179.618 -200 241.528 -180.236 319.888C-70.3024 755.724 19.1032 705.385 80.9777 518.007M-238.289 132.02C-256.597 184.931 -272.383 250.014 -285.158 319.888M-238.289 132.02C-187.353 -15.1814 -116.895 -68.1679 -37.447 132.02M80.9777 518.007C99.705 461.294 115.91 392.027 129.399 319.888M80.9777 518.007C61.6264 467.912 41.4865 402.669 20.6061 319.888C0.841174 241.528 -18.557 179.618 -37.447 132.02M80.9777 518.007C163.509 731.658 231.697 669.795 281.819 518.007M-37.447 132.02C-55.7555 184.931 -71.5418 250.014 -84.3167 319.888M-37.447 132.02C13.4887 -15.1814 83.9464 -68.1679 163.395 132.02M281.819 518.007C300.547 461.294 316.752 392.027 330.241 319.888M281.819 518.007C262.468 467.912 242.328 402.669 221.448 319.888C201.683 241.528 182.285 179.618 163.395 132.02M281.819 518.007C364.351 731.658 432.539 669.795 482.661 518.007M163.395 132.02C145.086 184.931 129.3 250.014 116.525 319.888M163.395 132.02C214.33 -15.1814 284.788 -68.1679 364.236 132.02M482.661 518.007C501.388 461.294 517.594 392.027 531.083 319.888M482.661 518.007C463.31 467.912 443.17 402.669 422.289 319.888C402.524 241.528 383.126 179.618 364.236 132.02M482.661 518.007C565.192 731.658 633.38 669.795 683.503 518.007M364.236 132.02C345.928 184.931 330.142 250.014 317.367 319.888M364.236 132.02C415.172 -15.1814 485.63 -68.1679 565.078 132.02M683.503 518.007C702.23 461.294 718.435 392.027 731.924 319.888M683.503 518.007C664.151 467.912 644.011 402.669 623.131 319.888C603.366 241.528 583.968 179.618 565.078 132.02M683.503 518.007C766.034 731.658 834.222 669.795 884.344 518.007M565.078 132.02C546.769 184.931 530.983 250.014 518.208 319.888M565.078 132.02C616.014 -15.1814 686.471 -68.1679 765.92 132.02M884.344 518.007C903.072 461.294 919.277 392.027 932.766 319.888M884.344 518.007C864.993 467.912 844.853 402.669 823.973 319.888C804.208 241.528 784.809 179.618 765.92 132.02M884.344 518.007C966.876 731.658 1035.06 669.795 1085.19 518.007M765.92 132.02C747.611 184.931 731.825 250.014 719.05 319.888M765.92 132.02C816.855 -15.1814 887.313 -68.1679 966.761 132.02M1085.19 518.007C1103.91 461.294 1120.12 392.027 1133.61 319.888M1085.19 518.007C1065.83 467.912 1045.69 402.669 1024.81 319.888C1005.05 241.528 985.651 179.618 966.761 132.02M1085.19 518.007C1167.72 731.658 1235.91 669.795 1286.03 518.007M966.761 132.02C948.453 184.931 932.666 250.014 919.891 319.888M966.761 132.02C1017.7 -15.1814 1088.15 -68.1679 1167.6 132.02M1286.03 518.007C1304.75 461.294 1320.96 392.027 1334.45 319.888M1286.03 518.007C1266.68 467.912 1246.54 402.669 1225.66 319.888C1205.89 241.528 1186.49 179.618 1167.6 132.02M1286.03 518.007C1368.56 731.658 1436.75 669.795 1486.87 518.007M1167.6 132.02C1149.29 184.931 1133.51 250.014 1120.73 319.888M1167.6 132.02C1218.54 -15.1814 1289 -68.1679 1368.44 132.02M1486.87 518.007C1505.6 461.294 1521.8 392.027 1535.29 319.888M1486.87 518.007C1467.52 467.912 1447.38 402.669 1426.5 319.888C1406.73 241.528 1387.33 179.618 1368.44 132.02M1486.87 518.007C1569.4 731.658 1637.59 669.795 1687.71 518.007M1368.44 132.02C1350.14 184.931 1334.35 250.014 1321.57 319.888M1368.44 132.02C1431.49 -50.1808 1524.45 -88.0384 1627.34 319.888C1648.22 402.669 1668.36 467.912 1687.71 518.007M1687.71 518.007C1706.44 461.294 1722.64 392.027 1736.13 319.888M1687.71 518.007C1801.08 811.485 1887.38 585.104 1936.97 319.888" stroke="#525252" stroke-opacity="0.2" stroke-width="2"/>
</svg>
