<svg width="20" height="39" viewBox="0 0 20 39" fill="none" xmlns="http://www.w3.org/2000/svg">
<g clip-path="url(#clip0_223_820)" filter="url(#filter0_d_223_820)">
<g clip-path="url(#clip1_223_820)">
<path d="M5.55182 11.613C5.54958 11.4841 5.49679 11.3612 5.40481 11.2708C5.31284 11.1804 5.18904 11.1297 5.06009 11.1297C4.93113 11.1297 4.80734 11.1804 4.71537 11.2708C4.62339 11.3612 4.5706 11.484 4.56836 11.613L4.56836 20.9329C4.56836 25.3397 7.36781 26.9095 9.98851 26.9095C10.6905 26.9354 11.3905 26.8206 12.0475 26.5719C12.7044 26.3232 13.305 25.9457 13.8139 25.4614L13.8201 25.4552C14.3738 24.8463 14.7996 24.1325 15.0723 23.3561C15.3451 22.5796 15.4592 21.7563 15.408 20.935L15.4087 7.62768C15.4465 7.025 15.3617 6.42091 15.1593 5.85198C14.9569 5.28304 14.6411 4.76109 14.2312 4.31771C13.8524 3.96223 13.4068 3.68544 12.9203 3.50337C12.4338 3.32131 11.916 3.23758 11.3969 3.25705C10.8778 3.23783 10.36 3.3216 9.87348 3.50353C9.38691 3.68546 8.94118 3.96194 8.56201 4.31702L8.54463 4.33441C8.14091 4.7776 7.83028 5.29733 7.63112 5.86278C7.43196 6.42824 7.34834 7.02792 7.3852 7.62629L7.3852 17.1855C7.34109 17.5479 7.37628 17.9157 7.48833 18.2632C7.60039 18.6107 7.78663 18.9298 8.03416 19.1982C8.2817 19.4667 8.58462 19.6781 8.92195 19.8179C9.25928 19.9577 9.62296 20.0225 9.98782 20.0079C10.3253 20.0199 10.6619 19.9645 10.9777 19.8449C11.2936 19.7254 11.5825 19.5441 11.8275 19.3117L11.8323 19.3068C12.093 19.021 12.2942 18.6862 12.4242 18.3219C12.5543 17.9576 12.6105 17.571 12.5897 17.1848L12.5884 8.75928C12.5861 8.63035 12.5333 8.50745 12.4414 8.41706C12.3494 8.32667 12.2256 8.27602 12.0966 8.27602C11.9677 8.27602 11.8439 8.32667 11.7519 8.41706C11.6599 8.50745 11.6071 8.63035 11.6049 8.75928L11.6049 17.1834C11.626 17.4407 11.5957 17.6997 11.5157 17.9452C11.4357 18.1907 11.3076 18.4179 11.1389 18.6134L11.1354 18.6168C10.8122 18.8828 10.4066 19.0281 9.98804 19.028C9.56948 19.0279 9.16397 18.8823 8.84091 18.6161C8.67099 18.4215 8.54162 18.1948 8.46041 17.9495C8.3792 17.7042 8.34777 17.4452 8.36796 17.1875L8.36379 7.63115C8.32977 7.1611 8.38975 6.68898 8.54022 6.24236C8.69068 5.79573 8.92862 5.38357 9.24014 5.02992L9.25266 5.0174C9.54127 4.75303 9.87928 4.5483 10.2473 4.41497C10.6153 4.28164 11.006 4.22236 11.3969 4.24051C11.7879 4.22227 12.1786 4.28159 12.5465 4.41504C12.9144 4.5485 13.2522 4.75346 13.5405 5.0181C13.8555 5.37163 14.0962 5.78489 14.2483 6.23331C14.4004 6.68172 14.4608 7.15615 14.4259 7.62837L14.4252 20.9357C14.4737 21.6274 14.3837 22.3218 14.1605 22.9783C13.9373 23.6348 13.5853 24.2401 13.1253 24.7589L13.1183 24.7659C12.7001 25.1589 12.2075 25.4643 11.6696 25.6642C11.1316 25.8642 10.5591 25.9546 9.98573 25.9302C7.16681 25.9295 5.54764 24.1086 5.54904 20.9371L5.55182 11.613Z" fill="#DEC8A7"/>
</g>
</g>
<defs>
<filter id="filter0_d_223_820" x="0" y="0" width="20" height="39" filterUnits="userSpaceOnUse" color-interpolation-filters="sRGB">
<feFlood flood-opacity="0" result="BackgroundImageFix"/>
<feColorMatrix in="SourceAlpha" type="matrix" values="0 0 0 0 0 0 0 0 0 0 0 0 0 0 0 0 0 0 127 0" result="hardAlpha"/>
<feOffset dy="4"/>
<feGaussianBlur stdDeviation="2"/>
<feComposite in2="hardAlpha" operator="out"/>
<feColorMatrix type="matrix" values="0 0 0 0 0 0 0 0 0 0 0 0 0 0 0 0 0 0 0.25 0"/>
<feBlend mode="normal" in2="BackgroundImageFix" result="effect1_dropShadow_223_820"/>
<feBlend mode="normal" in="SourceGraphic" in2="effect1_dropShadow_223_820" result="shape"/>
</filter>
<clipPath id="clip0_223_820">
<rect width="12" height="31" fill="white" transform="translate(4)"/>
</clipPath>
<clipPath id="clip1_223_820">
<rect width="23.6066" height="23.6066" fill="white" transform="translate(27.3848 15.3848) rotate(135)"/>
</clipPath>
</defs>
</svg>
