<svg width="90" height="100" viewBox="0 0 90 100" fill="none" xmlns="http://www.w3.org/2000/svg">
<g filter="url(#filter0_i_175_829)">
<path d="M42.8314 0.461113L2.11562 22.4658C0.908884 23.1169 0 24.6413 0 26.0134V49.3232L15.7189 44.3015L18.5139 71.4655L0 53.2377V73.0809C0 74.4515 0.908879 75.9766 2.11488 76.6291L42.8307 98.6338C43.398 98.9411 44.1255 99.1101 44.8793 99.1101C45.6337 99.1101 46.3606 98.9412 46.9286 98.6353L87.6458 76.6276C88.8504 75.9766 89.76 74.4515 89.76 73.0809V55.1371L72.3443 59.3736L69.5434 29.2455L89.76 50.8533V26.0134C89.76 24.6413 88.8504 23.1169 87.6458 22.4666L46.9293 0.461113C46.3613 0.153778 45.6206 0.000106812 44.88 0.000106812C44.1394 0.000106812 43.3987 0.153778 42.8314 0.461113ZM44.7839 2.73268L65.956 25.403L32.9117 35.9852L44.7839 2.73268ZM15.8521 18.0852L43.5029 3.14053L31.8987 35.6443L15.8521 18.0852ZM51.4453 5.94373L86.3736 24.8219C86.718 25.0083 87.0829 25.6208 87.0829 26.0134V44.1086L51.4453 5.94373ZM2.67711 26.0134C2.67711 25.6208 3.04123 25.0083 3.38861 24.8219L13.1714 19.5337L15.4385 41.5799L2.67711 45.6679V26.0134ZM14.3352 20.3938L29.5646 37.0565L16.4813 41.2464L14.3352 20.3938ZM34.3559 38.3339L65.8474 28.2492L55.2964 61.249L34.3559 38.3339ZM67.1896 32.8433L69.7152 60.0116L57.5576 62.9634L67.1896 32.8433ZM31.697 39.3907L54.0226 63.8213L20.028 72.0736L31.697 39.3907ZM16.7603 43.9673L30.4975 39.5691L19.4818 70.4211L16.7603 43.9673ZM72.4448 60.4486L87.0829 56.8945V73.0809C87.0829 73.4734 86.718 74.0859 86.3728 74.2738L74.3354 80.7804L72.4448 60.4486ZM3.38861 74.2738C3.04269 74.0859 2.67711 73.4734 2.67711 73.0809V57.3497L39.9482 94.0317L3.38861 74.2738ZM57.8118 64.0012L69.8158 61.0858L71.4762 78.9538L57.8118 64.0012ZM20.2035 73.1318L54.1319 64.8934L44.0971 96.2771L20.2035 73.1318ZM56.439 66.465L71.1121 82.521L47.1653 95.4643L56.439 66.465Z" fill="url(#paint0_linear_175_829)"/>
</g>
<defs>
<filter id="filter0_i_175_829" x="0" y="0" width="89.76" height="103.11" filterUnits="userSpaceOnUse" color-interpolation-filters="sRGB">
<feFlood flood-opacity="0" result="BackgroundImageFix"/>
<feBlend mode="normal" in="SourceGraphic" in2="BackgroundImageFix" result="shape"/>
<feColorMatrix in="SourceAlpha" type="matrix" values="0 0 0 0 0 0 0 0 0 0 0 0 0 0 0 0 0 0 127 0" result="hardAlpha"/>
<feOffset dy="4"/>
<feGaussianBlur stdDeviation="2"/>
<feComposite in2="hardAlpha" operator="arithmetic" k2="-1" k3="1"/>
<feColorMatrix type="matrix" values="0 0 0 0 0 0 0 0 0 0 0 0 0 0 0 0 0 0 0.25 0"/>
<feBlend mode="normal" in2="shape" result="effect1_innerShadow_175_829"/>
</filter>
<linearGradient id="paint0_linear_175_829" x1="11.9312" y1="82.4982" x2="80.5009" y2="13.9313" gradientUnits="userSpaceOnUse">
<stop stop-color="#DEC8A7"/>
<stop offset="0.301806" stop-color="#F3963A"/>
<stop offset="0.645833" stop-color="#E37B00"/>
<stop offset="1" stop-color="#B03B31"/>
</linearGradient>
</defs>
</svg>
