<svg width="17" height="17" viewBox="0 0 17 17" fill="none" xmlns="http://www.w3.org/2000/svg">
<path d="M15.834 1.16594C15.8011 1.13296 15.7621 1.10679 15.719 1.08893C15.676 1.07108 15.6299 1.06189 15.5833 1.06189C15.5367 1.06189 15.4906 1.07108 15.4476 1.08893C15.4045 1.10679 15.3654 1.13296 15.3325 1.16594L8.49996 7.99923L1.66738 1.16594C1.60087 1.09944 1.51068 1.06208 1.41663 1.06208C1.32258 1.06208 1.23238 1.09944 1.16588 1.16594C1.09937 1.23244 1.06201 1.32264 1.06201 1.41669C1.06201 1.51074 1.09937 1.60094 1.16588 1.66744L7.99917 8.50002L1.16588 15.3326C1.09937 15.3991 1.06201 15.4893 1.06201 15.5834C1.06201 15.6774 1.09937 15.7676 1.16588 15.8341C1.23238 15.9006 1.32258 15.938 1.41663 15.938C1.51068 15.938 1.60087 15.9006 1.66738 15.8341L8.49996 9.00081L15.3325 15.8341C15.399 15.9006 15.4892 15.938 15.5833 15.938C15.6773 15.938 15.7675 15.9006 15.834 15.8341C15.9005 15.7676 15.9379 15.6774 15.9379 15.5834C15.9379 15.4893 15.9005 15.3991 15.834 15.3326L9.00075 8.50002L15.834 1.66744C15.867 1.63454 15.8932 1.59546 15.911 1.55243C15.9289 1.5094 15.9381 1.46327 15.9381 1.41669C15.9381 1.3701 15.9289 1.32398 15.911 1.28095C15.8932 1.23792 15.867 1.19884 15.834 1.16594Z" fill="#F09236"/>
</svg>
