<svg width="17" height="17" viewBox="0 0 17 17" fill="none" xmlns="http://www.w3.org/2000/svg">
<g clip-path="url(#clip0_223_1153)">
<path d="M16.3512 0.157985L5.75664 16.0884L0.604936 10.9034C0.573702 10.8653 0.534849 10.8341 0.490862 10.8118C0.446875 10.7895 0.398725 10.7767 0.349492 10.7741C0.300259 10.7715 0.251028 10.7792 0.204951 10.7968C0.158873 10.8143 0.116964 10.8413 0.0819056 10.8759C0.0468471 10.9106 0.0194116 10.9522 0.00135492 10.9981C-0.0167017 11.0439 -0.0249817 11.0931 -0.022955 11.1423C-0.0209283 11.1916 -0.00863967 11.2399 0.0131244 11.2841C0.0348886 11.3284 0.0656487 11.3676 0.103436 11.3992L5.5576 16.8924C5.5902 16.926 5.62915 16.9528 5.67219 16.9713C5.71523 16.9898 5.76151 16.9995 5.80835 17H5.84306C5.89528 16.9948 5.9457 16.9781 5.99065 16.951C6.03561 16.9239 6.07399 16.8872 6.10302 16.8435L16.9405 0.551818C16.9679 0.513164 16.9873 0.469404 16.9975 0.423129C17.0077 0.376854 17.0085 0.329004 16.9998 0.282414C16.9912 0.235823 16.9733 0.19144 16.9472 0.151891C16.9211 0.112342 16.8873 0.0784331 16.8479 0.0521711C16.8085 0.025909 16.7642 0.00782831 16.7176 -0.00100032C16.671 -0.00982895 16.6232 -0.00922599 16.5769 0.000772852C16.5306 0.0107717 16.4867 0.0299631 16.448 0.0572106C16.4092 0.0844581 16.3763 0.119208 16.3512 0.159401V0.157985Z" fill="url(#paint0_linear_223_1153)"/>
</g>
<defs>
<linearGradient id="paint0_linear_223_1153" x1="2.24029" y1="2.8434" x2="13.9478" y2="15.7865" gradientUnits="userSpaceOnUse">
<stop stop-color="#DEC8A7"/>
<stop offset="0.301806" stop-color="#F3963A"/>
<stop offset="0.645833" stop-color="#E37B00"/>
<stop offset="1" stop-color="#B03B31"/>
</linearGradient>
<clipPath id="clip0_223_1153">
<rect width="17" height="17" fill="white"/>
</clipPath>
</defs>
</svg>
